M48
; DRILL file {KiCad 9.0.7} date 2026-03-26T19:28:47+0100
; FORMAT={-:-/ absolute / metric / decimal}
; #@! TF.CreationDate,2026-03-26T19:28:47+01:00
; #@! TF.GenerationSoftware,Kicad,Pcbnew,9.0.7
; #@! TF.FileFunction,Plated,1,4,PTH
FMAT,2
METRIC
; #@! TA.AperFunction,Plated,PTH,ViaDrill
T1C0.400
; #@! TA.AperFunction,Plated,PTH,ComponentDrill
T2C0.500
; #@! TA.AperFunction,Plated,PTH,ViaDrill
T3C0.750
; #@! TA.AperFunction,Plated,PTH,ComponentDrill
T4C1.100
; #@! TA.AperFunction,Plated,PTH,ComponentDrill
T5C1.200
; #@! TA.AperFunction,Plated,PTH,ComponentDrill
T6C3.500
%
G90
G05
T1
X152.612Y-81.388
T2
X118.375Y-78.25
X118.375Y-121.75
X119.144Y-76.394
X119.144Y-80.106
X119.144Y-119.894
X119.144Y-123.606
X121.0Y-75.625
X121.0Y-80.875
X121.0Y-119.125
X121.0Y-124.375
X122.856Y-76.394
X122.856Y-80.106
X122.856Y-119.894
X122.856Y-123.606
X123.625Y-78.25
X123.625Y-121.75
X176.375Y-78.25
X176.375Y-121.75
X177.144Y-76.394
X177.144Y-80.106
X177.144Y-119.894
X177.144Y-123.606
X179.0Y-75.625
X179.0Y-80.875
X179.0Y-119.125
X179.0Y-124.375
X180.856Y-76.394
X180.856Y-80.106
X180.856Y-119.894
X180.856Y-123.606
X181.625Y-78.25
X181.625Y-121.75
T3
X127.5Y-74.475
X127.5Y-91.5
X148.7Y-75.25
X148.7Y-78.25
X148.7Y-81.25
X155.0Y-97.175
X156.675Y-115.675
X157.5Y-97.175
X160.0Y-97.175
X162.5Y-97.175
X163.6Y-78.225
X165.0Y-97.175
X165.6Y-75.0
X167.5Y-97.175
X167.85Y-77.0
X170.0Y-97.175
X170.1Y-79.0
X172.5Y-97.175
T4
X127.6Y-71.49
X127.6Y-94.51
X130.14Y-71.49
X130.14Y-94.51
X132.68Y-71.49
X132.68Y-94.51
X135.22Y-71.49
X135.22Y-94.51
X137.76Y-71.49
X137.76Y-94.51
X140.3Y-71.49
X140.3Y-94.51
X142.84Y-71.49
X142.84Y-94.51
X145.38Y-71.49
X145.38Y-94.51
X147.92Y-71.49
X147.92Y-94.51
X150.46Y-71.49
X150.46Y-94.51
X153.0Y-71.49
X153.0Y-94.51
X155.54Y-71.49
X155.54Y-94.51
X158.08Y-71.49
X158.08Y-94.51
X160.62Y-71.49
X160.62Y-94.51
X163.16Y-71.49
X163.16Y-94.51
X165.7Y-71.49
X165.7Y-94.51
X168.24Y-71.49
X168.24Y-94.51
X170.78Y-71.49
X170.78Y-94.51
T5
X142.9Y-118.43
X142.9Y-133.67
X148.775Y-118.43
X148.775Y-133.67
T6
X121.0Y-78.25
X121.0Y-121.75
X179.0Y-78.25
X179.0Y-121.75
M30
