G04 #@! TF.GenerationSoftware,KiCad,Pcbnew,9.0.7*
G04 #@! TF.CreationDate,2026-03-26T19:29:14+01:00*
G04 #@! TF.ProjectId,lofence,6c6f6665-6e63-4652-9e6b-696361645f70,rev?*
G04 #@! TF.SameCoordinates,Original*
G04 #@! TF.FileFunction,Legend,Top*
G04 #@! TF.FilePolarity,Positive*
%FSLAX46Y46*%
G04 Gerber Fmt 4.6, Leading zero omitted, Abs format (unit mm)*
G04 Created by KiCad (PCBNEW 9.0.7) date 2026-03-26 19:29:14*
%MOMM*%
%LPD*%
G01*
G04 APERTURE LIST*
%ADD10C,0.150000*%
%ADD11C,0.120000*%
%ADD12C,0.127000*%
%ADD13C,0.200000*%
%ADD14C,0.000000*%
G04 APERTURE END LIST*
D10*
X111300000Y-98600000D02*
X188700000Y-98600000D01*
X117311779Y-104359875D02*
X117311779Y-103359875D01*
X117311779Y-103836065D02*
X117883207Y-103836065D01*
X117883207Y-104359875D02*
X117883207Y-103359875D01*
X118740350Y-104312256D02*
X118645112Y-104359875D01*
X118645112Y-104359875D02*
X118454636Y-104359875D01*
X118454636Y-104359875D02*
X118359398Y-104312256D01*
X118359398Y-104312256D02*
X118311779Y-104217017D01*
X118311779Y-104217017D02*
X118311779Y-103836065D01*
X118311779Y-103836065D02*
X118359398Y-103740827D01*
X118359398Y-103740827D02*
X118454636Y-103693208D01*
X118454636Y-103693208D02*
X118645112Y-103693208D01*
X118645112Y-103693208D02*
X118740350Y-103740827D01*
X118740350Y-103740827D02*
X118787969Y-103836065D01*
X118787969Y-103836065D02*
X118787969Y-103931303D01*
X118787969Y-103931303D02*
X118311779Y-104026541D01*
X119359398Y-104359875D02*
X119264160Y-104312256D01*
X119264160Y-104312256D02*
X119216541Y-104217017D01*
X119216541Y-104217017D02*
X119216541Y-103359875D01*
X119597494Y-103693208D02*
X119978446Y-103693208D01*
X119740351Y-103359875D02*
X119740351Y-104217017D01*
X119740351Y-104217017D02*
X119787970Y-104312256D01*
X119787970Y-104312256D02*
X119883208Y-104359875D01*
X119883208Y-104359875D02*
X119978446Y-104359875D01*
X120692732Y-104312256D02*
X120597494Y-104359875D01*
X120597494Y-104359875D02*
X120407018Y-104359875D01*
X120407018Y-104359875D02*
X120311780Y-104312256D01*
X120311780Y-104312256D02*
X120264161Y-104217017D01*
X120264161Y-104217017D02*
X120264161Y-103836065D01*
X120264161Y-103836065D02*
X120311780Y-103740827D01*
X120311780Y-103740827D02*
X120407018Y-103693208D01*
X120407018Y-103693208D02*
X120597494Y-103693208D01*
X120597494Y-103693208D02*
X120692732Y-103740827D01*
X120692732Y-103740827D02*
X120740351Y-103836065D01*
X120740351Y-103836065D02*
X120740351Y-103931303D01*
X120740351Y-103931303D02*
X120264161Y-104026541D01*
X121597494Y-104312256D02*
X121502256Y-104359875D01*
X121502256Y-104359875D02*
X121311780Y-104359875D01*
X121311780Y-104359875D02*
X121216542Y-104312256D01*
X121216542Y-104312256D02*
X121168923Y-104264636D01*
X121168923Y-104264636D02*
X121121304Y-104169398D01*
X121121304Y-104169398D02*
X121121304Y-103883684D01*
X121121304Y-103883684D02*
X121168923Y-103788446D01*
X121168923Y-103788446D02*
X121216542Y-103740827D01*
X121216542Y-103740827D02*
X121311780Y-103693208D01*
X121311780Y-103693208D02*
X121502256Y-103693208D01*
X121502256Y-103693208D02*
X121597494Y-103740827D01*
X121787971Y-104455113D02*
X122549875Y-104455113D01*
X122645114Y-103359875D02*
X122978447Y-104359875D01*
X122978447Y-104359875D02*
X123311780Y-103359875D01*
X124073685Y-103693208D02*
X124073685Y-104359875D01*
X123835590Y-103312256D02*
X123597495Y-104026541D01*
X123597495Y-104026541D02*
X124216542Y-104026541D01*
X124359400Y-104455113D02*
X125121304Y-104455113D01*
X125311781Y-104074160D02*
X125787971Y-104074160D01*
X125216543Y-104359875D02*
X125549876Y-103359875D01*
X125549876Y-103359875D02*
X125883209Y-104359875D01*
X126645114Y-104359875D02*
X126645114Y-103359875D01*
X126645114Y-104312256D02*
X126549876Y-104359875D01*
X126549876Y-104359875D02*
X126359400Y-104359875D01*
X126359400Y-104359875D02*
X126264162Y-104312256D01*
X126264162Y-104312256D02*
X126216543Y-104264636D01*
X126216543Y-104264636D02*
X126168924Y-104169398D01*
X126168924Y-104169398D02*
X126168924Y-103883684D01*
X126168924Y-103883684D02*
X126216543Y-103788446D01*
X126216543Y-103788446D02*
X126264162Y-103740827D01*
X126264162Y-103740827D02*
X126359400Y-103693208D01*
X126359400Y-103693208D02*
X126549876Y-103693208D01*
X126549876Y-103693208D02*
X126645114Y-103740827D01*
X127549876Y-104359875D02*
X127549876Y-103836065D01*
X127549876Y-103836065D02*
X127502257Y-103740827D01*
X127502257Y-103740827D02*
X127407019Y-103693208D01*
X127407019Y-103693208D02*
X127216543Y-103693208D01*
X127216543Y-103693208D02*
X127121305Y-103740827D01*
X127549876Y-104312256D02*
X127454638Y-104359875D01*
X127454638Y-104359875D02*
X127216543Y-104359875D01*
X127216543Y-104359875D02*
X127121305Y-104312256D01*
X127121305Y-104312256D02*
X127073686Y-104217017D01*
X127073686Y-104217017D02*
X127073686Y-104121779D01*
X127073686Y-104121779D02*
X127121305Y-104026541D01*
X127121305Y-104026541D02*
X127216543Y-103978922D01*
X127216543Y-103978922D02*
X127454638Y-103978922D01*
X127454638Y-103978922D02*
X127549876Y-103931303D01*
X128026067Y-103693208D02*
X128026067Y-104693208D01*
X128026067Y-103740827D02*
X128121305Y-103693208D01*
X128121305Y-103693208D02*
X128311781Y-103693208D01*
X128311781Y-103693208D02*
X128407019Y-103740827D01*
X128407019Y-103740827D02*
X128454638Y-103788446D01*
X128454638Y-103788446D02*
X128502257Y-103883684D01*
X128502257Y-103883684D02*
X128502257Y-104169398D01*
X128502257Y-104169398D02*
X128454638Y-104264636D01*
X128454638Y-104264636D02*
X128407019Y-104312256D01*
X128407019Y-104312256D02*
X128311781Y-104359875D01*
X128311781Y-104359875D02*
X128121305Y-104359875D01*
X128121305Y-104359875D02*
X128026067Y-104312256D01*
X128787972Y-103693208D02*
X129168924Y-103693208D01*
X128930829Y-103359875D02*
X128930829Y-104217017D01*
X128930829Y-104217017D02*
X128978448Y-104312256D01*
X128978448Y-104312256D02*
X129073686Y-104359875D01*
X129073686Y-104359875D02*
X129168924Y-104359875D01*
X129883210Y-104312256D02*
X129787972Y-104359875D01*
X129787972Y-104359875D02*
X129597496Y-104359875D01*
X129597496Y-104359875D02*
X129502258Y-104312256D01*
X129502258Y-104312256D02*
X129454639Y-104217017D01*
X129454639Y-104217017D02*
X129454639Y-103836065D01*
X129454639Y-103836065D02*
X129502258Y-103740827D01*
X129502258Y-103740827D02*
X129597496Y-103693208D01*
X129597496Y-103693208D02*
X129787972Y-103693208D01*
X129787972Y-103693208D02*
X129883210Y-103740827D01*
X129883210Y-103740827D02*
X129930829Y-103836065D01*
X129930829Y-103836065D02*
X129930829Y-103931303D01*
X129930829Y-103931303D02*
X129454639Y-104026541D01*
X130359401Y-104359875D02*
X130359401Y-103693208D01*
X130359401Y-103883684D02*
X130407020Y-103788446D01*
X130407020Y-103788446D02*
X130454639Y-103740827D01*
X130454639Y-103740827D02*
X130549877Y-103693208D01*
X130549877Y-103693208D02*
X130645115Y-103693208D01*
X117311779Y-105969819D02*
X117311779Y-104969819D01*
X117740350Y-105969819D02*
X117740350Y-105446009D01*
X117740350Y-105446009D02*
X117692731Y-105350771D01*
X117692731Y-105350771D02*
X117597493Y-105303152D01*
X117597493Y-105303152D02*
X117454636Y-105303152D01*
X117454636Y-105303152D02*
X117359398Y-105350771D01*
X117359398Y-105350771D02*
X117311779Y-105398390D01*
X118073684Y-105303152D02*
X118454636Y-105303152D01*
X118216541Y-104969819D02*
X118216541Y-105826961D01*
X118216541Y-105826961D02*
X118264160Y-105922200D01*
X118264160Y-105922200D02*
X118359398Y-105969819D01*
X118359398Y-105969819D02*
X118454636Y-105969819D01*
X118645113Y-105303152D02*
X119026065Y-105303152D01*
X118787970Y-104969819D02*
X118787970Y-105826961D01*
X118787970Y-105826961D02*
X118835589Y-105922200D01*
X118835589Y-105922200D02*
X118930827Y-105969819D01*
X118930827Y-105969819D02*
X119026065Y-105969819D01*
X119359399Y-105303152D02*
X119359399Y-106303152D01*
X119359399Y-105350771D02*
X119454637Y-105303152D01*
X119454637Y-105303152D02*
X119645113Y-105303152D01*
X119645113Y-105303152D02*
X119740351Y-105350771D01*
X119740351Y-105350771D02*
X119787970Y-105398390D01*
X119787970Y-105398390D02*
X119835589Y-105493628D01*
X119835589Y-105493628D02*
X119835589Y-105779342D01*
X119835589Y-105779342D02*
X119787970Y-105874580D01*
X119787970Y-105874580D02*
X119740351Y-105922200D01*
X119740351Y-105922200D02*
X119645113Y-105969819D01*
X119645113Y-105969819D02*
X119454637Y-105969819D01*
X119454637Y-105969819D02*
X119359399Y-105922200D01*
X120216542Y-105922200D02*
X120311780Y-105969819D01*
X120311780Y-105969819D02*
X120502256Y-105969819D01*
X120502256Y-105969819D02*
X120597494Y-105922200D01*
X120597494Y-105922200D02*
X120645113Y-105826961D01*
X120645113Y-105826961D02*
X120645113Y-105779342D01*
X120645113Y-105779342D02*
X120597494Y-105684104D01*
X120597494Y-105684104D02*
X120502256Y-105636485D01*
X120502256Y-105636485D02*
X120359399Y-105636485D01*
X120359399Y-105636485D02*
X120264161Y-105588866D01*
X120264161Y-105588866D02*
X120216542Y-105493628D01*
X120216542Y-105493628D02*
X120216542Y-105446009D01*
X120216542Y-105446009D02*
X120264161Y-105350771D01*
X120264161Y-105350771D02*
X120359399Y-105303152D01*
X120359399Y-105303152D02*
X120502256Y-105303152D01*
X120502256Y-105303152D02*
X120597494Y-105350771D01*
X121073685Y-105874580D02*
X121121304Y-105922200D01*
X121121304Y-105922200D02*
X121073685Y-105969819D01*
X121073685Y-105969819D02*
X121026066Y-105922200D01*
X121026066Y-105922200D02*
X121073685Y-105874580D01*
X121073685Y-105874580D02*
X121073685Y-105969819D01*
X121073685Y-105350771D02*
X121121304Y-105398390D01*
X121121304Y-105398390D02*
X121073685Y-105446009D01*
X121073685Y-105446009D02*
X121026066Y-105398390D01*
X121026066Y-105398390D02*
X121073685Y-105350771D01*
X121073685Y-105350771D02*
X121073685Y-105446009D01*
X122264160Y-104922200D02*
X121407018Y-106207914D01*
X123311779Y-104922200D02*
X122454637Y-106207914D01*
X124073684Y-105303152D02*
X124073684Y-106112676D01*
X124073684Y-106112676D02*
X124026065Y-106207914D01*
X124026065Y-106207914D02*
X123978446Y-106255533D01*
X123978446Y-106255533D02*
X123883208Y-106303152D01*
X123883208Y-106303152D02*
X123740351Y-106303152D01*
X123740351Y-106303152D02*
X123645113Y-106255533D01*
X124073684Y-105922200D02*
X123978446Y-105969819D01*
X123978446Y-105969819D02*
X123787970Y-105969819D01*
X123787970Y-105969819D02*
X123692732Y-105922200D01*
X123692732Y-105922200D02*
X123645113Y-105874580D01*
X123645113Y-105874580D02*
X123597494Y-105779342D01*
X123597494Y-105779342D02*
X123597494Y-105493628D01*
X123597494Y-105493628D02*
X123645113Y-105398390D01*
X123645113Y-105398390D02*
X123692732Y-105350771D01*
X123692732Y-105350771D02*
X123787970Y-105303152D01*
X123787970Y-105303152D02*
X123978446Y-105303152D01*
X123978446Y-105303152D02*
X124073684Y-105350771D01*
X124549875Y-105969819D02*
X124549875Y-105303152D01*
X124549875Y-104969819D02*
X124502256Y-105017438D01*
X124502256Y-105017438D02*
X124549875Y-105065057D01*
X124549875Y-105065057D02*
X124597494Y-105017438D01*
X124597494Y-105017438D02*
X124549875Y-104969819D01*
X124549875Y-104969819D02*
X124549875Y-105065057D01*
X124883208Y-105303152D02*
X125264160Y-105303152D01*
X125026065Y-104969819D02*
X125026065Y-105826961D01*
X125026065Y-105826961D02*
X125073684Y-105922200D01*
X125073684Y-105922200D02*
X125168922Y-105969819D01*
X125168922Y-105969819D02*
X125264160Y-105969819D01*
X125597494Y-105969819D02*
X125597494Y-104969819D01*
X126026065Y-105969819D02*
X126026065Y-105446009D01*
X126026065Y-105446009D02*
X125978446Y-105350771D01*
X125978446Y-105350771D02*
X125883208Y-105303152D01*
X125883208Y-105303152D02*
X125740351Y-105303152D01*
X125740351Y-105303152D02*
X125645113Y-105350771D01*
X125645113Y-105350771D02*
X125597494Y-105398390D01*
X126930827Y-105303152D02*
X126930827Y-105969819D01*
X126502256Y-105303152D02*
X126502256Y-105826961D01*
X126502256Y-105826961D02*
X126549875Y-105922200D01*
X126549875Y-105922200D02*
X126645113Y-105969819D01*
X126645113Y-105969819D02*
X126787970Y-105969819D01*
X126787970Y-105969819D02*
X126883208Y-105922200D01*
X126883208Y-105922200D02*
X126930827Y-105874580D01*
X127407018Y-105969819D02*
X127407018Y-104969819D01*
X127407018Y-105350771D02*
X127502256Y-105303152D01*
X127502256Y-105303152D02*
X127692732Y-105303152D01*
X127692732Y-105303152D02*
X127787970Y-105350771D01*
X127787970Y-105350771D02*
X127835589Y-105398390D01*
X127835589Y-105398390D02*
X127883208Y-105493628D01*
X127883208Y-105493628D02*
X127883208Y-105779342D01*
X127883208Y-105779342D02*
X127835589Y-105874580D01*
X127835589Y-105874580D02*
X127787970Y-105922200D01*
X127787970Y-105922200D02*
X127692732Y-105969819D01*
X127692732Y-105969819D02*
X127502256Y-105969819D01*
X127502256Y-105969819D02*
X127407018Y-105922200D01*
X128311780Y-105874580D02*
X128359399Y-105922200D01*
X128359399Y-105922200D02*
X128311780Y-105969819D01*
X128311780Y-105969819D02*
X128264161Y-105922200D01*
X128264161Y-105922200D02*
X128311780Y-105874580D01*
X128311780Y-105874580D02*
X128311780Y-105969819D01*
X129216541Y-105922200D02*
X129121303Y-105969819D01*
X129121303Y-105969819D02*
X128930827Y-105969819D01*
X128930827Y-105969819D02*
X128835589Y-105922200D01*
X128835589Y-105922200D02*
X128787970Y-105874580D01*
X128787970Y-105874580D02*
X128740351Y-105779342D01*
X128740351Y-105779342D02*
X128740351Y-105493628D01*
X128740351Y-105493628D02*
X128787970Y-105398390D01*
X128787970Y-105398390D02*
X128835589Y-105350771D01*
X128835589Y-105350771D02*
X128930827Y-105303152D01*
X128930827Y-105303152D02*
X129121303Y-105303152D01*
X129121303Y-105303152D02*
X129216541Y-105350771D01*
X129787970Y-105969819D02*
X129692732Y-105922200D01*
X129692732Y-105922200D02*
X129645113Y-105874580D01*
X129645113Y-105874580D02*
X129597494Y-105779342D01*
X129597494Y-105779342D02*
X129597494Y-105493628D01*
X129597494Y-105493628D02*
X129645113Y-105398390D01*
X129645113Y-105398390D02*
X129692732Y-105350771D01*
X129692732Y-105350771D02*
X129787970Y-105303152D01*
X129787970Y-105303152D02*
X129930827Y-105303152D01*
X129930827Y-105303152D02*
X130026065Y-105350771D01*
X130026065Y-105350771D02*
X130073684Y-105398390D01*
X130073684Y-105398390D02*
X130121303Y-105493628D01*
X130121303Y-105493628D02*
X130121303Y-105779342D01*
X130121303Y-105779342D02*
X130073684Y-105874580D01*
X130073684Y-105874580D02*
X130026065Y-105922200D01*
X130026065Y-105922200D02*
X129930827Y-105969819D01*
X129930827Y-105969819D02*
X129787970Y-105969819D01*
X130549875Y-105969819D02*
X130549875Y-105303152D01*
X130549875Y-105398390D02*
X130597494Y-105350771D01*
X130597494Y-105350771D02*
X130692732Y-105303152D01*
X130692732Y-105303152D02*
X130835589Y-105303152D01*
X130835589Y-105303152D02*
X130930827Y-105350771D01*
X130930827Y-105350771D02*
X130978446Y-105446009D01*
X130978446Y-105446009D02*
X130978446Y-105969819D01*
X130978446Y-105446009D02*
X131026065Y-105350771D01*
X131026065Y-105350771D02*
X131121303Y-105303152D01*
X131121303Y-105303152D02*
X131264160Y-105303152D01*
X131264160Y-105303152D02*
X131359399Y-105350771D01*
X131359399Y-105350771D02*
X131407018Y-105446009D01*
X131407018Y-105446009D02*
X131407018Y-105969819D01*
X132597493Y-104922200D02*
X131740351Y-106207914D01*
X132930827Y-105969819D02*
X132930827Y-105303152D01*
X132930827Y-105398390D02*
X132978446Y-105350771D01*
X132978446Y-105350771D02*
X133073684Y-105303152D01*
X133073684Y-105303152D02*
X133216541Y-105303152D01*
X133216541Y-105303152D02*
X133311779Y-105350771D01*
X133311779Y-105350771D02*
X133359398Y-105446009D01*
X133359398Y-105446009D02*
X133359398Y-105969819D01*
X133359398Y-105446009D02*
X133407017Y-105350771D01*
X133407017Y-105350771D02*
X133502255Y-105303152D01*
X133502255Y-105303152D02*
X133645112Y-105303152D01*
X133645112Y-105303152D02*
X133740351Y-105350771D01*
X133740351Y-105350771D02*
X133787970Y-105446009D01*
X133787970Y-105446009D02*
X133787970Y-105969819D01*
X134692731Y-105969819D02*
X134692731Y-105446009D01*
X134692731Y-105446009D02*
X134645112Y-105350771D01*
X134645112Y-105350771D02*
X134549874Y-105303152D01*
X134549874Y-105303152D02*
X134359398Y-105303152D01*
X134359398Y-105303152D02*
X134264160Y-105350771D01*
X134692731Y-105922200D02*
X134597493Y-105969819D01*
X134597493Y-105969819D02*
X134359398Y-105969819D01*
X134359398Y-105969819D02*
X134264160Y-105922200D01*
X134264160Y-105922200D02*
X134216541Y-105826961D01*
X134216541Y-105826961D02*
X134216541Y-105731723D01*
X134216541Y-105731723D02*
X134264160Y-105636485D01*
X134264160Y-105636485D02*
X134359398Y-105588866D01*
X134359398Y-105588866D02*
X134597493Y-105588866D01*
X134597493Y-105588866D02*
X134692731Y-105541247D01*
X135168922Y-105969819D02*
X135168922Y-105303152D01*
X135168922Y-105493628D02*
X135216541Y-105398390D01*
X135216541Y-105398390D02*
X135264160Y-105350771D01*
X135264160Y-105350771D02*
X135359398Y-105303152D01*
X135359398Y-105303152D02*
X135454636Y-105303152D01*
X136216541Y-105922200D02*
X136121303Y-105969819D01*
X136121303Y-105969819D02*
X135930827Y-105969819D01*
X135930827Y-105969819D02*
X135835589Y-105922200D01*
X135835589Y-105922200D02*
X135787970Y-105874580D01*
X135787970Y-105874580D02*
X135740351Y-105779342D01*
X135740351Y-105779342D02*
X135740351Y-105493628D01*
X135740351Y-105493628D02*
X135787970Y-105398390D01*
X135787970Y-105398390D02*
X135835589Y-105350771D01*
X135835589Y-105350771D02*
X135930827Y-105303152D01*
X135930827Y-105303152D02*
X136121303Y-105303152D01*
X136121303Y-105303152D02*
X136216541Y-105350771D01*
X137168922Y-105969819D02*
X136597494Y-105969819D01*
X136883208Y-105969819D02*
X136883208Y-104969819D01*
X136883208Y-104969819D02*
X136787970Y-105112676D01*
X136787970Y-105112676D02*
X136692732Y-105207914D01*
X136692732Y-105207914D02*
X136597494Y-105255533D01*
X138073684Y-104969819D02*
X137597494Y-104969819D01*
X137597494Y-104969819D02*
X137549875Y-105446009D01*
X137549875Y-105446009D02*
X137597494Y-105398390D01*
X137597494Y-105398390D02*
X137692732Y-105350771D01*
X137692732Y-105350771D02*
X137930827Y-105350771D01*
X137930827Y-105350771D02*
X138026065Y-105398390D01*
X138026065Y-105398390D02*
X138073684Y-105446009D01*
X138073684Y-105446009D02*
X138121303Y-105541247D01*
X138121303Y-105541247D02*
X138121303Y-105779342D01*
X138121303Y-105779342D02*
X138073684Y-105874580D01*
X138073684Y-105874580D02*
X138026065Y-105922200D01*
X138026065Y-105922200D02*
X137930827Y-105969819D01*
X137930827Y-105969819D02*
X137692732Y-105969819D01*
X137692732Y-105969819D02*
X137597494Y-105922200D01*
X137597494Y-105922200D02*
X137549875Y-105874580D01*
X138454637Y-104969819D02*
X139121303Y-104969819D01*
X139121303Y-104969819D02*
X138692732Y-105969819D01*
X139407018Y-104969819D02*
X140073684Y-104969819D01*
X140073684Y-104969819D02*
X139645113Y-105969819D01*
X140883208Y-104969819D02*
X140692732Y-104969819D01*
X140692732Y-104969819D02*
X140597494Y-105017438D01*
X140597494Y-105017438D02*
X140549875Y-105065057D01*
X140549875Y-105065057D02*
X140454637Y-105207914D01*
X140454637Y-105207914D02*
X140407018Y-105398390D01*
X140407018Y-105398390D02*
X140407018Y-105779342D01*
X140407018Y-105779342D02*
X140454637Y-105874580D01*
X140454637Y-105874580D02*
X140502256Y-105922200D01*
X140502256Y-105922200D02*
X140597494Y-105969819D01*
X140597494Y-105969819D02*
X140787970Y-105969819D01*
X140787970Y-105969819D02*
X140883208Y-105922200D01*
X140883208Y-105922200D02*
X140930827Y-105874580D01*
X140930827Y-105874580D02*
X140978446Y-105779342D01*
X140978446Y-105779342D02*
X140978446Y-105541247D01*
X140978446Y-105541247D02*
X140930827Y-105446009D01*
X140930827Y-105446009D02*
X140883208Y-105398390D01*
X140883208Y-105398390D02*
X140787970Y-105350771D01*
X140787970Y-105350771D02*
X140597494Y-105350771D01*
X140597494Y-105350771D02*
X140502256Y-105398390D01*
X140502256Y-105398390D02*
X140454637Y-105446009D01*
X140454637Y-105446009D02*
X140407018Y-105541247D01*
X142121303Y-104922200D02*
X141264161Y-106207914D01*
X142454637Y-105969819D02*
X142454637Y-104969819D01*
X142454637Y-105446009D02*
X143026065Y-105446009D01*
X143026065Y-105969819D02*
X143026065Y-104969819D01*
X143883208Y-105922200D02*
X143787970Y-105969819D01*
X143787970Y-105969819D02*
X143597494Y-105969819D01*
X143597494Y-105969819D02*
X143502256Y-105922200D01*
X143502256Y-105922200D02*
X143454637Y-105826961D01*
X143454637Y-105826961D02*
X143454637Y-105446009D01*
X143454637Y-105446009D02*
X143502256Y-105350771D01*
X143502256Y-105350771D02*
X143597494Y-105303152D01*
X143597494Y-105303152D02*
X143787970Y-105303152D01*
X143787970Y-105303152D02*
X143883208Y-105350771D01*
X143883208Y-105350771D02*
X143930827Y-105446009D01*
X143930827Y-105446009D02*
X143930827Y-105541247D01*
X143930827Y-105541247D02*
X143454637Y-105636485D01*
X144502256Y-105969819D02*
X144407018Y-105922200D01*
X144407018Y-105922200D02*
X144359399Y-105826961D01*
X144359399Y-105826961D02*
X144359399Y-104969819D01*
X144740352Y-105303152D02*
X145121304Y-105303152D01*
X144883209Y-104969819D02*
X144883209Y-105826961D01*
X144883209Y-105826961D02*
X144930828Y-105922200D01*
X144930828Y-105922200D02*
X145026066Y-105969819D01*
X145026066Y-105969819D02*
X145121304Y-105969819D01*
X145835590Y-105922200D02*
X145740352Y-105969819D01*
X145740352Y-105969819D02*
X145549876Y-105969819D01*
X145549876Y-105969819D02*
X145454638Y-105922200D01*
X145454638Y-105922200D02*
X145407019Y-105826961D01*
X145407019Y-105826961D02*
X145407019Y-105446009D01*
X145407019Y-105446009D02*
X145454638Y-105350771D01*
X145454638Y-105350771D02*
X145549876Y-105303152D01*
X145549876Y-105303152D02*
X145740352Y-105303152D01*
X145740352Y-105303152D02*
X145835590Y-105350771D01*
X145835590Y-105350771D02*
X145883209Y-105446009D01*
X145883209Y-105446009D02*
X145883209Y-105541247D01*
X145883209Y-105541247D02*
X145407019Y-105636485D01*
X146740352Y-105922200D02*
X146645114Y-105969819D01*
X146645114Y-105969819D02*
X146454638Y-105969819D01*
X146454638Y-105969819D02*
X146359400Y-105922200D01*
X146359400Y-105922200D02*
X146311781Y-105874580D01*
X146311781Y-105874580D02*
X146264162Y-105779342D01*
X146264162Y-105779342D02*
X146264162Y-105493628D01*
X146264162Y-105493628D02*
X146311781Y-105398390D01*
X146311781Y-105398390D02*
X146359400Y-105350771D01*
X146359400Y-105350771D02*
X146454638Y-105303152D01*
X146454638Y-105303152D02*
X146645114Y-105303152D01*
X146645114Y-105303152D02*
X146740352Y-105350771D01*
X146930829Y-106065057D02*
X147692733Y-106065057D01*
X147787972Y-104969819D02*
X148121305Y-105969819D01*
X148121305Y-105969819D02*
X148454638Y-104969819D01*
X149216543Y-105303152D02*
X149216543Y-105969819D01*
X148978448Y-104922200D02*
X148740353Y-105636485D01*
X148740353Y-105636485D02*
X149359400Y-105636485D01*
X149502258Y-106065057D02*
X150264162Y-106065057D01*
X150454639Y-105684104D02*
X150930829Y-105684104D01*
X150359401Y-105969819D02*
X150692734Y-104969819D01*
X150692734Y-104969819D02*
X151026067Y-105969819D01*
X151787972Y-105969819D02*
X151787972Y-104969819D01*
X151787972Y-105922200D02*
X151692734Y-105969819D01*
X151692734Y-105969819D02*
X151502258Y-105969819D01*
X151502258Y-105969819D02*
X151407020Y-105922200D01*
X151407020Y-105922200D02*
X151359401Y-105874580D01*
X151359401Y-105874580D02*
X151311782Y-105779342D01*
X151311782Y-105779342D02*
X151311782Y-105493628D01*
X151311782Y-105493628D02*
X151359401Y-105398390D01*
X151359401Y-105398390D02*
X151407020Y-105350771D01*
X151407020Y-105350771D02*
X151502258Y-105303152D01*
X151502258Y-105303152D02*
X151692734Y-105303152D01*
X151692734Y-105303152D02*
X151787972Y-105350771D01*
X152692734Y-105969819D02*
X152692734Y-105446009D01*
X152692734Y-105446009D02*
X152645115Y-105350771D01*
X152645115Y-105350771D02*
X152549877Y-105303152D01*
X152549877Y-105303152D02*
X152359401Y-105303152D01*
X152359401Y-105303152D02*
X152264163Y-105350771D01*
X152692734Y-105922200D02*
X152597496Y-105969819D01*
X152597496Y-105969819D02*
X152359401Y-105969819D01*
X152359401Y-105969819D02*
X152264163Y-105922200D01*
X152264163Y-105922200D02*
X152216544Y-105826961D01*
X152216544Y-105826961D02*
X152216544Y-105731723D01*
X152216544Y-105731723D02*
X152264163Y-105636485D01*
X152264163Y-105636485D02*
X152359401Y-105588866D01*
X152359401Y-105588866D02*
X152597496Y-105588866D01*
X152597496Y-105588866D02*
X152692734Y-105541247D01*
X153168925Y-105303152D02*
X153168925Y-106303152D01*
X153168925Y-105350771D02*
X153264163Y-105303152D01*
X153264163Y-105303152D02*
X153454639Y-105303152D01*
X153454639Y-105303152D02*
X153549877Y-105350771D01*
X153549877Y-105350771D02*
X153597496Y-105398390D01*
X153597496Y-105398390D02*
X153645115Y-105493628D01*
X153645115Y-105493628D02*
X153645115Y-105779342D01*
X153645115Y-105779342D02*
X153597496Y-105874580D01*
X153597496Y-105874580D02*
X153549877Y-105922200D01*
X153549877Y-105922200D02*
X153454639Y-105969819D01*
X153454639Y-105969819D02*
X153264163Y-105969819D01*
X153264163Y-105969819D02*
X153168925Y-105922200D01*
X153930830Y-105303152D02*
X154311782Y-105303152D01*
X154073687Y-104969819D02*
X154073687Y-105826961D01*
X154073687Y-105826961D02*
X154121306Y-105922200D01*
X154121306Y-105922200D02*
X154216544Y-105969819D01*
X154216544Y-105969819D02*
X154311782Y-105969819D01*
X155026068Y-105922200D02*
X154930830Y-105969819D01*
X154930830Y-105969819D02*
X154740354Y-105969819D01*
X154740354Y-105969819D02*
X154645116Y-105922200D01*
X154645116Y-105922200D02*
X154597497Y-105826961D01*
X154597497Y-105826961D02*
X154597497Y-105446009D01*
X154597497Y-105446009D02*
X154645116Y-105350771D01*
X154645116Y-105350771D02*
X154740354Y-105303152D01*
X154740354Y-105303152D02*
X154930830Y-105303152D01*
X154930830Y-105303152D02*
X155026068Y-105350771D01*
X155026068Y-105350771D02*
X155073687Y-105446009D01*
X155073687Y-105446009D02*
X155073687Y-105541247D01*
X155073687Y-105541247D02*
X154597497Y-105636485D01*
X155502259Y-105969819D02*
X155502259Y-105303152D01*
X155502259Y-105493628D02*
X155549878Y-105398390D01*
X155549878Y-105398390D02*
X155597497Y-105350771D01*
X155597497Y-105350771D02*
X155692735Y-105303152D01*
X155692735Y-105303152D02*
X155787973Y-105303152D01*
X159733333Y-120529819D02*
X159400000Y-120053628D01*
X159161905Y-120529819D02*
X159161905Y-119529819D01*
X159161905Y-119529819D02*
X159542857Y-119529819D01*
X159542857Y-119529819D02*
X159638095Y-119577438D01*
X159638095Y-119577438D02*
X159685714Y-119625057D01*
X159685714Y-119625057D02*
X159733333Y-119720295D01*
X159733333Y-119720295D02*
X159733333Y-119863152D01*
X159733333Y-119863152D02*
X159685714Y-119958390D01*
X159685714Y-119958390D02*
X159638095Y-120006009D01*
X159638095Y-120006009D02*
X159542857Y-120053628D01*
X159542857Y-120053628D02*
X159161905Y-120053628D01*
X160590476Y-119863152D02*
X160590476Y-120529819D01*
X160352381Y-119482200D02*
X160114286Y-120196485D01*
X160114286Y-120196485D02*
X160733333Y-120196485D01*
X139984819Y-126216666D02*
X139508628Y-126549999D01*
X139984819Y-126788094D02*
X138984819Y-126788094D01*
X138984819Y-126788094D02*
X138984819Y-126407142D01*
X138984819Y-126407142D02*
X139032438Y-126311904D01*
X139032438Y-126311904D02*
X139080057Y-126264285D01*
X139080057Y-126264285D02*
X139175295Y-126216666D01*
X139175295Y-126216666D02*
X139318152Y-126216666D01*
X139318152Y-126216666D02*
X139413390Y-126264285D01*
X139413390Y-126264285D02*
X139461009Y-126311904D01*
X139461009Y-126311904D02*
X139508628Y-126407142D01*
X139508628Y-126407142D02*
X139508628Y-126788094D01*
X139984819Y-125264285D02*
X139984819Y-125835713D01*
X139984819Y-125549999D02*
X138984819Y-125549999D01*
X138984819Y-125549999D02*
X139127676Y-125645237D01*
X139127676Y-125645237D02*
X139222914Y-125740475D01*
X139222914Y-125740475D02*
X139270533Y-125835713D01*
X152599819Y-126216666D02*
X152123628Y-126549999D01*
X152599819Y-126788094D02*
X151599819Y-126788094D01*
X151599819Y-126788094D02*
X151599819Y-126407142D01*
X151599819Y-126407142D02*
X151647438Y-126311904D01*
X151647438Y-126311904D02*
X151695057Y-126264285D01*
X151695057Y-126264285D02*
X151790295Y-126216666D01*
X151790295Y-126216666D02*
X151933152Y-126216666D01*
X151933152Y-126216666D02*
X152028390Y-126264285D01*
X152028390Y-126264285D02*
X152076009Y-126311904D01*
X152076009Y-126311904D02*
X152123628Y-126407142D01*
X152123628Y-126407142D02*
X152123628Y-126788094D01*
X151695057Y-125835713D02*
X151647438Y-125788094D01*
X151647438Y-125788094D02*
X151599819Y-125692856D01*
X151599819Y-125692856D02*
X151599819Y-125454761D01*
X151599819Y-125454761D02*
X151647438Y-125359523D01*
X151647438Y-125359523D02*
X151695057Y-125311904D01*
X151695057Y-125311904D02*
X151790295Y-125264285D01*
X151790295Y-125264285D02*
X151885533Y-125264285D01*
X151885533Y-125264285D02*
X152028390Y-125311904D01*
X152028390Y-125311904D02*
X152599819Y-125883332D01*
X152599819Y-125883332D02*
X152599819Y-125264285D01*
X154958333Y-120709819D02*
X154625000Y-120233628D01*
X154386905Y-120709819D02*
X154386905Y-119709819D01*
X154386905Y-119709819D02*
X154767857Y-119709819D01*
X154767857Y-119709819D02*
X154863095Y-119757438D01*
X154863095Y-119757438D02*
X154910714Y-119805057D01*
X154910714Y-119805057D02*
X154958333Y-119900295D01*
X154958333Y-119900295D02*
X154958333Y-120043152D01*
X154958333Y-120043152D02*
X154910714Y-120138390D01*
X154910714Y-120138390D02*
X154863095Y-120186009D01*
X154863095Y-120186009D02*
X154767857Y-120233628D01*
X154767857Y-120233628D02*
X154386905Y-120233628D01*
X155291667Y-119709819D02*
X155910714Y-119709819D01*
X155910714Y-119709819D02*
X155577381Y-120090771D01*
X155577381Y-120090771D02*
X155720238Y-120090771D01*
X155720238Y-120090771D02*
X155815476Y-120138390D01*
X155815476Y-120138390D02*
X155863095Y-120186009D01*
X155863095Y-120186009D02*
X155910714Y-120281247D01*
X155910714Y-120281247D02*
X155910714Y-120519342D01*
X155910714Y-120519342D02*
X155863095Y-120614580D01*
X155863095Y-120614580D02*
X155815476Y-120662200D01*
X155815476Y-120662200D02*
X155720238Y-120709819D01*
X155720238Y-120709819D02*
X155434524Y-120709819D01*
X155434524Y-120709819D02*
X155339286Y-120662200D01*
X155339286Y-120662200D02*
X155291667Y-120614580D01*
X164666666Y-133454819D02*
X164666666Y-134169104D01*
X164666666Y-134169104D02*
X164619047Y-134311961D01*
X164619047Y-134311961D02*
X164523809Y-134407200D01*
X164523809Y-134407200D02*
X164380952Y-134454819D01*
X164380952Y-134454819D02*
X164285714Y-134454819D01*
X165095238Y-133550057D02*
X165142857Y-133502438D01*
X165142857Y-133502438D02*
X165238095Y-133454819D01*
X165238095Y-133454819D02*
X165476190Y-133454819D01*
X165476190Y-133454819D02*
X165571428Y-133502438D01*
X165571428Y-133502438D02*
X165619047Y-133550057D01*
X165619047Y-133550057D02*
X165666666Y-133645295D01*
X165666666Y-133645295D02*
X165666666Y-133740533D01*
X165666666Y-133740533D02*
X165619047Y-133883390D01*
X165619047Y-133883390D02*
X165047619Y-134454819D01*
X165047619Y-134454819D02*
X165666666Y-134454819D01*
X134666666Y-133454819D02*
X134666666Y-134169104D01*
X134666666Y-134169104D02*
X134619047Y-134311961D01*
X134619047Y-134311961D02*
X134523809Y-134407200D01*
X134523809Y-134407200D02*
X134380952Y-134454819D01*
X134380952Y-134454819D02*
X134285714Y-134454819D01*
X135666666Y-134454819D02*
X135095238Y-134454819D01*
X135380952Y-134454819D02*
X135380952Y-133454819D01*
X135380952Y-133454819D02*
X135285714Y-133597676D01*
X135285714Y-133597676D02*
X135190476Y-133692914D01*
X135190476Y-133692914D02*
X135095238Y-133740533D01*
X152283333Y-75909580D02*
X152235714Y-75957200D01*
X152235714Y-75957200D02*
X152092857Y-76004819D01*
X152092857Y-76004819D02*
X151997619Y-76004819D01*
X151997619Y-76004819D02*
X151854762Y-75957200D01*
X151854762Y-75957200D02*
X151759524Y-75861961D01*
X151759524Y-75861961D02*
X151711905Y-75766723D01*
X151711905Y-75766723D02*
X151664286Y-75576247D01*
X151664286Y-75576247D02*
X151664286Y-75433390D01*
X151664286Y-75433390D02*
X151711905Y-75242914D01*
X151711905Y-75242914D02*
X151759524Y-75147676D01*
X151759524Y-75147676D02*
X151854762Y-75052438D01*
X151854762Y-75052438D02*
X151997619Y-75004819D01*
X151997619Y-75004819D02*
X152092857Y-75004819D01*
X152092857Y-75004819D02*
X152235714Y-75052438D01*
X152235714Y-75052438D02*
X152283333Y-75100057D01*
X153235714Y-76004819D02*
X152664286Y-76004819D01*
X152950000Y-76004819D02*
X152950000Y-75004819D01*
X152950000Y-75004819D02*
X152854762Y-75147676D01*
X152854762Y-75147676D02*
X152759524Y-75242914D01*
X152759524Y-75242914D02*
X152664286Y-75290533D01*
X123279819Y-93386904D02*
X124089342Y-93386904D01*
X124089342Y-93386904D02*
X124184580Y-93339285D01*
X124184580Y-93339285D02*
X124232200Y-93291666D01*
X124232200Y-93291666D02*
X124279819Y-93196428D01*
X124279819Y-93196428D02*
X124279819Y-93005952D01*
X124279819Y-93005952D02*
X124232200Y-92910714D01*
X124232200Y-92910714D02*
X124184580Y-92863095D01*
X124184580Y-92863095D02*
X124089342Y-92815476D01*
X124089342Y-92815476D02*
X123279819Y-92815476D01*
X123375057Y-92386904D02*
X123327438Y-92339285D01*
X123327438Y-92339285D02*
X123279819Y-92244047D01*
X123279819Y-92244047D02*
X123279819Y-92005952D01*
X123279819Y-92005952D02*
X123327438Y-91910714D01*
X123327438Y-91910714D02*
X123375057Y-91863095D01*
X123375057Y-91863095D02*
X123470295Y-91815476D01*
X123470295Y-91815476D02*
X123565533Y-91815476D01*
X123565533Y-91815476D02*
X123708390Y-91863095D01*
X123708390Y-91863095D02*
X124279819Y-92434523D01*
X124279819Y-92434523D02*
X124279819Y-91815476D01*
X161745833Y-76017319D02*
X161412500Y-75541128D01*
X161174405Y-76017319D02*
X161174405Y-75017319D01*
X161174405Y-75017319D02*
X161555357Y-75017319D01*
X161555357Y-75017319D02*
X161650595Y-75064938D01*
X161650595Y-75064938D02*
X161698214Y-75112557D01*
X161698214Y-75112557D02*
X161745833Y-75207795D01*
X161745833Y-75207795D02*
X161745833Y-75350652D01*
X161745833Y-75350652D02*
X161698214Y-75445890D01*
X161698214Y-75445890D02*
X161650595Y-75493509D01*
X161650595Y-75493509D02*
X161555357Y-75541128D01*
X161555357Y-75541128D02*
X161174405Y-75541128D01*
X162650595Y-75017319D02*
X162174405Y-75017319D01*
X162174405Y-75017319D02*
X162126786Y-75493509D01*
X162126786Y-75493509D02*
X162174405Y-75445890D01*
X162174405Y-75445890D02*
X162269643Y-75398271D01*
X162269643Y-75398271D02*
X162507738Y-75398271D01*
X162507738Y-75398271D02*
X162602976Y-75445890D01*
X162602976Y-75445890D02*
X162650595Y-75493509D01*
X162650595Y-75493509D02*
X162698214Y-75588747D01*
X162698214Y-75588747D02*
X162698214Y-75826842D01*
X162698214Y-75826842D02*
X162650595Y-75922080D01*
X162650595Y-75922080D02*
X162602976Y-75969700D01*
X162602976Y-75969700D02*
X162507738Y-76017319D01*
X162507738Y-76017319D02*
X162269643Y-76017319D01*
X162269643Y-76017319D02*
X162174405Y-75969700D01*
X162174405Y-75969700D02*
X162126786Y-75922080D01*
X152220833Y-78042319D02*
X151887500Y-77566128D01*
X151649405Y-78042319D02*
X151649405Y-77042319D01*
X151649405Y-77042319D02*
X152030357Y-77042319D01*
X152030357Y-77042319D02*
X152125595Y-77089938D01*
X152125595Y-77089938D02*
X152173214Y-77137557D01*
X152173214Y-77137557D02*
X152220833Y-77232795D01*
X152220833Y-77232795D02*
X152220833Y-77375652D01*
X152220833Y-77375652D02*
X152173214Y-77470890D01*
X152173214Y-77470890D02*
X152125595Y-77518509D01*
X152125595Y-77518509D02*
X152030357Y-77566128D01*
X152030357Y-77566128D02*
X151649405Y-77566128D01*
X153077976Y-77042319D02*
X152887500Y-77042319D01*
X152887500Y-77042319D02*
X152792262Y-77089938D01*
X152792262Y-77089938D02*
X152744643Y-77137557D01*
X152744643Y-77137557D02*
X152649405Y-77280414D01*
X152649405Y-77280414D02*
X152601786Y-77470890D01*
X152601786Y-77470890D02*
X152601786Y-77851842D01*
X152601786Y-77851842D02*
X152649405Y-77947080D01*
X152649405Y-77947080D02*
X152697024Y-77994700D01*
X152697024Y-77994700D02*
X152792262Y-78042319D01*
X152792262Y-78042319D02*
X152982738Y-78042319D01*
X152982738Y-78042319D02*
X153077976Y-77994700D01*
X153077976Y-77994700D02*
X153125595Y-77947080D01*
X153125595Y-77947080D02*
X153173214Y-77851842D01*
X153173214Y-77851842D02*
X153173214Y-77613747D01*
X153173214Y-77613747D02*
X153125595Y-77518509D01*
X153125595Y-77518509D02*
X153077976Y-77470890D01*
X153077976Y-77470890D02*
X152982738Y-77423271D01*
X152982738Y-77423271D02*
X152792262Y-77423271D01*
X152792262Y-77423271D02*
X152697024Y-77470890D01*
X152697024Y-77470890D02*
X152649405Y-77518509D01*
X152649405Y-77518509D02*
X152601786Y-77613747D01*
X154599405Y-83379819D02*
X154599405Y-82379819D01*
X154599405Y-82379819D02*
X154837500Y-82379819D01*
X154837500Y-82379819D02*
X154980357Y-82427438D01*
X154980357Y-82427438D02*
X155075595Y-82522676D01*
X155075595Y-82522676D02*
X155123214Y-82617914D01*
X155123214Y-82617914D02*
X155170833Y-82808390D01*
X155170833Y-82808390D02*
X155170833Y-82951247D01*
X155170833Y-82951247D02*
X155123214Y-83141723D01*
X155123214Y-83141723D02*
X155075595Y-83236961D01*
X155075595Y-83236961D02*
X154980357Y-83332200D01*
X154980357Y-83332200D02*
X154837500Y-83379819D01*
X154837500Y-83379819D02*
X154599405Y-83379819D01*
X155551786Y-82475057D02*
X155599405Y-82427438D01*
X155599405Y-82427438D02*
X155694643Y-82379819D01*
X155694643Y-82379819D02*
X155932738Y-82379819D01*
X155932738Y-82379819D02*
X156027976Y-82427438D01*
X156027976Y-82427438D02*
X156075595Y-82475057D01*
X156075595Y-82475057D02*
X156123214Y-82570295D01*
X156123214Y-82570295D02*
X156123214Y-82665533D01*
X156123214Y-82665533D02*
X156075595Y-82808390D01*
X156075595Y-82808390D02*
X155504167Y-83379819D01*
X155504167Y-83379819D02*
X156123214Y-83379819D01*
X163129819Y-80950594D02*
X162129819Y-80950594D01*
X162129819Y-80950594D02*
X162129819Y-80712499D01*
X162129819Y-80712499D02*
X162177438Y-80569642D01*
X162177438Y-80569642D02*
X162272676Y-80474404D01*
X162272676Y-80474404D02*
X162367914Y-80426785D01*
X162367914Y-80426785D02*
X162558390Y-80379166D01*
X162558390Y-80379166D02*
X162701247Y-80379166D01*
X162701247Y-80379166D02*
X162891723Y-80426785D01*
X162891723Y-80426785D02*
X162986961Y-80474404D01*
X162986961Y-80474404D02*
X163082200Y-80569642D01*
X163082200Y-80569642D02*
X163129819Y-80712499D01*
X163129819Y-80712499D02*
X163129819Y-80950594D01*
X163129819Y-79426785D02*
X163129819Y-79998213D01*
X163129819Y-79712499D02*
X162129819Y-79712499D01*
X162129819Y-79712499D02*
X162272676Y-79807737D01*
X162272676Y-79807737D02*
X162367914Y-79902975D01*
X162367914Y-79902975D02*
X162415533Y-79998213D01*
D11*
X160127064Y-117690000D02*
X159672936Y-117690000D01*
X160127064Y-119160000D02*
X159672936Y-119160000D01*
X142900000Y-119870000D02*
X142900000Y-119980000D01*
X142900000Y-132230000D02*
X142900000Y-132120000D01*
X140530000Y-132120000D02*
X145270000Y-132120000D01*
X145270000Y-119980000D01*
X140530000Y-119980000D01*
X140530000Y-132120000D01*
X148775000Y-119870000D02*
X148775000Y-119980000D01*
X148775000Y-132230000D02*
X148775000Y-132120000D01*
X151145000Y-119980000D02*
X146405000Y-119980000D01*
X146405000Y-132120000D01*
X151145000Y-132120000D01*
X151145000Y-119980000D01*
X155852064Y-117515000D02*
X154397936Y-117515000D01*
X155852064Y-119335000D02*
X154397936Y-119335000D01*
X155523752Y-74827500D02*
X155001248Y-74827500D01*
X155523752Y-76297500D02*
X155001248Y-76297500D01*
D12*
X124900000Y-70250000D02*
X172800000Y-70250000D01*
X124900000Y-95750000D02*
X124900000Y-70250000D01*
X172800000Y-70250000D02*
X172800000Y-75250000D01*
X172800000Y-90750000D02*
X172800000Y-95750000D01*
X172800000Y-90750000D02*
X175100000Y-88000000D01*
X172800000Y-95750000D02*
X124900000Y-95750000D01*
X175100000Y-78000000D02*
X172800000Y-75250000D01*
X175100000Y-88000000D02*
X175100000Y-78000000D01*
D13*
X127700000Y-96800000D02*
G75*
G02*
X127500000Y-96800000I-100000J0D01*
G01*
X127500000Y-96800000D02*
G75*
G02*
X127700000Y-96800000I100000J0D01*
G01*
D14*
G36*
X118043354Y-100190486D02*
G01*
X118069363Y-100198155D01*
X118093681Y-100210331D01*
X118113005Y-100224962D01*
X118124357Y-100238330D01*
X118134394Y-100255329D01*
X118141316Y-100272771D01*
X118142396Y-100277042D01*
X118146638Y-100286837D01*
X118153542Y-100290714D01*
X118159421Y-100289779D01*
X118163405Y-100285862D01*
X118168745Y-100277626D01*
X118173065Y-100269345D01*
X118181606Y-100254368D01*
X118191292Y-100244676D01*
X118203639Y-100239432D01*
X118220161Y-100237804D01*
X118229857Y-100238052D01*
X118251198Y-100240917D01*
X118271132Y-100247643D01*
X118290831Y-100258854D01*
X118311462Y-100275175D01*
X118327207Y-100290097D01*
X118346321Y-100310742D01*
X118360019Y-100329377D01*
X118368922Y-100347200D01*
X118373647Y-100365414D01*
X118374843Y-100382435D01*
X118374006Y-100399172D01*
X118371156Y-100411919D01*
X118367495Y-100420267D01*
X118359131Y-100432439D01*
X118347262Y-100445357D01*
X118334377Y-100456482D01*
X118327527Y-100461051D01*
X118322034Y-100467249D01*
X118321548Y-100474856D01*
X118326015Y-100480869D01*
X118331595Y-100482457D01*
X118340564Y-100481433D01*
X118352351Y-100478284D01*
X118376903Y-100473661D01*
X118399588Y-100475405D01*
X118420861Y-100483652D01*
X118441178Y-100498535D01*
X118449774Y-100507053D01*
X118467420Y-100530458D01*
X118481656Y-100558777D01*
X118492063Y-100590774D01*
X118498220Y-100625215D01*
X118499801Y-100653827D01*
X118498050Y-100687860D01*
X118492605Y-100716518D01*
X118483177Y-100740354D01*
X118469476Y-100759921D01*
X118451215Y-100775770D01*
X118429825Y-100787686D01*
X118412671Y-100796696D01*
X118402290Y-100805093D01*
X118398695Y-100812866D01*
X118399250Y-100816041D01*
X118400380Y-100818789D01*
X118402095Y-100820598D01*
X118405671Y-100821692D01*
X118412384Y-100822294D01*
X118423512Y-100822628D01*
X118438275Y-100822883D01*
X118453551Y-100823426D01*
X118464669Y-100824872D01*
X118474302Y-100827863D01*
X118485122Y-100833043D01*
X118488906Y-100835070D01*
X118514361Y-100852619D01*
X118535094Y-100875007D01*
X118551007Y-100902036D01*
X118562002Y-100933510D01*
X118567981Y-100969233D01*
X118569131Y-100995986D01*
X118566472Y-101036231D01*
X118558714Y-101072230D01*
X118545937Y-101103845D01*
X118528219Y-101130938D01*
X118505640Y-101153373D01*
X118478279Y-101171011D01*
X118464662Y-101177251D01*
X118452183Y-101183179D01*
X118445226Y-101188773D01*
X118442865Y-101193450D01*
X118442064Y-101199435D01*
X118444025Y-101203547D01*
X118449893Y-101206548D01*
X118460814Y-101209196D01*
X118468810Y-101210675D01*
X118488262Y-101216109D01*
X118504070Y-101225443D01*
X118517741Y-101239774D01*
X118526399Y-101252625D01*
X118539253Y-101279782D01*
X118547997Y-101311204D01*
X118552661Y-101345717D01*
X118553274Y-101382146D01*
X118549867Y-101419315D01*
X118542468Y-101456050D01*
X118531108Y-101491177D01*
X118519724Y-101516304D01*
X118499773Y-101547998D01*
X118475660Y-101574601D01*
X118447794Y-101595791D01*
X118416586Y-101611245D01*
X118388465Y-101619479D01*
X118371130Y-101624363D01*
X118360494Y-101630435D01*
X118356497Y-101637840D01*
X118359081Y-101646724D01*
X118368189Y-101657234D01*
X118372054Y-101660617D01*
X118388109Y-101678353D01*
X118399448Y-101700226D01*
X118405794Y-101725174D01*
X118406872Y-101752135D01*
X118402731Y-101778790D01*
X118394756Y-101803540D01*
X118383238Y-101829843D01*
X118368960Y-101856544D01*
X118352700Y-101882487D01*
X118335240Y-101906519D01*
X118317360Y-101927484D01*
X118299840Y-101944228D01*
X118283460Y-101955596D01*
X118283119Y-101955777D01*
X118272900Y-101960603D01*
X118263496Y-101963334D01*
X118252298Y-101964479D01*
X118238108Y-101964570D01*
X118210556Y-101964184D01*
X118204766Y-101980486D01*
X118195432Y-101998624D01*
X118181420Y-102015959D01*
X118164718Y-102030366D01*
X118150579Y-102038432D01*
X118127054Y-102045323D01*
X118101093Y-102047406D01*
X118077709Y-102044948D01*
X118052045Y-102037211D01*
X118024745Y-102024520D01*
X117997472Y-102007907D01*
X117971890Y-101988406D01*
X117949665Y-101967048D01*
X117946596Y-101963601D01*
X117923872Y-101934648D01*
X117904959Y-101904751D01*
X117890107Y-101874689D01*
X117879566Y-101845238D01*
X117873585Y-101817178D01*
X117872414Y-101791287D01*
X117876303Y-101768343D01*
X117880499Y-101757649D01*
X117892270Y-101739263D01*
X117908958Y-101722669D01*
X117931090Y-101707482D01*
X117959196Y-101693312D01*
X117979644Y-101684948D01*
X118001276Y-101676001D01*
X118020089Y-101666402D01*
X118036736Y-101655428D01*
X118051864Y-101642359D01*
X118066124Y-101626471D01*
X118080166Y-101607044D01*
X118094639Y-101583353D01*
X118110194Y-101554679D01*
X118127090Y-101521092D01*
X118150986Y-101470949D01*
X118171380Y-101424842D01*
X118188822Y-101381297D01*
X118203858Y-101338843D01*
X118217037Y-101296008D01*
X118228907Y-101251318D01*
X118231567Y-101240381D01*
X118247367Y-101167512D01*
X118258961Y-101098598D01*
X118266315Y-101033956D01*
X118269393Y-100973903D01*
X118268162Y-100918756D01*
X118267573Y-100910533D01*
X118259908Y-100839330D01*
X118248567Y-100773090D01*
X118233607Y-100711950D01*
X118215088Y-100656046D01*
X118193066Y-100605515D01*
X118167600Y-100560494D01*
X118138747Y-100521120D01*
X118106566Y-100487530D01*
X118078981Y-100465281D01*
X118045731Y-100444451D01*
X118012608Y-100429852D01*
X117978256Y-100421043D01*
X117941320Y-100417583D01*
X117932394Y-100417497D01*
X117897896Y-100419718D01*
X117864574Y-100426327D01*
X117831315Y-100437709D01*
X117797006Y-100454252D01*
X117760536Y-100476342D01*
X117757948Y-100478056D01*
X117724981Y-100502563D01*
X117691512Y-100532192D01*
X117658955Y-100565501D01*
X117628724Y-100601050D01*
X117603587Y-100635375D01*
X117589782Y-100655884D01*
X117592155Y-100614866D01*
X117596307Y-100562059D01*
X117602287Y-100515771D01*
X117610123Y-100475926D01*
X117619838Y-100442449D01*
X117631459Y-100415265D01*
X117645011Y-100394299D01*
X117660520Y-100379475D01*
X117674458Y-100371948D01*
X117693110Y-100367988D01*
X117712213Y-100369371D01*
X117720870Y-100372034D01*
X117724622Y-100371928D01*
X117728019Y-100367461D01*
X117731873Y-100357515D01*
X117732279Y-100356283D01*
X117744148Y-100326651D01*
X117758458Y-100302569D01*
X117774942Y-100284417D01*
X117790118Y-100274109D01*
X117807923Y-100267810D01*
X117827860Y-100265254D01*
X117848092Y-100266264D01*
X117866780Y-100270667D01*
X117882089Y-100278287D01*
X117888064Y-100283421D01*
X117895134Y-100290035D01*
X117899452Y-100290880D01*
X117902250Y-100285742D01*
X117903490Y-100280746D01*
X117911438Y-100258182D01*
X117924702Y-100236252D01*
X117941862Y-100216761D01*
X117961499Y-100201511D01*
X117969237Y-100197241D01*
X117991885Y-100189758D01*
X118017059Y-100187597D01*
X118043354Y-100190486D01*
G37*
G36*
X119131746Y-100162245D02*
G01*
X119153096Y-100170754D01*
X119173183Y-100184889D01*
X119191403Y-100204257D01*
X119207156Y-100228460D01*
X119216585Y-100248541D01*
X119221062Y-100259393D01*
X119224518Y-100267388D01*
X119226178Y-100270747D01*
X119229362Y-100269702D01*
X119236255Y-100265791D01*
X119240588Y-100263019D01*
X119263015Y-100251167D01*
X119287107Y-100243634D01*
X119311305Y-100240616D01*
X119334051Y-100242310D01*
X119353588Y-100248809D01*
X119365049Y-100255662D01*
X119375437Y-100263504D01*
X119378881Y-100266755D01*
X119391218Y-100282500D01*
X119403059Y-100302309D01*
X119412922Y-100323479D01*
X119417939Y-100337952D01*
X119421794Y-100350095D01*
X119424977Y-100356552D01*
X119428083Y-100358354D01*
X119429499Y-100357975D01*
X119436043Y-100356164D01*
X119446010Y-100354525D01*
X119449153Y-100354166D01*
X119466517Y-100355637D01*
X119482312Y-100363564D01*
X119496397Y-100377719D01*
X119508626Y-100397874D01*
X119518858Y-100423798D01*
X119526948Y-100455264D01*
X119532097Y-100486687D01*
X119533336Y-100498934D01*
X119534431Y-100514541D01*
X119535353Y-100532262D01*
X119536068Y-100550847D01*
X119536547Y-100569049D01*
X119536757Y-100585620D01*
X119536666Y-100599313D01*
X119536244Y-100608879D01*
X119535458Y-100613070D01*
X119535294Y-100613159D01*
X119532559Y-100610581D01*
X119526935Y-100603716D01*
X119519471Y-100593867D01*
X119516711Y-100590085D01*
X119505098Y-100575487D01*
X119489326Y-100557751D01*
X119470566Y-100538020D01*
X119449989Y-100517435D01*
X119428766Y-100497139D01*
X119408067Y-100478275D01*
X119389065Y-100461985D01*
X119372929Y-100449411D01*
X119371420Y-100448333D01*
X119331069Y-100422499D01*
X119290468Y-100401697D01*
X119250244Y-100386113D01*
X119211028Y-100375932D01*
X119173450Y-100371340D01*
X119138139Y-100372520D01*
X119122552Y-100375112D01*
X119086165Y-100386311D01*
X119052275Y-100403696D01*
X119021263Y-100426954D01*
X118993507Y-100455771D01*
X118969388Y-100489832D01*
X118957362Y-100511576D01*
X118947859Y-100531047D01*
X118940270Y-100548285D01*
X118933881Y-100565278D01*
X118927976Y-100584012D01*
X118921842Y-100606473D01*
X118918454Y-100619769D01*
X118912152Y-100645630D01*
X118907048Y-100668666D01*
X118903023Y-100690072D01*
X118899954Y-100711046D01*
X118897721Y-100732784D01*
X118896202Y-100756484D01*
X118895276Y-100783342D01*
X118894821Y-100814555D01*
X118894718Y-100851320D01*
X118894721Y-100854134D01*
X118894772Y-100884497D01*
X118894895Y-100909124D01*
X118895162Y-100929115D01*
X118895646Y-100945571D01*
X118896418Y-100959592D01*
X118897552Y-100972277D01*
X118899118Y-100984729D01*
X118901191Y-100998045D01*
X118903841Y-101013328D01*
X118905944Y-101025040D01*
X118922814Y-101108513D01*
X118942323Y-101186170D01*
X118964650Y-101258574D01*
X118989975Y-101326289D01*
X119018480Y-101389877D01*
X119030141Y-101412996D01*
X119055067Y-101459195D01*
X119078570Y-101499151D01*
X119100944Y-101533241D01*
X119122478Y-101561838D01*
X119143467Y-101585320D01*
X119164202Y-101604061D01*
X119184975Y-101618436D01*
X119193812Y-101623277D01*
X119204951Y-101628042D01*
X119219846Y-101633262D01*
X119235574Y-101637928D01*
X119238113Y-101638591D01*
X119268235Y-101647975D01*
X119292409Y-101659422D01*
X119311337Y-101673405D01*
X119325720Y-101690396D01*
X119332411Y-101702132D01*
X119336476Y-101710928D01*
X119339021Y-101718505D01*
X119340303Y-101726760D01*
X119340579Y-101737589D01*
X119340106Y-101752889D01*
X119339909Y-101757442D01*
X119334691Y-101798987D01*
X119322826Y-101840386D01*
X119304499Y-101881237D01*
X119279892Y-101921137D01*
X119249191Y-101959683D01*
X119245574Y-101963687D01*
X119223258Y-101985518D01*
X119198721Y-102005005D01*
X119172952Y-102021670D01*
X119146937Y-102035038D01*
X119121662Y-102044631D01*
X119098115Y-102049971D01*
X119077282Y-102050582D01*
X119068845Y-102049134D01*
X119052472Y-102042603D01*
X119039632Y-102031778D01*
X119029770Y-102015947D01*
X119022326Y-101994397D01*
X119020704Y-101987708D01*
X119017063Y-101973756D01*
X119013278Y-101965955D01*
X119008378Y-101963669D01*
X119001389Y-101966262D01*
X118994664Y-101970692D01*
X118978627Y-101978064D01*
X118960074Y-101979723D01*
X118940308Y-101975626D01*
X118933166Y-101972743D01*
X118912902Y-101960549D01*
X118891937Y-101942642D01*
X118870961Y-101920004D01*
X118850665Y-101893615D01*
X118831738Y-101864456D01*
X118814872Y-101833508D01*
X118800757Y-101801750D01*
X118790084Y-101770165D01*
X118789795Y-101769126D01*
X118785291Y-101747362D01*
X118782904Y-101723814D01*
X118782720Y-101700877D01*
X118784825Y-101680948D01*
X118786387Y-101674143D01*
X118796015Y-101652218D01*
X118811559Y-101633647D01*
X118820069Y-101626715D01*
X118830624Y-101618260D01*
X118835860Y-101611632D01*
X118836526Y-101605502D01*
X118834665Y-101600785D01*
X118832795Y-101597740D01*
X118830175Y-101595499D01*
X118825560Y-101593687D01*
X118817704Y-101591930D01*
X118805361Y-101589853D01*
X118790898Y-101587631D01*
X118760434Y-101579709D01*
X118732768Y-101565935D01*
X118708201Y-101546816D01*
X118687031Y-101522864D01*
X118669558Y-101494586D01*
X118656081Y-101462494D01*
X118646899Y-101427096D01*
X118642312Y-101388902D01*
X118642620Y-101348422D01*
X118643609Y-101336886D01*
X118648245Y-101304576D01*
X118655130Y-101277860D01*
X118664639Y-101255758D01*
X118677148Y-101237289D01*
X118685014Y-101228744D01*
X118698774Y-101217123D01*
X118712976Y-101209921D01*
X118730437Y-101205806D01*
X118734841Y-101205202D01*
X118746692Y-101203183D01*
X118753127Y-101200484D01*
X118755559Y-101196537D01*
X118753956Y-101188084D01*
X118746294Y-101180644D01*
X118733342Y-101174890D01*
X118729663Y-101173868D01*
X118700312Y-101163095D01*
X118673908Y-101146234D01*
X118657491Y-101131209D01*
X118638807Y-101108873D01*
X118624871Y-101085208D01*
X118615166Y-101058907D01*
X118609176Y-101028662D01*
X118606817Y-101002678D01*
X118606901Y-100963623D01*
X118611741Y-100929351D01*
X118621308Y-100899909D01*
X118635574Y-100875346D01*
X118654511Y-100855708D01*
X118678089Y-100841043D01*
X118706280Y-100831399D01*
X118709988Y-100830578D01*
X118722039Y-100827507D01*
X118731399Y-100824115D01*
X118736048Y-100821137D01*
X118736052Y-100821130D01*
X118738938Y-100812266D01*
X118735487Y-100804564D01*
X118725567Y-100797911D01*
X118709047Y-100792196D01*
X118699407Y-100789897D01*
X118673445Y-100782212D01*
X118653157Y-100771202D01*
X118637938Y-100756242D01*
X118627179Y-100736704D01*
X118620275Y-100711959D01*
X118619453Y-100707267D01*
X118617427Y-100678261D01*
X118619875Y-100646680D01*
X118626324Y-100614177D01*
X118636299Y-100582405D01*
X118649326Y-100553018D01*
X118664931Y-100527669D01*
X118674233Y-100516273D01*
X118693697Y-100498367D01*
X118713572Y-100486532D01*
X118733357Y-100480931D01*
X118752552Y-100481722D01*
X118766414Y-100486687D01*
X118781076Y-100492315D01*
X118792776Y-100492973D01*
X118799911Y-100489422D01*
X118803500Y-100483538D01*
X118802423Y-100476857D01*
X118796261Y-100468492D01*
X118785023Y-100457923D01*
X118773982Y-100447572D01*
X118763822Y-100436659D01*
X118757219Y-100428210D01*
X118752468Y-100420196D01*
X118750048Y-100412825D01*
X118749461Y-100403535D01*
X118750079Y-100391505D01*
X118754624Y-100365518D01*
X118764701Y-100340244D01*
X118780674Y-100315002D01*
X118802907Y-100289108D01*
X118806996Y-100284933D01*
X118837615Y-100257752D01*
X118868989Y-100236903D01*
X118900822Y-100222551D01*
X118932818Y-100214857D01*
X118935410Y-100214530D01*
X118951813Y-100213484D01*
X118963542Y-100215331D01*
X118972381Y-100220731D01*
X118980115Y-100230342D01*
X118980698Y-100231247D01*
X118989783Y-100244109D01*
X118997361Y-100250875D01*
X119004257Y-100251454D01*
X119011296Y-100245757D01*
X119019304Y-100233695D01*
X119023183Y-100226657D01*
X119036270Y-100206119D01*
X119051896Y-100188036D01*
X119068706Y-100173730D01*
X119085346Y-100164525D01*
X119087657Y-100163695D01*
X119109732Y-100159761D01*
X119131746Y-100162245D01*
G37*
G36*
X119509256Y-99791292D02*
G01*
X119514638Y-99792352D01*
X119514776Y-99792383D01*
X119519326Y-99793427D01*
X119523475Y-99794631D01*
X119527593Y-99796388D01*
X119532049Y-99799092D01*
X119537215Y-99803135D01*
X119543461Y-99808912D01*
X119551157Y-99816816D01*
X119560673Y-99827241D01*
X119572380Y-99840579D01*
X119586649Y-99857224D01*
X119603849Y-99877570D01*
X119624351Y-99902010D01*
X119648525Y-99930937D01*
X119674456Y-99962007D01*
X119696516Y-99988425D01*
X119719891Y-100016391D01*
X119743581Y-100044711D01*
X119766589Y-100072194D01*
X119787917Y-100097648D01*
X119806566Y-100119879D01*
X119817516Y-100132912D01*
X119837831Y-100157301D01*
X119853976Y-100177309D01*
X119866374Y-100193624D01*
X119875445Y-100206931D01*
X119881613Y-100217916D01*
X119885297Y-100227264D01*
X119886920Y-100235662D01*
X119886903Y-100243795D01*
X119886733Y-100245506D01*
X119884855Y-100256237D01*
X119881329Y-100266608D01*
X119875503Y-100277733D01*
X119866725Y-100290725D01*
X119854342Y-100306696D01*
X119842379Y-100321203D01*
X119811612Y-100359843D01*
X119786078Y-100396448D01*
X119765083Y-100432399D01*
X119747937Y-100469074D01*
X119733948Y-100507853D01*
X119722425Y-100550115D01*
X119718257Y-100568747D01*
X119713507Y-100596983D01*
X119709937Y-100630225D01*
X119707596Y-100666737D01*
X119706537Y-100704781D01*
X119706810Y-100742621D01*
X119708467Y-100778521D01*
X119711213Y-100807990D01*
X119717324Y-100850436D01*
X119725738Y-100897233D01*
X119736057Y-100946455D01*
X119747885Y-100996174D01*
X119757770Y-101033585D01*
X119770927Y-101081592D01*
X119782222Y-101123876D01*
X119791835Y-101161234D01*
X119799950Y-101194465D01*
X119806748Y-101224369D01*
X119812413Y-101251745D01*
X119817126Y-101277390D01*
X119821071Y-101302105D01*
X119824103Y-101324125D01*
X119830354Y-101389992D01*
X119831675Y-101453347D01*
X119828023Y-101516461D01*
X119819353Y-101581606D01*
X119819004Y-101583684D01*
X119804505Y-101650161D01*
X119783710Y-101715212D01*
X119756506Y-101779081D01*
X119722779Y-101842009D01*
X119682418Y-101904239D01*
X119648482Y-101949640D01*
X119633517Y-101967535D01*
X119614420Y-101988740D01*
X119592291Y-102012164D01*
X119568229Y-102036716D01*
X119543334Y-102061304D01*
X119518704Y-102084837D01*
X119495439Y-102106223D01*
X119474638Y-102124372D01*
X119462575Y-102134218D01*
X119417729Y-102168299D01*
X119371291Y-102201254D01*
X119322617Y-102233455D01*
X119271068Y-102265275D01*
X119216001Y-102297086D01*
X119156775Y-102329263D01*
X119092749Y-102362176D01*
X119023282Y-102396200D01*
X118962955Y-102424656D01*
X118925012Y-102442511D01*
X118888130Y-102460295D01*
X118853094Y-102477605D01*
X118820690Y-102494039D01*
X118791705Y-102509195D01*
X118766923Y-102522671D01*
X118747132Y-102534065D01*
X118737671Y-102539933D01*
X118716642Y-102554477D01*
X118697962Y-102569694D01*
X118679720Y-102587292D01*
X118660006Y-102608975D01*
X118658900Y-102610252D01*
X118648140Y-102622094D01*
X118637875Y-102632340D01*
X118629578Y-102639569D01*
X118626151Y-102641870D01*
X118613343Y-102645723D01*
X118597642Y-102646682D01*
X118582337Y-102644766D01*
X118573290Y-102641555D01*
X118566769Y-102637053D01*
X118556861Y-102628890D01*
X118544978Y-102618276D01*
X118533982Y-102607846D01*
X118516743Y-102591994D01*
X118498257Y-102577076D01*
X118477952Y-102562804D01*
X118455254Y-102548894D01*
X118429589Y-102535059D01*
X118400383Y-102521015D01*
X118367064Y-102506475D01*
X118329057Y-102491153D01*
X118285789Y-102474765D01*
X118236687Y-102457023D01*
X118217807Y-102450368D01*
X118155985Y-102428253D01*
X118099825Y-102407170D01*
X118048316Y-102386661D01*
X118000448Y-102366269D01*
X117955210Y-102345538D01*
X117911592Y-102324009D01*
X117868584Y-102301225D01*
X117825174Y-102276731D01*
X117796205Y-102259640D01*
X117730895Y-102217399D01*
X117669528Y-102171427D01*
X117612684Y-102122255D01*
X117560941Y-102070417D01*
X117514878Y-102016442D01*
X117481509Y-101970604D01*
X117443140Y-101907598D01*
X117410489Y-101841417D01*
X117383813Y-101772754D01*
X117363372Y-101702303D01*
X117349422Y-101630756D01*
X117346301Y-101607144D01*
X117343734Y-101579251D01*
X117341851Y-101546459D01*
X117340698Y-101510676D01*
X117340324Y-101473809D01*
X117340777Y-101437768D01*
X117341506Y-101416414D01*
X117343308Y-101382324D01*
X117345740Y-101349506D01*
X117348951Y-101316946D01*
X117353088Y-101283635D01*
X117358299Y-101248560D01*
X117364731Y-101210712D01*
X117372532Y-101169078D01*
X117381850Y-101122647D01*
X117390310Y-101082244D01*
X117401038Y-101030462D01*
X117409983Y-100984291D01*
X117417271Y-100942777D01*
X117423027Y-100904964D01*
X117427377Y-100869899D01*
X117430448Y-100836629D01*
X117432364Y-100804198D01*
X117433252Y-100771653D01*
X117433350Y-100755831D01*
X117430267Y-100683767D01*
X117421044Y-100614462D01*
X117405719Y-100548028D01*
X117384328Y-100484575D01*
X117356909Y-100424215D01*
X117323500Y-100367059D01*
X117284828Y-100314072D01*
X117274259Y-100300659D01*
X117264829Y-100288059D01*
X117257690Y-100277848D01*
X117254356Y-100272370D01*
X117250455Y-100259699D01*
X117249278Y-100247180D01*
X117398527Y-100247180D01*
X117413988Y-100266954D01*
X117443708Y-100309184D01*
X117471267Y-100356745D01*
X117496031Y-100408302D01*
X117517363Y-100462521D01*
X117534629Y-100518068D01*
X117535984Y-100523170D01*
X117545260Y-100562551D01*
X117552318Y-100601905D01*
X117557388Y-100643013D01*
X117560701Y-100687656D01*
X117562209Y-100725955D01*
X117562791Y-100769133D01*
X117562046Y-100810421D01*
X117559841Y-100850991D01*
X117556045Y-100892016D01*
X117550523Y-100934669D01*
X117543143Y-100980121D01*
X117533772Y-101029546D01*
X117522277Y-101084116D01*
X117520868Y-101090525D01*
X117510482Y-101138207D01*
X117501673Y-101180248D01*
X117494318Y-101217629D01*
X117488291Y-101251328D01*
X117483467Y-101282326D01*
X117479721Y-101311602D01*
X117476929Y-101340138D01*
X117474965Y-101368912D01*
X117473705Y-101398904D01*
X117473024Y-101431094D01*
X117472797Y-101466462D01*
X117472796Y-101467686D01*
X117473098Y-101511748D01*
X117474186Y-101550144D01*
X117476207Y-101584015D01*
X117479311Y-101614500D01*
X117483648Y-101642740D01*
X117489365Y-101669876D01*
X117496612Y-101697048D01*
X117505539Y-101725397D01*
X117507097Y-101730013D01*
X117531104Y-101791241D01*
X117560489Y-101849445D01*
X117595394Y-101904770D01*
X117635962Y-101957363D01*
X117682336Y-102007370D01*
X117734659Y-102054938D01*
X117793073Y-102100212D01*
X117857722Y-102143340D01*
X117928748Y-102184467D01*
X117973313Y-102207658D01*
X118011749Y-102226521D01*
X118049221Y-102244058D01*
X118086960Y-102260782D01*
X118126197Y-102277208D01*
X118168165Y-102293849D01*
X118214093Y-102311218D01*
X118265215Y-102329829D01*
X118272496Y-102332434D01*
X118322155Y-102350435D01*
X118365904Y-102366898D01*
X118404418Y-102382128D01*
X118438371Y-102396429D01*
X118468436Y-102410106D01*
X118495288Y-102423463D01*
X118519600Y-102436805D01*
X118542047Y-102450435D01*
X118559618Y-102462098D01*
X118572944Y-102471207D01*
X118584166Y-102478733D01*
X118592125Y-102483908D01*
X118595666Y-102485967D01*
X118595692Y-102485973D01*
X118598944Y-102483905D01*
X118605144Y-102478287D01*
X118609365Y-102474044D01*
X118621180Y-102462542D01*
X118634512Y-102451166D01*
X118649875Y-102439622D01*
X118667779Y-102427614D01*
X118688737Y-102414848D01*
X118713263Y-102401026D01*
X118741867Y-102385854D01*
X118775062Y-102369036D01*
X118813362Y-102350277D01*
X118857276Y-102329281D01*
X118874081Y-102321344D01*
X118944611Y-102287778D01*
X119009182Y-102256297D01*
X119068249Y-102226622D01*
X119122266Y-102198471D01*
X119171688Y-102171564D01*
X119216970Y-102145620D01*
X119258566Y-102120359D01*
X119296932Y-102095500D01*
X119332522Y-102070763D01*
X119365791Y-102045866D01*
X119397192Y-102020530D01*
X119427182Y-101994473D01*
X119456215Y-101967416D01*
X119470848Y-101953093D01*
X119506049Y-101916692D01*
X119536585Y-101881932D01*
X119563797Y-101847186D01*
X119589027Y-101810830D01*
X119591655Y-101806793D01*
X119624235Y-101751885D01*
X119650603Y-101697120D01*
X119670999Y-101641627D01*
X119685659Y-101584535D01*
X119694823Y-101524973D01*
X119698729Y-101462069D01*
X119698488Y-101416414D01*
X119697399Y-101388823D01*
X119695746Y-101362930D01*
X119693362Y-101337839D01*
X119690081Y-101312653D01*
X119685737Y-101286474D01*
X119680164Y-101258408D01*
X119673195Y-101227557D01*
X119664665Y-101193024D01*
X119654407Y-101153913D01*
X119642255Y-101109327D01*
X119640190Y-101101862D01*
X119620720Y-101028247D01*
X119604654Y-100959898D01*
X119591935Y-100896188D01*
X119582505Y-100836488D01*
X119576306Y-100780170D01*
X119573281Y-100726605D01*
X119573373Y-100675166D01*
X119576523Y-100625224D01*
X119582674Y-100576150D01*
X119588855Y-100541377D01*
X119601537Y-100489628D01*
X119618698Y-100438225D01*
X119639725Y-100388505D01*
X119664010Y-100341810D01*
X119690941Y-100299477D01*
X119711127Y-100273055D01*
X119719277Y-100263170D01*
X119726184Y-100254688D01*
X119729813Y-100250136D01*
X119731307Y-100247008D01*
X119730621Y-100243070D01*
X119727128Y-100237284D01*
X119720198Y-100228611D01*
X119709204Y-100216010D01*
X119709154Y-100215954D01*
X119700015Y-100205414D01*
X119687135Y-100190202D01*
X119671053Y-100170975D01*
X119652312Y-100148389D01*
X119631450Y-100123102D01*
X119609010Y-100095771D01*
X119585531Y-100067052D01*
X119561553Y-100037603D01*
X119537618Y-100008081D01*
X119514266Y-99979141D01*
X119512168Y-99976534D01*
X119500377Y-99961955D01*
X119490143Y-99949447D01*
X119482200Y-99939897D01*
X119477281Y-99934189D01*
X119476032Y-99932953D01*
X119472557Y-99933811D01*
X119463524Y-99936200D01*
X119449968Y-99939842D01*
X119432923Y-99944459D01*
X119413425Y-99949773D01*
X119412203Y-99950107D01*
X119345168Y-99967649D01*
X119279280Y-99983230D01*
X119213514Y-99997014D01*
X119146846Y-100009164D01*
X119078254Y-100019841D01*
X119006713Y-100029207D01*
X118931201Y-100037427D01*
X118850693Y-100044661D01*
X118785213Y-100049623D01*
X118762568Y-100050878D01*
X118734198Y-100051906D01*
X118701210Y-100052707D01*
X118664710Y-100053282D01*
X118625807Y-100053629D01*
X118585607Y-100053750D01*
X118545218Y-100053642D01*
X118505746Y-100053306D01*
X118468300Y-100052742D01*
X118433986Y-100051949D01*
X118403910Y-100050927D01*
X118380167Y-100049737D01*
X118301421Y-100043970D01*
X118221793Y-100036395D01*
X118142214Y-100027160D01*
X118063617Y-100016415D01*
X117986934Y-100004310D01*
X117913097Y-99990994D01*
X117843038Y-99976618D01*
X117777690Y-99961331D01*
X117717985Y-99945282D01*
X117703796Y-99941093D01*
X117690689Y-99937524D01*
X117680115Y-99935354D01*
X117673713Y-99934889D01*
X117672665Y-99935272D01*
X117669827Y-99938555D01*
X117663181Y-99946282D01*
X117653367Y-99957707D01*
X117641027Y-99972084D01*
X117626800Y-99988667D01*
X117615954Y-100001315D01*
X117587318Y-100034630D01*
X117559286Y-100067088D01*
X117532342Y-100098136D01*
X117506972Y-100127218D01*
X117483664Y-100153781D01*
X117462902Y-100177270D01*
X117445174Y-100197132D01*
X117430965Y-100212811D01*
X117421939Y-100222518D01*
X117398527Y-100247180D01*
X117249278Y-100247180D01*
X117248948Y-100243664D01*
X117249857Y-100227310D01*
X117253204Y-100213683D01*
X117253927Y-100212045D01*
X117257427Y-100206949D01*
X117264957Y-100197505D01*
X117275927Y-100184400D01*
X117289746Y-100168326D01*
X117305825Y-100149972D01*
X117323573Y-100130027D01*
X117334826Y-100117531D01*
X117355313Y-100094833D01*
X117379195Y-100068294D01*
X117405332Y-100039187D01*
X117432583Y-100008784D01*
X117459807Y-99978358D01*
X117485862Y-99949182D01*
X117504849Y-99927876D01*
X117525635Y-99904562D01*
X117545448Y-99882407D01*
X117563732Y-99862030D01*
X117579926Y-99844051D01*
X117593471Y-99829092D01*
X117603808Y-99817771D01*
X117610379Y-99810709D01*
X117611766Y-99809277D01*
X117624724Y-99798549D01*
X117638173Y-99792735D01*
X117653676Y-99791531D01*
X117672797Y-99794630D01*
X117678787Y-99796166D01*
X117764543Y-99818698D01*
X117845614Y-99838374D01*
X117923414Y-99855429D01*
X117999359Y-99870096D01*
X118074861Y-99882607D01*
X118151337Y-99893196D01*
X118230199Y-99902096D01*
X118312862Y-99909540D01*
X118400740Y-99915761D01*
X118406370Y-99916110D01*
X118430360Y-99917228D01*
X118460085Y-99918034D01*
X118494452Y-99918539D01*
X118532367Y-99918758D01*
X118572736Y-99918703D01*
X118614466Y-99918386D01*
X118656463Y-99917820D01*
X118697635Y-99917017D01*
X118736887Y-99915991D01*
X118773126Y-99914754D01*
X118805259Y-99913319D01*
X118832191Y-99911698D01*
X118840300Y-99911080D01*
X118958763Y-99899668D01*
X119071404Y-99885244D01*
X119178565Y-99867750D01*
X119280589Y-99847127D01*
X119377821Y-99823315D01*
X119421579Y-99811117D01*
X119446143Y-99804023D01*
X119465103Y-99798669D01*
X119479414Y-99794864D01*
X119490030Y-99792416D01*
X119497907Y-99791132D01*
X119503997Y-99790822D01*
X119509256Y-99791292D01*
G37*
D11*
X158860436Y-74827500D02*
X159314564Y-74827500D01*
X158860436Y-76297500D02*
X159314564Y-76297500D01*
X155060436Y-76852500D02*
X155514564Y-76852500D01*
X155060436Y-78322500D02*
X155514564Y-78322500D01*
X154577500Y-78877500D02*
X156097500Y-78877500D01*
X154577500Y-78927500D02*
X154577500Y-78877500D01*
X154577500Y-80827500D02*
X154577500Y-80047500D01*
X154577500Y-81997500D02*
X154577500Y-81947500D01*
X156097500Y-78877500D02*
X156097500Y-79877500D01*
X156097500Y-80997500D02*
X156097500Y-81997500D01*
X156097500Y-81997500D02*
X154577500Y-81997500D01*
X154277500Y-80387500D02*
X153797500Y-80387500D01*
X154037500Y-80057500D01*
X154277500Y-80387500D01*
G36*
X154277500Y-80387500D02*
G01*
X153797500Y-80387500D01*
X154037500Y-80057500D01*
X154277500Y-80387500D01*
G37*
X158437500Y-83722500D02*
X158437500Y-78212500D01*
X158437500Y-83722500D02*
X161737500Y-83722500D01*
X161737500Y-83722500D02*
X161737500Y-78212500D01*
D14*
G36*
X145970418Y-110163223D02*
G01*
X146013472Y-110163303D01*
X146052581Y-110163441D01*
X146087193Y-110163635D01*
X146116755Y-110163881D01*
X146140715Y-110164177D01*
X146158521Y-110164518D01*
X146169620Y-110164903D01*
X146173461Y-110165328D01*
X146173461Y-110165329D01*
X146172140Y-110169926D01*
X146168537Y-110180294D01*
X146163195Y-110194920D01*
X146156657Y-110212291D01*
X146156308Y-110213205D01*
X146149733Y-110230411D01*
X146140622Y-110254241D01*
X146129233Y-110284019D01*
X146115823Y-110319074D01*
X146100650Y-110358730D01*
X146083973Y-110402315D01*
X146066048Y-110449154D01*
X146047135Y-110498575D01*
X146027489Y-110549904D01*
X146007370Y-110602467D01*
X145987036Y-110655590D01*
X145966743Y-110708601D01*
X145946750Y-110760825D01*
X145927315Y-110811589D01*
X145908695Y-110860219D01*
X145891148Y-110906042D01*
X145874932Y-110948384D01*
X145860305Y-110986572D01*
X145855026Y-111000353D01*
X145837994Y-111044823D01*
X145819878Y-111092143D01*
X145801230Y-111140868D01*
X145782602Y-111189555D01*
X145764548Y-111236760D01*
X145747618Y-111281040D01*
X145732367Y-111320949D01*
X145719345Y-111355045D01*
X145719040Y-111355843D01*
X145705596Y-111391046D01*
X145692048Y-111426494D01*
X145678873Y-111460945D01*
X145666545Y-111493155D01*
X145655542Y-111521878D01*
X145646340Y-111545872D01*
X145639415Y-111563892D01*
X145639049Y-111564841D01*
X145628778Y-111591547D01*
X145617172Y-111621790D01*
X145605529Y-111652181D01*
X145595147Y-111679335D01*
X145593370Y-111683989D01*
X145584384Y-111707516D01*
X145573585Y-111735750D01*
X145561964Y-111766105D01*
X145550510Y-111795995D01*
X145542525Y-111816809D01*
X145522410Y-111869241D01*
X145504944Y-111914821D01*
X145489961Y-111953989D01*
X145477297Y-111987181D01*
X145466787Y-112014837D01*
X145458267Y-112037393D01*
X145451571Y-112055289D01*
X145446535Y-112068961D01*
X145442993Y-112078849D01*
X145440782Y-112085389D01*
X145439736Y-112089020D01*
X145439651Y-112090160D01*
X145443196Y-112088530D01*
X145452731Y-112083335D01*
X145467526Y-112074996D01*
X145486849Y-112063930D01*
X145509970Y-112050558D01*
X145536158Y-112035299D01*
X145564682Y-112018570D01*
X145571862Y-112014344D01*
X145607394Y-111993418D01*
X145646432Y-111970439D01*
X145687118Y-111946500D01*
X145727595Y-111922694D01*
X145766005Y-111900111D01*
X145800493Y-111879846D01*
X145816017Y-111870729D01*
X145840128Y-111856571D01*
X145869982Y-111839040D01*
X145904588Y-111818718D01*
X145942951Y-111796188D01*
X145984080Y-111772035D01*
X146026981Y-111746840D01*
X146070661Y-111721186D01*
X146114127Y-111695658D01*
X146153929Y-111672282D01*
X146195716Y-111647740D01*
X146238205Y-111622787D01*
X146280468Y-111597968D01*
X146321575Y-111573829D01*
X146360599Y-111550915D01*
X146396610Y-111529770D01*
X146428681Y-111510940D01*
X146455883Y-111494971D01*
X146477288Y-111482407D01*
X146477502Y-111482281D01*
X146508201Y-111464323D01*
X146532764Y-111450108D01*
X146551746Y-111439343D01*
X146565700Y-111431737D01*
X146575183Y-111426998D01*
X146580747Y-111424834D01*
X146582949Y-111424954D01*
X146582342Y-111427065D01*
X146582298Y-111427137D01*
X146581032Y-111431338D01*
X146577993Y-111442457D01*
X146573351Y-111459846D01*
X146567277Y-111482857D01*
X146559940Y-111510840D01*
X146551511Y-111543146D01*
X146542160Y-111579126D01*
X146532056Y-111618133D01*
X146521370Y-111659516D01*
X146519089Y-111668363D01*
X146507588Y-111712993D01*
X146496092Y-111757597D01*
X146484847Y-111801215D01*
X146474102Y-111842891D01*
X146464103Y-111881667D01*
X146455097Y-111916584D01*
X146447331Y-111946684D01*
X146441052Y-111971011D01*
X146436989Y-111986742D01*
X146432207Y-112005262D01*
X146425725Y-112030391D01*
X146417789Y-112061170D01*
X146408648Y-112096642D01*
X146398546Y-112135849D01*
X146387732Y-112177832D01*
X146376453Y-112221634D01*
X146364954Y-112266297D01*
X146354960Y-112305121D01*
X146342826Y-112352259D01*
X146330184Y-112401348D01*
X146317358Y-112451135D01*
X146304671Y-112500367D01*
X146292446Y-112547791D01*
X146281006Y-112592154D01*
X146270674Y-112632202D01*
X146261774Y-112666682D01*
X146257287Y-112684050D01*
X146247721Y-112721086D01*
X146237627Y-112760195D01*
X146227452Y-112799641D01*
X146217644Y-112837689D01*
X146208652Y-112872601D01*
X146200921Y-112902642D01*
X146197363Y-112916486D01*
X146189484Y-112947140D01*
X146179919Y-112984322D01*
X146168936Y-113026994D01*
X146156802Y-113074121D01*
X146143784Y-113124665D01*
X146130149Y-113177589D01*
X146116165Y-113231856D01*
X146102099Y-113286429D01*
X146088217Y-113340271D01*
X146074788Y-113392346D01*
X146062079Y-113441616D01*
X146050356Y-113487044D01*
X146039888Y-113527593D01*
X146032435Y-113556447D01*
X146024832Y-113586056D01*
X146017969Y-113613148D01*
X146012065Y-113636825D01*
X146007343Y-113656185D01*
X146004021Y-113670330D01*
X146002322Y-113678359D01*
X146002174Y-113679868D01*
X146005926Y-113678595D01*
X146016128Y-113674526D01*
X146032058Y-113667963D01*
X146052994Y-113659211D01*
X146078213Y-113648571D01*
X146106995Y-113636347D01*
X146138617Y-113622843D01*
X146165648Y-113611245D01*
X146199084Y-113596916D01*
X146230308Y-113583622D01*
X146258592Y-113571667D01*
X146283205Y-113561354D01*
X146303419Y-113552989D01*
X146318504Y-113546875D01*
X146327731Y-113543317D01*
X146330404Y-113542515D01*
X146329112Y-113545860D01*
X146323965Y-113554624D01*
X146315590Y-113567825D01*
X146304612Y-113584481D01*
X146291657Y-113603611D01*
X146289386Y-113606916D01*
X146273200Y-113630463D01*
X146254153Y-113658212D01*
X146233788Y-113687913D01*
X146213648Y-113717315D01*
X146195277Y-113744168D01*
X146194301Y-113745597D01*
X146180630Y-113765585D01*
X146163347Y-113790839D01*
X146143257Y-113820181D01*
X146121167Y-113852434D01*
X146097882Y-113886421D01*
X146074210Y-113920964D01*
X146050957Y-113954886D01*
X146043763Y-113965379D01*
X146021437Y-113997945D01*
X145995608Y-114035630D01*
X145967185Y-114077106D01*
X145937080Y-114121044D01*
X145906202Y-114166117D01*
X145875461Y-114210994D01*
X145845767Y-114254350D01*
X145818031Y-114294854D01*
X145816267Y-114297431D01*
X145792874Y-114331591D01*
X145770812Y-114363796D01*
X145750474Y-114393475D01*
X145732252Y-114420055D01*
X145716539Y-114442964D01*
X145703727Y-114461630D01*
X145694207Y-114475481D01*
X145688374Y-114483945D01*
X145686606Y-114486478D01*
X145684410Y-114484944D01*
X145683312Y-114482571D01*
X145681967Y-114477372D01*
X145678965Y-114464550D01*
X145674305Y-114444103D01*
X145667987Y-114416032D01*
X145660011Y-114380334D01*
X145650376Y-114337010D01*
X145639082Y-114286057D01*
X145626129Y-114227476D01*
X145611518Y-114161265D01*
X145595246Y-114087422D01*
X145577316Y-114005948D01*
X145557725Y-113916840D01*
X145546288Y-113864787D01*
X145540919Y-113840370D01*
X145534146Y-113809614D01*
X145526254Y-113773806D01*
X145517527Y-113734236D01*
X145508249Y-113692192D01*
X145498705Y-113648963D01*
X145489179Y-113605837D01*
X145481596Y-113571529D01*
X145473265Y-113533653D01*
X145465517Y-113498054D01*
X145458507Y-113465467D01*
X145452387Y-113436627D01*
X145447313Y-113412268D01*
X145443439Y-113393123D01*
X145440918Y-113379926D01*
X145439904Y-113373413D01*
X145439912Y-113372885D01*
X145442799Y-113374801D01*
X145450601Y-113381977D01*
X145462889Y-113393971D01*
X145479234Y-113410345D01*
X145499207Y-113430656D01*
X145522382Y-113454465D01*
X145548327Y-113481331D01*
X145576616Y-113510813D01*
X145606820Y-113542470D01*
X145638510Y-113575863D01*
X145671257Y-113610550D01*
X145676058Y-113615651D01*
X145684854Y-113624491D01*
X145691381Y-113630101D01*
X145694004Y-113631277D01*
X145694778Y-113627131D01*
X145696380Y-113616028D01*
X145698709Y-113598770D01*
X145701659Y-113576157D01*
X145705129Y-113548990D01*
X145709013Y-113518069D01*
X145713208Y-113484195D01*
X145715996Y-113461442D01*
X145720757Y-113422447D01*
X145725604Y-113382803D01*
X145730374Y-113343852D01*
X145734900Y-113306941D01*
X145739018Y-113273414D01*
X145742563Y-113244615D01*
X145745370Y-113221889D01*
X145745941Y-113217286D01*
X145749427Y-113189157D01*
X145753778Y-113154012D01*
X145758900Y-113112589D01*
X145764704Y-113065626D01*
X145771098Y-113013861D01*
X145777990Y-112958033D01*
X145785291Y-112898880D01*
X145792909Y-112837139D01*
X145800753Y-112773549D01*
X145808731Y-112708848D01*
X145816753Y-112643775D01*
X145824728Y-112579067D01*
X145832564Y-112515463D01*
X145840170Y-112453701D01*
X145841581Y-112442240D01*
X145846928Y-112398648D01*
X145851949Y-112357388D01*
X145856568Y-112319108D01*
X145860710Y-112284453D01*
X145864297Y-112254070D01*
X145867255Y-112228603D01*
X145869507Y-112208699D01*
X145870977Y-112195004D01*
X145871588Y-112188164D01*
X145871578Y-112187493D01*
X145867993Y-112188973D01*
X145858858Y-112193845D01*
X145845318Y-112201469D01*
X145828515Y-112211205D01*
X145815843Y-112218685D01*
X145771094Y-112245284D01*
X145722137Y-112274376D01*
X145670392Y-112305119D01*
X145617279Y-112336669D01*
X145564218Y-112368182D01*
X145512630Y-112398815D01*
X145463936Y-112427724D01*
X145419555Y-112454066D01*
X145392163Y-112470319D01*
X145360173Y-112489304D01*
X145326101Y-112509535D01*
X145291621Y-112530018D01*
X145258408Y-112549757D01*
X145228136Y-112567757D01*
X145202480Y-112583023D01*
X145196839Y-112586383D01*
X145173775Y-112600110D01*
X145145488Y-112616932D01*
X145113475Y-112635960D01*
X145079232Y-112656304D01*
X145044256Y-112677076D01*
X145010045Y-112697384D01*
X144989795Y-112709401D01*
X144959096Y-112727620D01*
X144928689Y-112745676D01*
X144899670Y-112762917D01*
X144873132Y-112778694D01*
X144850170Y-112792355D01*
X144831879Y-112803249D01*
X144820588Y-112809989D01*
X144804480Y-112819394D01*
X144790890Y-112826901D01*
X144781146Y-112831807D01*
X144776575Y-112833409D01*
X144776439Y-112833347D01*
X144777008Y-112829296D01*
X144779393Y-112818456D01*
X144783404Y-112801587D01*
X144788853Y-112779452D01*
X144795550Y-112752811D01*
X144803305Y-112722426D01*
X144811930Y-112689059D01*
X144819498Y-112660084D01*
X144829508Y-112621922D01*
X144841093Y-112577728D01*
X144853852Y-112529034D01*
X144867386Y-112477367D01*
X144881293Y-112424257D01*
X144895173Y-112371233D01*
X144908627Y-112319822D01*
X144921252Y-112271555D01*
X144923202Y-112264102D01*
X144934518Y-112220838D01*
X144945815Y-112177671D01*
X144956835Y-112135578D01*
X144967322Y-112095540D01*
X144977019Y-112058536D01*
X144985671Y-112025544D01*
X144993019Y-111997544D01*
X144998809Y-111975516D01*
X145001511Y-111965256D01*
X145006777Y-111945245D01*
X145013688Y-111918924D01*
X145021917Y-111887544D01*
X145031136Y-111852354D01*
X145041019Y-111814604D01*
X145051236Y-111775544D01*
X145061462Y-111736426D01*
X145065976Y-111719147D01*
X145075891Y-111681199D01*
X145085768Y-111643413D01*
X145095311Y-111606921D01*
X145104225Y-111572855D01*
X145112212Y-111542349D01*
X145118976Y-111516534D01*
X145124220Y-111496544D01*
X145126292Y-111488664D01*
X145132606Y-111464666D01*
X145140190Y-111435839D01*
X145148327Y-111404910D01*
X145156298Y-111374607D01*
X145161233Y-111355843D01*
X145165625Y-111339122D01*
X145171766Y-111315701D01*
X145179431Y-111286443D01*
X145188395Y-111252207D01*
X145198433Y-111213853D01*
X145209319Y-111172244D01*
X145220829Y-111128239D01*
X145232736Y-111082698D01*
X145244817Y-111036483D01*
X145249154Y-111019885D01*
X145260765Y-110975459D01*
X145271918Y-110932788D01*
X145282436Y-110892549D01*
X145292144Y-110855419D01*
X145300863Y-110822072D01*
X145308417Y-110793187D01*
X145314629Y-110769440D01*
X145319323Y-110751506D01*
X145322321Y-110740062D01*
X145323213Y-110736665D01*
X145328271Y-110717436D01*
X145334941Y-110692028D01*
X145342968Y-110661419D01*
X145352097Y-110626582D01*
X145362072Y-110588495D01*
X145372639Y-110548133D01*
X145383542Y-110506472D01*
X145394525Y-110464487D01*
X145405334Y-110423154D01*
X145415714Y-110383450D01*
X145425408Y-110346349D01*
X145434162Y-110312827D01*
X145441720Y-110283861D01*
X145447828Y-110260426D01*
X145452229Y-110243498D01*
X145452490Y-110242494D01*
X145472750Y-110164364D01*
X145823106Y-110163366D01*
X145874682Y-110163252D01*
X145923970Y-110163205D01*
X145970418Y-110163223D01*
G37*
G36*
X145819156Y-107986596D02*
G01*
X145860398Y-107996175D01*
X145899910Y-108012068D01*
X145936803Y-108034356D01*
X145960034Y-108053290D01*
X145968916Y-108061711D01*
X145977182Y-108070330D01*
X145985337Y-108079905D01*
X145993889Y-108091194D01*
X146003342Y-108104958D01*
X146014204Y-108121954D01*
X146026981Y-108142943D01*
X146042179Y-108168682D01*
X146060303Y-108199931D01*
X146075723Y-108226745D01*
X146096134Y-108262277D01*
X146120074Y-108303874D01*
X146147143Y-108350847D01*
X146176943Y-108402506D01*
X146209076Y-108458161D01*
X146243145Y-108517123D01*
X146278750Y-108578702D01*
X146315495Y-108642209D01*
X146331658Y-108670131D01*
X146341576Y-108687270D01*
X146353122Y-108707236D01*
X146366490Y-108730366D01*
X146381876Y-108756998D01*
X146399472Y-108787467D01*
X146419473Y-108822110D01*
X146442074Y-108861263D01*
X146467468Y-108905264D01*
X146495850Y-108954448D01*
X146527415Y-109009153D01*
X146562356Y-109069714D01*
X146600868Y-109136468D01*
X146630447Y-109187741D01*
X146664845Y-109247367D01*
X146695530Y-109300556D01*
X146722695Y-109347641D01*
X146746530Y-109388952D01*
X146767227Y-109424822D01*
X146784977Y-109455582D01*
X146799972Y-109481564D01*
X146812402Y-109503099D01*
X146822460Y-109520518D01*
X146830337Y-109534155D01*
X146835583Y-109543232D01*
X146842176Y-109554638D01*
X146852191Y-109571969D01*
X146865211Y-109594502D01*
X146880816Y-109621511D01*
X146898589Y-109652273D01*
X146918111Y-109686062D01*
X146938963Y-109722156D01*
X146960727Y-109759828D01*
X146982984Y-109798356D01*
X147005316Y-109837014D01*
X147027305Y-109875078D01*
X147048532Y-109911824D01*
X147068578Y-109946527D01*
X147087026Y-109978464D01*
X147103456Y-110006909D01*
X147117450Y-110031139D01*
X147128590Y-110050428D01*
X147136458Y-110064053D01*
X147139114Y-110068655D01*
X147144984Y-110078826D01*
X147154338Y-110095034D01*
X147166753Y-110116547D01*
X147181808Y-110142634D01*
X147199082Y-110172566D01*
X147218152Y-110205611D01*
X147238597Y-110241039D01*
X147259996Y-110278118D01*
X147278889Y-110310857D01*
X147303184Y-110352950D01*
X147328809Y-110397340D01*
X147355053Y-110442794D01*
X147381203Y-110488079D01*
X147406547Y-110531960D01*
X147430372Y-110573204D01*
X147451967Y-110610578D01*
X147470618Y-110642848D01*
X147476299Y-110652675D01*
X147504077Y-110700733D01*
X147534193Y-110752857D01*
X147565972Y-110807878D01*
X147598739Y-110864627D01*
X147631818Y-110921935D01*
X147664535Y-110978630D01*
X147696215Y-111033544D01*
X147726182Y-111085507D01*
X147753762Y-111133349D01*
X147778279Y-111175900D01*
X147784044Y-111185911D01*
X147800467Y-111214420D01*
X147818120Y-111245050D01*
X147835843Y-111275787D01*
X147852475Y-111304619D01*
X147866854Y-111329530D01*
X147871899Y-111338264D01*
X147882141Y-111355994D01*
X147895632Y-111379347D01*
X147911711Y-111407183D01*
X147929718Y-111438359D01*
X147948996Y-111471734D01*
X147968883Y-111506166D01*
X147988722Y-111540513D01*
X147994876Y-111551168D01*
X148016661Y-111588883D01*
X148040499Y-111630146D01*
X148065385Y-111673217D01*
X148090312Y-111716356D01*
X148114276Y-111757822D01*
X148136270Y-111795874D01*
X148154019Y-111826576D01*
X148174380Y-111861798D01*
X148196806Y-111900601D01*
X148220186Y-111941064D01*
X148243413Y-111981268D01*
X148265376Y-112019293D01*
X148284968Y-112053220D01*
X148291694Y-112064871D01*
X148310039Y-112096648D01*
X148329677Y-112130666D01*
X148349591Y-112165161D01*
X148368764Y-112198371D01*
X148386177Y-112228533D01*
X148400814Y-112253884D01*
X148402203Y-112256289D01*
X148418713Y-112284895D01*
X148437109Y-112316780D01*
X148455959Y-112349467D01*
X148473837Y-112380478D01*
X148489314Y-112407338D01*
X148490065Y-112408643D01*
X148498376Y-112423064D01*
X148510118Y-112443425D01*
X148524919Y-112469081D01*
X148542407Y-112499391D01*
X148562213Y-112533712D01*
X148583965Y-112571402D01*
X148607292Y-112611817D01*
X148631824Y-112654315D01*
X148657188Y-112698254D01*
X148683015Y-112742991D01*
X148708933Y-112787884D01*
X148734571Y-112832289D01*
X148759558Y-112875565D01*
X148783524Y-112917068D01*
X148806096Y-112956156D01*
X148826905Y-112992187D01*
X148845580Y-113024517D01*
X148861748Y-113052505D01*
X148875040Y-113075507D01*
X148885085Y-113092882D01*
X148890386Y-113102045D01*
X148895811Y-113111425D01*
X148904804Y-113126990D01*
X148917031Y-113148157D01*
X148932154Y-113174345D01*
X148949838Y-113204970D01*
X148969745Y-113239450D01*
X148991541Y-113277203D01*
X149014888Y-113317647D01*
X149039451Y-113360200D01*
X149064893Y-113404278D01*
X149079848Y-113430190D01*
X149127410Y-113512595D01*
X149172961Y-113591513D01*
X149216350Y-113666681D01*
X149257424Y-113737836D01*
X149296032Y-113804714D01*
X149332021Y-113867053D01*
X149365239Y-113924588D01*
X149395535Y-113977057D01*
X149422756Y-114024196D01*
X149446751Y-114065743D01*
X149467367Y-114101433D01*
X149484453Y-114131003D01*
X149497856Y-114154191D01*
X149502752Y-114162657D01*
X149514090Y-114182278D01*
X149528417Y-114207103D01*
X149544829Y-114235563D01*
X149562421Y-114266088D01*
X149580288Y-114297108D01*
X149597526Y-114327055D01*
X149598463Y-114328683D01*
X149615981Y-114359101D01*
X149634496Y-114391199D01*
X149653030Y-114423285D01*
X149670605Y-114453668D01*
X149686244Y-114480655D01*
X149698947Y-114502521D01*
X149725078Y-114547478D01*
X149751167Y-114592499D01*
X149776898Y-114637029D01*
X149801955Y-114680512D01*
X149826022Y-114722395D01*
X149848781Y-114762121D01*
X149869915Y-114799138D01*
X149889110Y-114832889D01*
X149906046Y-114862819D01*
X149920409Y-114888375D01*
X149931881Y-114909000D01*
X149940146Y-114924141D01*
X149944887Y-114933243D01*
X149945548Y-114934651D01*
X149957080Y-114968568D01*
X149964024Y-115006489D01*
X149966149Y-115045929D01*
X149963226Y-115084409D01*
X149960744Y-115098261D01*
X149953298Y-115123935D01*
X149941748Y-115152287D01*
X149927454Y-115180410D01*
X149911775Y-115205396D01*
X149908715Y-115209596D01*
X149880596Y-115240852D01*
X149846316Y-115268122D01*
X149806772Y-115290772D01*
X149775245Y-115303971D01*
X149749853Y-115313118D01*
X145784765Y-115313569D01*
X145608863Y-115313587D01*
X145434842Y-115313602D01*
X145262870Y-115313614D01*
X145093109Y-115313622D01*
X144925725Y-115313627D01*
X144760882Y-115313630D01*
X144598745Y-115313629D01*
X144439480Y-115313625D01*
X144283249Y-115313618D01*
X144130219Y-115313608D01*
X143980554Y-115313595D01*
X143834419Y-115313579D01*
X143691978Y-115313560D01*
X143553396Y-115313539D01*
X143418837Y-115313515D01*
X143288467Y-115313488D01*
X143162451Y-115313459D01*
X143040952Y-115313427D01*
X142924135Y-115313392D01*
X142812166Y-115313355D01*
X142705209Y-115313316D01*
X142603428Y-115313274D01*
X142506989Y-115313230D01*
X142416056Y-115313184D01*
X142330794Y-115313135D01*
X142251367Y-115313084D01*
X142177940Y-115313031D01*
X142110678Y-115312976D01*
X142049746Y-115312919D01*
X141995307Y-115312860D01*
X141947528Y-115312799D01*
X141906573Y-115312736D01*
X141872606Y-115312672D01*
X141845791Y-115312605D01*
X141826295Y-115312537D01*
X141814281Y-115312467D01*
X141809915Y-115312395D01*
X141809911Y-115312395D01*
X141775411Y-115303570D01*
X141740008Y-115288945D01*
X141706247Y-115269729D01*
X141681448Y-115251290D01*
X141649195Y-115219133D01*
X141623176Y-115182938D01*
X141603569Y-115143559D01*
X141590553Y-115101848D01*
X141584309Y-115058659D01*
X141585015Y-115014844D01*
X141592852Y-114971258D01*
X141607997Y-114928752D01*
X141611890Y-114920516D01*
X141616504Y-114911743D01*
X141624695Y-114896827D01*
X141636114Y-114876383D01*
X141650411Y-114851023D01*
X141667238Y-114821362D01*
X141686246Y-114788011D01*
X141707087Y-114751585D01*
X141729411Y-114712697D01*
X141751827Y-114673771D01*
X142454393Y-114673771D01*
X142454445Y-114675626D01*
X142454482Y-114677284D01*
X142455816Y-114689482D01*
X142461106Y-114698324D01*
X142466502Y-114703358D01*
X142478521Y-114713472D01*
X145774999Y-114713472D01*
X149071477Y-114713472D01*
X149083497Y-114703358D01*
X149091821Y-114694596D01*
X149095134Y-114684830D01*
X149095516Y-114677233D01*
X149095078Y-114672655D01*
X149093551Y-114666837D01*
X149090611Y-114659164D01*
X149085936Y-114649021D01*
X149079204Y-114635794D01*
X149070092Y-114618868D01*
X149058279Y-114597628D01*
X149043442Y-114571459D01*
X149025258Y-114539747D01*
X149005047Y-114504718D01*
X148983353Y-114467184D01*
X148958709Y-114424536D01*
X148932070Y-114378428D01*
X148904391Y-114330513D01*
X148876628Y-114282446D01*
X148849735Y-114235879D01*
X148824668Y-114192465D01*
X148813097Y-114172423D01*
X148792073Y-114136006D01*
X148771037Y-114099573D01*
X148750546Y-114064087D01*
X148731156Y-114030514D01*
X148713425Y-113999816D01*
X148697908Y-113972957D01*
X148685163Y-113950901D01*
X148675746Y-113934613D01*
X148675465Y-113934127D01*
X148649386Y-113889027D01*
X148623012Y-113843402D01*
X148596857Y-113798142D01*
X148571438Y-113754140D01*
X148547268Y-113712286D01*
X148524863Y-113673473D01*
X148504738Y-113638591D01*
X148487406Y-113608533D01*
X148473383Y-113584190D01*
X148471311Y-113580590D01*
X148448431Y-113540831D01*
X148428757Y-113506656D01*
X148411604Y-113476875D01*
X148396285Y-113450300D01*
X148382114Y-113425740D01*
X148368404Y-113402005D01*
X148354469Y-113377907D01*
X148339622Y-113352256D01*
X148323177Y-113323861D01*
X148318014Y-113314948D01*
X148301568Y-113286542D01*
X148281579Y-113251984D01*
X148258406Y-113211895D01*
X148232406Y-113166894D01*
X148203937Y-113117601D01*
X148173356Y-113064634D01*
X148141022Y-113008614D01*
X148107290Y-112950159D01*
X148072520Y-112889888D01*
X148037069Y-112828423D01*
X148006756Y-112775853D01*
X147986418Y-112740586D01*
X147962625Y-112699341D01*
X147935833Y-112652906D01*
X147906495Y-112602067D01*
X147875066Y-112547612D01*
X147842000Y-112490328D01*
X147807752Y-112431002D01*
X147772776Y-112370422D01*
X147737527Y-112309374D01*
X147702458Y-112248646D01*
X147668026Y-112189024D01*
X147634683Y-112131297D01*
X147602884Y-112076250D01*
X147589539Y-112053152D01*
X147581723Y-112039620D01*
X147570541Y-112020256D01*
X147556534Y-111995997D01*
X147540241Y-111967776D01*
X147522202Y-111936530D01*
X147502958Y-111903193D01*
X147483048Y-111868702D01*
X147466624Y-111840248D01*
X147443786Y-111800683D01*
X147418840Y-111757469D01*
X147392743Y-111712265D01*
X147366453Y-111666730D01*
X147340928Y-111622521D01*
X147317125Y-111581298D01*
X147296002Y-111544720D01*
X147290701Y-111535542D01*
X147236727Y-111442082D01*
X147185844Y-111353967D01*
X147138145Y-111271357D01*
X147093720Y-111194411D01*
X147052661Y-111123288D01*
X147015062Y-111058146D01*
X146981012Y-110999145D01*
X146950605Y-110946445D01*
X146923932Y-110900204D01*
X146902840Y-110863626D01*
X146884071Y-110831084D01*
X146864706Y-110797534D01*
X146845528Y-110764333D01*
X146827321Y-110732837D01*
X146810870Y-110704402D01*
X146796958Y-110680385D01*
X146788814Y-110666348D01*
X146774570Y-110641781D01*
X146757731Y-110612666D01*
X146739582Y-110581232D01*
X146721413Y-110549712D01*
X146704510Y-110520335D01*
X146700867Y-110513995D01*
X146683665Y-110484082D01*
X146664165Y-110450237D01*
X146643868Y-110415062D01*
X146624277Y-110381157D01*
X146606891Y-110351125D01*
X146605062Y-110347969D01*
X146588747Y-110319815D01*
X146570939Y-110289059D01*
X146552931Y-110257937D01*
X146536019Y-110228686D01*
X146521495Y-110203542D01*
X146519175Y-110199522D01*
X146508349Y-110180765D01*
X146494330Y-110156480D01*
X146477833Y-110127907D01*
X146459572Y-110096284D01*
X146440264Y-110062848D01*
X146420622Y-110028839D01*
X146401362Y-109995494D01*
X146400749Y-109994432D01*
X146382078Y-109962100D01*
X146363488Y-109929896D01*
X146345604Y-109898900D01*
X146329048Y-109870192D01*
X146314442Y-109844852D01*
X146302411Y-109823962D01*
X146293577Y-109808601D01*
X146292612Y-109806920D01*
X146283976Y-109791898D01*
X146272104Y-109771282D01*
X146257672Y-109746242D01*
X146241353Y-109717947D01*
X146223823Y-109687569D01*
X146205757Y-109656276D01*
X146191231Y-109631128D01*
X146170386Y-109595039D01*
X146146860Y-109554290D01*
X146121871Y-109510995D01*
X146096637Y-109467262D01*
X146072376Y-109425205D01*
X146050308Y-109386935D01*
X146043574Y-109375253D01*
X146026036Y-109344845D01*
X146008968Y-109315285D01*
X145992944Y-109287563D01*
X145978536Y-109262672D01*
X145966320Y-109241603D01*
X145956868Y-109225347D01*
X145950868Y-109215087D01*
X145944309Y-109203869D01*
X145934502Y-109186999D01*
X145922098Y-109165597D01*
X145907745Y-109140785D01*
X145892091Y-109113683D01*
X145875785Y-109085411D01*
X145868718Y-109073145D01*
X145853009Y-109046156D01*
X145838166Y-109021192D01*
X145824720Y-108999108D01*
X145813204Y-108980758D01*
X145804151Y-108966997D01*
X145798094Y-108958681D01*
X145796142Y-108956675D01*
X145781602Y-108951311D01*
X145765655Y-108951782D01*
X145754166Y-108956472D01*
X145748637Y-108962160D01*
X145740434Y-108973177D01*
X145730619Y-108987987D01*
X145720256Y-109005058D01*
X145719209Y-109006868D01*
X145703764Y-109033684D01*
X145687348Y-109062165D01*
X145669562Y-109093004D01*
X145650005Y-109126898D01*
X145628274Y-109164540D01*
X145603970Y-109206624D01*
X145576692Y-109253845D01*
X145546038Y-109306899D01*
X145534757Y-109326422D01*
X145515537Y-109359682D01*
X145496766Y-109392170D01*
X145478965Y-109422983D01*
X145462656Y-109451217D01*
X145448359Y-109475970D01*
X145436598Y-109496338D01*
X145427893Y-109511418D01*
X145424188Y-109517840D01*
X145413917Y-109535640D01*
X145401256Y-109557565D01*
X145387729Y-109580979D01*
X145374858Y-109603243D01*
X145373417Y-109605736D01*
X145359773Y-109629349D01*
X145344377Y-109656034D01*
X145329121Y-109682506D01*
X145315975Y-109705351D01*
X145306615Y-109721614D01*
X145293578Y-109744234D01*
X145277101Y-109772804D01*
X145257416Y-109806918D01*
X145234759Y-109846169D01*
X145209366Y-109890150D01*
X145181469Y-109938454D01*
X145151305Y-109990676D01*
X145119109Y-110046408D01*
X145097226Y-110084281D01*
X145086595Y-110102685D01*
X145073137Y-110125991D01*
X145057928Y-110152336D01*
X145042046Y-110179853D01*
X145026566Y-110206678D01*
X145022805Y-110213195D01*
X145006262Y-110241862D01*
X144987275Y-110274756D01*
X144967307Y-110309340D01*
X144947825Y-110343077D01*
X144930293Y-110373431D01*
X144928077Y-110377268D01*
X144911529Y-110405914D01*
X144892427Y-110438986D01*
X144872126Y-110474142D01*
X144851975Y-110509039D01*
X144833329Y-110541336D01*
X144826561Y-110553060D01*
X144813059Y-110576450D01*
X144800443Y-110598303D01*
X144788350Y-110619250D01*
X144776417Y-110639917D01*
X144764281Y-110660935D01*
X144751578Y-110682933D01*
X144737944Y-110706539D01*
X144723018Y-110732383D01*
X144706435Y-110761093D01*
X144687831Y-110793299D01*
X144666845Y-110829629D01*
X144643112Y-110870713D01*
X144616270Y-110917180D01*
X144585954Y-110969658D01*
X144579506Y-110980820D01*
X144556177Y-111021206D01*
X144532879Y-111061542D01*
X144510098Y-111100987D01*
X144488318Y-111138702D01*
X144468025Y-111173846D01*
X144449702Y-111205581D01*
X144433837Y-111233066D01*
X144420912Y-111255461D01*
X144411456Y-111271854D01*
X144396871Y-111297149D01*
X144379647Y-111327019D01*
X144361049Y-111359273D01*
X144342342Y-111391717D01*
X144324789Y-111422160D01*
X144319104Y-111432020D01*
X144291569Y-111479771D01*
X144263695Y-111528099D01*
X144235911Y-111576265D01*
X144208642Y-111623528D01*
X144182317Y-111669149D01*
X144157362Y-111712386D01*
X144134204Y-111752501D01*
X144113271Y-111788751D01*
X144094991Y-111820399D01*
X144079789Y-111846702D01*
X144068836Y-111865640D01*
X144053704Y-111891795D01*
X144036684Y-111921223D01*
X144019430Y-111951066D01*
X144003591Y-111978469D01*
X143996554Y-111990648D01*
X143983108Y-112013910D01*
X143969001Y-112038290D01*
X143955520Y-112061568D01*
X143943950Y-112081522D01*
X143938874Y-112090264D01*
X143932610Y-112101068D01*
X143922893Y-112117862D01*
X143910171Y-112139870D01*
X143894894Y-112166313D01*
X143877510Y-112196414D01*
X143858470Y-112229394D01*
X143838221Y-112264477D01*
X143817214Y-112300885D01*
X143805756Y-112320747D01*
X143783338Y-112359608D01*
X143760485Y-112399223D01*
X143737793Y-112438558D01*
X143715857Y-112476579D01*
X143695273Y-112512255D01*
X143676638Y-112544552D01*
X143660548Y-112572438D01*
X143647597Y-112594878D01*
X143644606Y-112600061D01*
X143628859Y-112627345D01*
X143610320Y-112659467D01*
X143590105Y-112694495D01*
X143569327Y-112730500D01*
X143549100Y-112765552D01*
X143530758Y-112797338D01*
X143511989Y-112829863D01*
X143491411Y-112865523D01*
X143470174Y-112902321D01*
X143449432Y-112938262D01*
X143430337Y-112971346D01*
X143414650Y-112998523D01*
X143396680Y-113029668D01*
X143376382Y-113064869D01*
X143355189Y-113101640D01*
X143334532Y-113137496D01*
X143315845Y-113169954D01*
X143309963Y-113180174D01*
X143293038Y-113209560D01*
X143274547Y-113241612D01*
X143255723Y-113274197D01*
X143237801Y-113305179D01*
X143222013Y-113332423D01*
X143216283Y-113342294D01*
X143203463Y-113364371D01*
X143191490Y-113385011D01*
X143179784Y-113405220D01*
X143167763Y-113426004D01*
X143154847Y-113448369D01*
X143140454Y-113473321D01*
X143124003Y-113501867D01*
X143104914Y-113535011D01*
X143082606Y-113573761D01*
X143078675Y-113580590D01*
X143069234Y-113596980D01*
X143056440Y-113619169D01*
X143040852Y-113646192D01*
X143023026Y-113677083D01*
X143003519Y-113710876D01*
X142982890Y-113746607D01*
X142961695Y-113783309D01*
X142940491Y-113820017D01*
X142938888Y-113822792D01*
X142916064Y-113862299D01*
X142891854Y-113904207D01*
X142867042Y-113947156D01*
X142842413Y-113989789D01*
X142818751Y-114030746D01*
X142796841Y-114068671D01*
X142777469Y-114102204D01*
X142765113Y-114123592D01*
X142724341Y-114194163D01*
X142687296Y-114258285D01*
X142653799Y-114316275D01*
X142623673Y-114368451D01*
X142596737Y-114415131D01*
X142572816Y-114456632D01*
X142551729Y-114493272D01*
X142533300Y-114525369D01*
X142517349Y-114553241D01*
X142503698Y-114577205D01*
X142492170Y-114597579D01*
X142482586Y-114614681D01*
X142474767Y-114628828D01*
X142468536Y-114640338D01*
X142463714Y-114649530D01*
X142460123Y-114656720D01*
X142457585Y-114662226D01*
X142455921Y-114666367D01*
X142454953Y-114669460D01*
X142454504Y-114671822D01*
X142454393Y-114673771D01*
X141751827Y-114673771D01*
X141752870Y-114671960D01*
X141776276Y-114631436D01*
X141800841Y-114588970D01*
X141824894Y-114547388D01*
X141848053Y-114507349D01*
X141869935Y-114469517D01*
X141890158Y-114434552D01*
X141908339Y-114403115D01*
X141924096Y-114375868D01*
X141937046Y-114353472D01*
X141946807Y-114336588D01*
X141952505Y-114326729D01*
X141960824Y-114312330D01*
X141972436Y-114292232D01*
X141986722Y-114267504D01*
X142003068Y-114239213D01*
X142020855Y-114208427D01*
X142039468Y-114176211D01*
X142058289Y-114143635D01*
X142061970Y-114137265D01*
X142083852Y-114099383D01*
X142108312Y-114057024D01*
X142134198Y-114012185D01*
X142160358Y-113966861D01*
X142185641Y-113923045D01*
X142208895Y-113882734D01*
X142222061Y-113859904D01*
X142234503Y-113838331D01*
X142250451Y-113810690D01*
X142269500Y-113777678D01*
X142291249Y-113739993D01*
X142315296Y-113698332D01*
X142341236Y-113653393D01*
X142368669Y-113605872D01*
X142397190Y-113556469D01*
X142426397Y-113505879D01*
X142455888Y-113454800D01*
X142485261Y-113403930D01*
X142514111Y-113353966D01*
X142542037Y-113305606D01*
X142568636Y-113259547D01*
X142593506Y-113216487D01*
X142616243Y-113177122D01*
X142636445Y-113142150D01*
X142653709Y-113112270D01*
X142659618Y-113102045D01*
X142706808Y-113020381D01*
X142752312Y-112941619D01*
X142795905Y-112866150D01*
X142837361Y-112794362D01*
X142876456Y-112726647D01*
X142912965Y-112663393D01*
X142946661Y-112604992D01*
X142977321Y-112551833D01*
X143004719Y-112504306D01*
X143028630Y-112462801D01*
X143046916Y-112431033D01*
X143054061Y-112418627D01*
X143064674Y-112400216D01*
X143078317Y-112376561D01*
X143094549Y-112348424D01*
X143112933Y-112316565D01*
X143133029Y-112281745D01*
X143154397Y-112244725D01*
X143176599Y-112206267D01*
X143199072Y-112167345D01*
X143234035Y-112106797D01*
X143265328Y-112052604D01*
X143293189Y-112004358D01*
X143317856Y-111961646D01*
X143339565Y-111924059D01*
X143358553Y-111891187D01*
X143375057Y-111862618D01*
X143389316Y-111837943D01*
X143401565Y-111816750D01*
X143412042Y-111798630D01*
X143420984Y-111783173D01*
X143428629Y-111769967D01*
X143435214Y-111758603D01*
X143440974Y-111748669D01*
X143446149Y-111739757D01*
X143446775Y-111738680D01*
X143453617Y-111726880D01*
X143463824Y-111709249D01*
X143476853Y-111686722D01*
X143492164Y-111660235D01*
X143509217Y-111630725D01*
X143527470Y-111599126D01*
X143546382Y-111566374D01*
X143556288Y-111549215D01*
X143575604Y-111515752D01*
X143594773Y-111482550D01*
X143613211Y-111450614D01*
X143630339Y-111420952D01*
X143645573Y-111394571D01*
X143658334Y-111372477D01*
X143668039Y-111355678D01*
X143671330Y-111349984D01*
X143680375Y-111334324D01*
X143692578Y-111313177D01*
X143707201Y-111287825D01*
X143723504Y-111259551D01*
X143740746Y-111229637D01*
X143758189Y-111199367D01*
X143765941Y-111185911D01*
X143785091Y-111152680D01*
X143806987Y-111114704D01*
X143830466Y-111074001D01*
X143854362Y-111032590D01*
X143877512Y-110992489D01*
X143898749Y-110955717D01*
X143904559Y-110945662D01*
X143922528Y-110914564D01*
X143940587Y-110883304D01*
X143958040Y-110853091D01*
X143974190Y-110825131D01*
X143988339Y-110800630D01*
X143999789Y-110780798D01*
X144006096Y-110769870D01*
X144028993Y-110730191D01*
X144054379Y-110686203D01*
X144081987Y-110638368D01*
X144111552Y-110587147D01*
X144142808Y-110533000D01*
X144175488Y-110476389D01*
X144209327Y-110417774D01*
X144244057Y-110357617D01*
X144279413Y-110296378D01*
X144315129Y-110234517D01*
X144350939Y-110172497D01*
X144386576Y-110110778D01*
X144421775Y-110049821D01*
X144456269Y-109990086D01*
X144489792Y-109932035D01*
X144522077Y-109876129D01*
X144552860Y-109822828D01*
X144581873Y-109772594D01*
X144608851Y-109725887D01*
X144633527Y-109683168D01*
X144655635Y-109644899D01*
X144674909Y-109611540D01*
X144691083Y-109583551D01*
X144703891Y-109561395D01*
X144713066Y-109545531D01*
X144713266Y-109545185D01*
X144720531Y-109532618D01*
X144731035Y-109514429D01*
X144744115Y-109491766D01*
X144759110Y-109465777D01*
X144775357Y-109437609D01*
X144792194Y-109408410D01*
X144801174Y-109392832D01*
X144822327Y-109356142D01*
X144845501Y-109315954D01*
X144870350Y-109272866D01*
X144896531Y-109227478D01*
X144923697Y-109180387D01*
X144951502Y-109132192D01*
X144979603Y-109083491D01*
X145007652Y-109034882D01*
X145035306Y-108986964D01*
X145062218Y-108940336D01*
X145088043Y-108895595D01*
X145112436Y-108853340D01*
X145135052Y-108814169D01*
X145155544Y-108778681D01*
X145173569Y-108747474D01*
X145188781Y-108721147D01*
X145200833Y-108700297D01*
X145209381Y-108685524D01*
X145210378Y-108683804D01*
X145226996Y-108655107D01*
X145246703Y-108621048D01*
X145268893Y-108582680D01*
X145292958Y-108541051D01*
X145318290Y-108497214D01*
X145344284Y-108452220D01*
X145370332Y-108407120D01*
X145395827Y-108362964D01*
X145420162Y-108320805D01*
X145442729Y-108281691D01*
X145462922Y-108246676D01*
X145480134Y-108216810D01*
X145487909Y-108203306D01*
X145502843Y-108177564D01*
X145517300Y-108153021D01*
X145530598Y-108130805D01*
X145542055Y-108112045D01*
X145550990Y-108097870D01*
X145556554Y-108089634D01*
X145585059Y-108057250D01*
X145618047Y-108030621D01*
X145654629Y-108009827D01*
X145693919Y-107994947D01*
X145735028Y-107986062D01*
X145777070Y-107983252D01*
X145819156Y-107986596D01*
G37*
M02*
