G04 #@! TF.GenerationSoftware,KiCad,Pcbnew,9.0.7*
G04 #@! TF.CreationDate,2026-03-26T19:29:14+01:00*
G04 #@! TF.ProjectId,lofence,6c6f6665-6e63-4652-9e6b-696361645f70,rev?*
G04 #@! TF.SameCoordinates,Original*
G04 #@! TF.FileFunction,Copper,L2,Inr*
G04 #@! TF.FilePolarity,Positive*
%FSLAX46Y46*%
G04 Gerber Fmt 4.6, Leading zero omitted, Abs format (unit mm)*
G04 Created by KiCad (PCBNEW 9.0.7) date 2026-03-26 19:29:14*
%MOMM*%
%LPD*%
G01*
G04 APERTURE LIST*
G04 #@! TA.AperFunction,ComponentPad*
%ADD10C,2.400000*%
G04 #@! TD*
G04 #@! TA.AperFunction,ComponentPad*
%ADD11C,0.800000*%
G04 #@! TD*
G04 #@! TA.AperFunction,ComponentPad*
%ADD12C,7.000000*%
G04 #@! TD*
G04 #@! TA.AperFunction,ComponentPad*
%ADD13R,1.650000X1.650000*%
G04 #@! TD*
G04 #@! TA.AperFunction,ComponentPad*
%ADD14C,1.650000*%
G04 #@! TD*
G04 #@! TA.AperFunction,ViaPad*
%ADD15C,2.000000*%
G04 #@! TD*
G04 #@! TA.AperFunction,ViaPad*
%ADD16C,0.800000*%
G04 #@! TD*
G04 APERTURE END LIST*
D10*
X142900000Y-133670000D03*
X142900000Y-118430000D03*
X148775000Y-118430000D03*
X148775000Y-133670000D03*
D11*
X118375000Y-121750000D03*
X119143845Y-119893845D03*
X119143845Y-123606155D03*
X121000000Y-119125000D03*
D12*
X121000000Y-121750000D03*
D11*
X121000000Y-124375000D03*
X122856155Y-119893845D03*
X122856155Y-123606155D03*
X123625000Y-121750000D03*
D13*
X127600000Y-94510000D03*
D14*
X130140000Y-94510000D03*
X132680000Y-94510000D03*
X135220000Y-94510000D03*
X137760000Y-94510000D03*
X140300000Y-94510000D03*
X142840000Y-94510000D03*
X145380000Y-94510000D03*
X147920000Y-94510000D03*
X150460000Y-94510000D03*
X153000000Y-94510000D03*
X155540000Y-94510000D03*
X158080000Y-94510000D03*
X160620000Y-94510000D03*
X163160000Y-94510000D03*
X165700000Y-94510000D03*
X168240000Y-94510000D03*
X170780000Y-94510000D03*
X127600000Y-71490000D03*
X130140000Y-71490000D03*
X132680000Y-71490000D03*
X135220000Y-71490000D03*
X137760000Y-71490000D03*
X140300000Y-71490000D03*
X142840000Y-71490000D03*
X145380000Y-71490000D03*
X147920000Y-71490000D03*
X150460000Y-71490000D03*
X153000000Y-71490000D03*
X155540000Y-71490000D03*
X158080000Y-71490000D03*
X160620000Y-71490000D03*
X163160000Y-71490000D03*
X165700000Y-71490000D03*
X168240000Y-71490000D03*
X170780000Y-71490000D03*
D11*
X176375000Y-121750000D03*
X177143845Y-119893845D03*
X177143845Y-123606155D03*
X179000000Y-119125000D03*
D12*
X179000000Y-121750000D03*
D11*
X179000000Y-124375000D03*
X180856155Y-119893845D03*
X180856155Y-123606155D03*
X181625000Y-121750000D03*
X118375000Y-78250000D03*
X119143845Y-76393845D03*
X119143845Y-80106155D03*
X121000000Y-75625000D03*
D12*
X121000000Y-78250000D03*
D11*
X121000000Y-80875000D03*
X122856155Y-76393845D03*
X122856155Y-80106155D03*
X123625000Y-78250000D03*
X176375000Y-78250000D03*
X177143845Y-76393845D03*
X177143845Y-80106155D03*
X179000000Y-75625000D03*
D12*
X179000000Y-78250000D03*
D11*
X179000000Y-80875000D03*
X180856155Y-76393845D03*
X180856155Y-80106155D03*
X181625000Y-78250000D03*
D15*
X127500000Y-74475000D03*
X170000000Y-97175000D03*
X157500000Y-97175000D03*
X170100000Y-79000000D03*
X165600000Y-75000000D03*
X148700000Y-75250000D03*
X155000000Y-97175000D03*
X160000000Y-97175000D03*
X148700000Y-78250000D03*
X167850000Y-77000000D03*
X165000000Y-97175000D03*
X162500000Y-97175000D03*
X148700000Y-81250000D03*
X167500000Y-97175000D03*
X172500000Y-97175000D03*
X127500000Y-91500000D03*
D16*
X152612500Y-81387500D03*
D15*
X156675000Y-115675000D03*
X163600000Y-78225000D03*
G04 #@! TA.AperFunction,Conductor*
G36*
X169221258Y-60932685D02*
G01*
X169267013Y-60985489D01*
X169278219Y-61037019D01*
X169277004Y-69119692D01*
X169277002Y-69134975D01*
X169277000Y-69134982D01*
X169277000Y-69149827D01*
X169277000Y-69151716D01*
X169277000Y-69151719D01*
X169276998Y-69165191D01*
X169277078Y-69165563D01*
X169278666Y-69169040D01*
X169282178Y-69177519D01*
X169282182Y-69177541D01*
X169282187Y-69177540D01*
X169288489Y-69192759D01*
X169288493Y-69192766D01*
X169299088Y-69203361D01*
X169299098Y-69203380D01*
X169299103Y-69203376D01*
X169299105Y-69203378D01*
X169309723Y-69214000D01*
X169309725Y-69214000D01*
X169309731Y-69214004D01*
X169309733Y-69214006D01*
X169309735Y-69214006D01*
X169310406Y-69214422D01*
X169313756Y-69215672D01*
X169321376Y-69218828D01*
X169321396Y-69218845D01*
X169321399Y-69218839D01*
X169337467Y-69225497D01*
X169337470Y-69225497D01*
X169337471Y-69225498D01*
X169337472Y-69225498D01*
X169337482Y-69225500D01*
X169352489Y-69225500D01*
X169367507Y-69225502D01*
X169367507Y-69225501D01*
X169379304Y-69225503D01*
X169379347Y-69225500D01*
X188547919Y-69225500D01*
X188614958Y-69245185D01*
X188660713Y-69297989D01*
X188671918Y-69349548D01*
X188668898Y-76808052D01*
X188660243Y-98176050D01*
X188640531Y-98243082D01*
X188587709Y-98288815D01*
X188536243Y-98300000D01*
X174028823Y-98300000D01*
X173961784Y-98280315D01*
X173916029Y-98227511D01*
X173906085Y-98158353D01*
X173921434Y-98114003D01*
X174028405Y-97928726D01*
X174113710Y-97722781D01*
X174171404Y-97507463D01*
X174200500Y-97286457D01*
X174200500Y-97063543D01*
X174171404Y-96842537D01*
X174113710Y-96627219D01*
X174028405Y-96421274D01*
X173916948Y-96228226D01*
X173781247Y-96051376D01*
X173781242Y-96051370D01*
X173623629Y-95893757D01*
X173623622Y-95893751D01*
X173446782Y-95758058D01*
X173446780Y-95758057D01*
X173446774Y-95758052D01*
X173253726Y-95646595D01*
X173253722Y-95646593D01*
X173047790Y-95561293D01*
X173047783Y-95561291D01*
X173047781Y-95561290D01*
X172832463Y-95503596D01*
X172832457Y-95503595D01*
X172832452Y-95503594D01*
X172611466Y-95474501D01*
X172611463Y-95474500D01*
X172611457Y-95474500D01*
X172388543Y-95474500D01*
X172388537Y-95474500D01*
X172388532Y-95474501D01*
X172205847Y-95498552D01*
X172136812Y-95487786D01*
X172084556Y-95441406D01*
X172065671Y-95374137D01*
X172082987Y-95314119D01*
X172082512Y-95313877D01*
X172083768Y-95311411D01*
X172083941Y-95310813D01*
X172084716Y-95309546D01*
X172084724Y-95309536D01*
X172193736Y-95095589D01*
X172267937Y-94867222D01*
X172305500Y-94630059D01*
X172305500Y-94389941D01*
X172267937Y-94152778D01*
X172193736Y-93924411D01*
X172193734Y-93924408D01*
X172193734Y-93924406D01*
X172084723Y-93710463D01*
X171943586Y-93516204D01*
X171773796Y-93346414D01*
X171579536Y-93205276D01*
X171579534Y-93205275D01*
X171365593Y-93096265D01*
X171137222Y-93022063D01*
X171107440Y-93017346D01*
X170900059Y-92984500D01*
X170659941Y-92984500D01*
X170619445Y-92990914D01*
X170422777Y-93022063D01*
X170194406Y-93096265D01*
X169980463Y-93205276D01*
X169786201Y-93346416D01*
X169616413Y-93516204D01*
X169610317Y-93524596D01*
X169554986Y-93567261D01*
X169485373Y-93573239D01*
X169423578Y-93540632D01*
X169409683Y-93524596D01*
X169403586Y-93516204D01*
X169233798Y-93346416D01*
X169233796Y-93346414D01*
X169039536Y-93205276D01*
X169039534Y-93205275D01*
X168825593Y-93096265D01*
X168597222Y-93022063D01*
X168567440Y-93017346D01*
X168360059Y-92984500D01*
X168119941Y-92984500D01*
X168079445Y-92990914D01*
X167882777Y-93022063D01*
X167654406Y-93096265D01*
X167440463Y-93205276D01*
X167246201Y-93346416D01*
X167076413Y-93516204D01*
X167070317Y-93524596D01*
X167014986Y-93567261D01*
X166945373Y-93573239D01*
X166883578Y-93540632D01*
X166869683Y-93524596D01*
X166863586Y-93516204D01*
X166693798Y-93346416D01*
X166693796Y-93346414D01*
X166499536Y-93205276D01*
X166499534Y-93205275D01*
X166285593Y-93096265D01*
X166057222Y-93022063D01*
X166027440Y-93017346D01*
X165820059Y-92984500D01*
X165579941Y-92984500D01*
X165539445Y-92990914D01*
X165342777Y-93022063D01*
X165114406Y-93096265D01*
X164900463Y-93205276D01*
X164706201Y-93346416D01*
X164536413Y-93516204D01*
X164530317Y-93524596D01*
X164474986Y-93567261D01*
X164405373Y-93573239D01*
X164343578Y-93540632D01*
X164329683Y-93524596D01*
X164323586Y-93516204D01*
X164153798Y-93346416D01*
X164153796Y-93346414D01*
X163959536Y-93205276D01*
X163959534Y-93205275D01*
X163745593Y-93096265D01*
X163517222Y-93022063D01*
X163487440Y-93017346D01*
X163280059Y-92984500D01*
X163039941Y-92984500D01*
X162999445Y-92990914D01*
X162802777Y-93022063D01*
X162574406Y-93096265D01*
X162360463Y-93205276D01*
X162166201Y-93346416D01*
X161996413Y-93516204D01*
X161990317Y-93524596D01*
X161934986Y-93567261D01*
X161865373Y-93573239D01*
X161803578Y-93540632D01*
X161789683Y-93524596D01*
X161783586Y-93516204D01*
X161613798Y-93346416D01*
X161613796Y-93346414D01*
X161419536Y-93205276D01*
X161419534Y-93205275D01*
X161205593Y-93096265D01*
X160977222Y-93022063D01*
X160947440Y-93017346D01*
X160740059Y-92984500D01*
X160499941Y-92984500D01*
X160459445Y-92990914D01*
X160262777Y-93022063D01*
X160034406Y-93096265D01*
X159820463Y-93205276D01*
X159626201Y-93346416D01*
X159456413Y-93516204D01*
X159450317Y-93524596D01*
X159394986Y-93567261D01*
X159325373Y-93573239D01*
X159263578Y-93540632D01*
X159249683Y-93524596D01*
X159243586Y-93516204D01*
X159073798Y-93346416D01*
X159073796Y-93346414D01*
X158879536Y-93205276D01*
X158879534Y-93205275D01*
X158665593Y-93096265D01*
X158437222Y-93022063D01*
X158407440Y-93017346D01*
X158200059Y-92984500D01*
X157959941Y-92984500D01*
X157919445Y-92990914D01*
X157722777Y-93022063D01*
X157494406Y-93096265D01*
X157280463Y-93205276D01*
X157086201Y-93346416D01*
X156916413Y-93516204D01*
X156910317Y-93524596D01*
X156854986Y-93567261D01*
X156785373Y-93573239D01*
X156723578Y-93540632D01*
X156709683Y-93524596D01*
X156703586Y-93516204D01*
X156533798Y-93346416D01*
X156533796Y-93346414D01*
X156339536Y-93205276D01*
X156339534Y-93205275D01*
X156125593Y-93096265D01*
X155897222Y-93022063D01*
X155867440Y-93017346D01*
X155660059Y-92984500D01*
X155419941Y-92984500D01*
X155379445Y-92990914D01*
X155182777Y-93022063D01*
X154954406Y-93096265D01*
X154740463Y-93205276D01*
X154546201Y-93346416D01*
X154376413Y-93516204D01*
X154370317Y-93524596D01*
X154314986Y-93567261D01*
X154245373Y-93573239D01*
X154183578Y-93540632D01*
X154169683Y-93524596D01*
X154163586Y-93516204D01*
X153993798Y-93346416D01*
X153993796Y-93346414D01*
X153799536Y-93205276D01*
X153799534Y-93205275D01*
X153585593Y-93096265D01*
X153357222Y-93022063D01*
X153327440Y-93017346D01*
X153120059Y-92984500D01*
X152879941Y-92984500D01*
X152839445Y-92990914D01*
X152642777Y-93022063D01*
X152414406Y-93096265D01*
X152200463Y-93205276D01*
X152006201Y-93346416D01*
X151836413Y-93516204D01*
X151830317Y-93524596D01*
X151774986Y-93567261D01*
X151705373Y-93573239D01*
X151643578Y-93540632D01*
X151629683Y-93524596D01*
X151623586Y-93516204D01*
X151453798Y-93346416D01*
X151453796Y-93346414D01*
X151259536Y-93205276D01*
X151259534Y-93205275D01*
X151045593Y-93096265D01*
X150817222Y-93022063D01*
X150787440Y-93017346D01*
X150580059Y-92984500D01*
X150339941Y-92984500D01*
X150299445Y-92990914D01*
X150102777Y-93022063D01*
X149874406Y-93096265D01*
X149660463Y-93205276D01*
X149466201Y-93346416D01*
X149296413Y-93516204D01*
X149290317Y-93524596D01*
X149234986Y-93567261D01*
X149165373Y-93573239D01*
X149103578Y-93540632D01*
X149089683Y-93524596D01*
X149083586Y-93516204D01*
X148913798Y-93346416D01*
X148913796Y-93346414D01*
X148719536Y-93205276D01*
X148719534Y-93205275D01*
X148505593Y-93096265D01*
X148277222Y-93022063D01*
X148247440Y-93017346D01*
X148040059Y-92984500D01*
X147799941Y-92984500D01*
X147759445Y-92990914D01*
X147562777Y-93022063D01*
X147334406Y-93096265D01*
X147120463Y-93205276D01*
X146926201Y-93346416D01*
X146756413Y-93516204D01*
X146750317Y-93524596D01*
X146694986Y-93567261D01*
X146625373Y-93573239D01*
X146563578Y-93540632D01*
X146549683Y-93524596D01*
X146543586Y-93516204D01*
X146373798Y-93346416D01*
X146373796Y-93346414D01*
X146179536Y-93205276D01*
X146179534Y-93205275D01*
X145965593Y-93096265D01*
X145737222Y-93022063D01*
X145707440Y-93017346D01*
X145500059Y-92984500D01*
X145259941Y-92984500D01*
X145219445Y-92990914D01*
X145022777Y-93022063D01*
X144794406Y-93096265D01*
X144580463Y-93205276D01*
X144386201Y-93346416D01*
X144216413Y-93516204D01*
X144210317Y-93524596D01*
X144154986Y-93567261D01*
X144085373Y-93573239D01*
X144023578Y-93540632D01*
X144009683Y-93524596D01*
X144003586Y-93516204D01*
X143833798Y-93346416D01*
X143833796Y-93346414D01*
X143639536Y-93205276D01*
X143639534Y-93205275D01*
X143425593Y-93096265D01*
X143197222Y-93022063D01*
X143167440Y-93017346D01*
X142960059Y-92984500D01*
X142719941Y-92984500D01*
X142679445Y-92990914D01*
X142482777Y-93022063D01*
X142254406Y-93096265D01*
X142040463Y-93205276D01*
X141846201Y-93346416D01*
X141676413Y-93516204D01*
X141670317Y-93524596D01*
X141614986Y-93567261D01*
X141545373Y-93573239D01*
X141483578Y-93540632D01*
X141469683Y-93524596D01*
X141463586Y-93516204D01*
X141293798Y-93346416D01*
X141293796Y-93346414D01*
X141099536Y-93205276D01*
X141099534Y-93205275D01*
X140885593Y-93096265D01*
X140657222Y-93022063D01*
X140627440Y-93017346D01*
X140420059Y-92984500D01*
X140179941Y-92984500D01*
X140139445Y-92990914D01*
X139942777Y-93022063D01*
X139714406Y-93096265D01*
X139500463Y-93205276D01*
X139306201Y-93346416D01*
X139136413Y-93516204D01*
X139130317Y-93524596D01*
X139074986Y-93567261D01*
X139005373Y-93573239D01*
X138943578Y-93540632D01*
X138929683Y-93524596D01*
X138923586Y-93516204D01*
X138753798Y-93346416D01*
X138753796Y-93346414D01*
X138559536Y-93205276D01*
X138559534Y-93205275D01*
X138345593Y-93096265D01*
X138117222Y-93022063D01*
X138087440Y-93017346D01*
X137880059Y-92984500D01*
X137639941Y-92984500D01*
X137599445Y-92990914D01*
X137402777Y-93022063D01*
X137174406Y-93096265D01*
X136960463Y-93205276D01*
X136766201Y-93346416D01*
X136596413Y-93516204D01*
X136590317Y-93524596D01*
X136534986Y-93567261D01*
X136465373Y-93573239D01*
X136403578Y-93540632D01*
X136389683Y-93524596D01*
X136383586Y-93516204D01*
X136213798Y-93346416D01*
X136213796Y-93346414D01*
X136019536Y-93205276D01*
X136019534Y-93205275D01*
X135805593Y-93096265D01*
X135577222Y-93022063D01*
X135547440Y-93017346D01*
X135340059Y-92984500D01*
X135099941Y-92984500D01*
X135059445Y-92990914D01*
X134862777Y-93022063D01*
X134634406Y-93096265D01*
X134420463Y-93205276D01*
X134226201Y-93346416D01*
X134056413Y-93516204D01*
X134050317Y-93524596D01*
X133994986Y-93567261D01*
X133925373Y-93573239D01*
X133863578Y-93540632D01*
X133849683Y-93524596D01*
X133843586Y-93516204D01*
X133673798Y-93346416D01*
X133673796Y-93346414D01*
X133479536Y-93205276D01*
X133479534Y-93205275D01*
X133265593Y-93096265D01*
X133037222Y-93022063D01*
X133007440Y-93017346D01*
X132800059Y-92984500D01*
X132559941Y-92984500D01*
X132519445Y-92990914D01*
X132322777Y-93022063D01*
X132094406Y-93096265D01*
X131880463Y-93205276D01*
X131686201Y-93346416D01*
X131516413Y-93516204D01*
X131510317Y-93524596D01*
X131454986Y-93567261D01*
X131385373Y-93573239D01*
X131323578Y-93540632D01*
X131309683Y-93524596D01*
X131303586Y-93516204D01*
X131133798Y-93346416D01*
X131133796Y-93346414D01*
X130939536Y-93205276D01*
X130939534Y-93205275D01*
X130725593Y-93096265D01*
X130497222Y-93022063D01*
X130467440Y-93017346D01*
X130260059Y-92984500D01*
X130019941Y-92984500D01*
X129979445Y-92990914D01*
X129782777Y-93022063D01*
X129554406Y-93096265D01*
X129340464Y-93205275D01*
X129180806Y-93321273D01*
X129114999Y-93344752D01*
X129046945Y-93328926D01*
X129001804Y-93285103D01*
X128980471Y-93249814D01*
X128980468Y-93249810D01*
X128860188Y-93129530D01*
X128805161Y-93096265D01*
X128714606Y-93041522D01*
X128637017Y-93017344D01*
X128578871Y-92978608D01*
X128550897Y-92914583D01*
X128561978Y-92845598D01*
X128598425Y-92800583D01*
X128623618Y-92781252D01*
X128623620Y-92781249D01*
X128623624Y-92781247D01*
X128781247Y-92623624D01*
X128916948Y-92446774D01*
X129028405Y-92253726D01*
X129113710Y-92047781D01*
X129171404Y-91832463D01*
X129200500Y-91611457D01*
X129200500Y-91388543D01*
X129171404Y-91167537D01*
X129113710Y-90952219D01*
X129028405Y-90746274D01*
X128916948Y-90553226D01*
X128781247Y-90376376D01*
X128781242Y-90376370D01*
X128623629Y-90218757D01*
X128623622Y-90218751D01*
X128446782Y-90083058D01*
X128446780Y-90083057D01*
X128446774Y-90083052D01*
X128253726Y-89971595D01*
X128253722Y-89971593D01*
X128047790Y-89886293D01*
X128047783Y-89886291D01*
X128047781Y-89886290D01*
X127832463Y-89828596D01*
X127832457Y-89828595D01*
X127832452Y-89828594D01*
X127611466Y-89799501D01*
X127611463Y-89799500D01*
X127611457Y-89799500D01*
X127388543Y-89799500D01*
X127388537Y-89799500D01*
X127388533Y-89799501D01*
X127167547Y-89828594D01*
X127167540Y-89828595D01*
X127167537Y-89828596D01*
X126952219Y-89886290D01*
X126952209Y-89886293D01*
X126746277Y-89971593D01*
X126746273Y-89971595D01*
X126553226Y-90083052D01*
X126553217Y-90083058D01*
X126376377Y-90218751D01*
X126376370Y-90218757D01*
X126218757Y-90376370D01*
X126218751Y-90376377D01*
X126083058Y-90553217D01*
X126083052Y-90553226D01*
X125971595Y-90746273D01*
X125971593Y-90746277D01*
X125886293Y-90952209D01*
X125886290Y-90952219D01*
X125828597Y-91167534D01*
X125828594Y-91167547D01*
X125799501Y-91388533D01*
X125799500Y-91388549D01*
X125799500Y-91611450D01*
X125799501Y-91611466D01*
X125828594Y-91832452D01*
X125828595Y-91832457D01*
X125828596Y-91832463D01*
X125828597Y-91832465D01*
X125886290Y-92047780D01*
X125886293Y-92047790D01*
X125971593Y-92253722D01*
X125971595Y-92253726D01*
X126083052Y-92446774D01*
X126083057Y-92446780D01*
X126083058Y-92446782D01*
X126218751Y-92623622D01*
X126218757Y-92623629D01*
X126376370Y-92781242D01*
X126376377Y-92781248D01*
X126470073Y-92853143D01*
X126511276Y-92909570D01*
X126515431Y-92979316D01*
X126481219Y-93040237D01*
X126458738Y-93057635D01*
X126339814Y-93129528D01*
X126339810Y-93129531D01*
X126219530Y-93249811D01*
X126131522Y-93395393D01*
X126080913Y-93557807D01*
X126074500Y-93628386D01*
X126074500Y-95391613D01*
X126080913Y-95462192D01*
X126080913Y-95462194D01*
X126080914Y-95462196D01*
X126124693Y-95602689D01*
X126131522Y-95624606D01*
X126219530Y-95770188D01*
X126339811Y-95890469D01*
X126339813Y-95890470D01*
X126339815Y-95890472D01*
X126485394Y-95978478D01*
X126647804Y-96029086D01*
X126718384Y-96035500D01*
X126718387Y-96035500D01*
X128481613Y-96035500D01*
X128481616Y-96035500D01*
X128552196Y-96029086D01*
X128714606Y-95978478D01*
X128860185Y-95890472D01*
X128980472Y-95770185D01*
X129001807Y-95734891D01*
X129053332Y-95687707D01*
X129122191Y-95675868D01*
X129180804Y-95698724D01*
X129340464Y-95814724D01*
X129441543Y-95866226D01*
X129554406Y-95923734D01*
X129554408Y-95923734D01*
X129554411Y-95923736D01*
X129782778Y-95997937D01*
X130019941Y-96035500D01*
X130019942Y-96035500D01*
X130260058Y-96035500D01*
X130260059Y-96035500D01*
X130497222Y-95997937D01*
X130725589Y-95923736D01*
X130939536Y-95814724D01*
X131133796Y-95673586D01*
X131303586Y-95503796D01*
X131309680Y-95495408D01*
X131365007Y-95452742D01*
X131434621Y-95446760D01*
X131496417Y-95479363D01*
X131510318Y-95495405D01*
X131516414Y-95503796D01*
X131686204Y-95673586D01*
X131880464Y-95814724D01*
X131981543Y-95866226D01*
X132094406Y-95923734D01*
X132094408Y-95923734D01*
X132094411Y-95923736D01*
X132322778Y-95997937D01*
X132559941Y-96035500D01*
X132559942Y-96035500D01*
X132800058Y-96035500D01*
X132800059Y-96035500D01*
X133037222Y-95997937D01*
X133265589Y-95923736D01*
X133479536Y-95814724D01*
X133673796Y-95673586D01*
X133843586Y-95503796D01*
X133849680Y-95495408D01*
X133905007Y-95452742D01*
X133974621Y-95446760D01*
X134036417Y-95479363D01*
X134050318Y-95495405D01*
X134056414Y-95503796D01*
X134226204Y-95673586D01*
X134420464Y-95814724D01*
X134521543Y-95866226D01*
X134634406Y-95923734D01*
X134634408Y-95923734D01*
X134634411Y-95923736D01*
X134862778Y-95997937D01*
X135099941Y-96035500D01*
X135099942Y-96035500D01*
X135340058Y-96035500D01*
X135340059Y-96035500D01*
X135577222Y-95997937D01*
X135805589Y-95923736D01*
X136019536Y-95814724D01*
X136213796Y-95673586D01*
X136383586Y-95503796D01*
X136389680Y-95495408D01*
X136445007Y-95452742D01*
X136514621Y-95446760D01*
X136576417Y-95479363D01*
X136590318Y-95495405D01*
X136596414Y-95503796D01*
X136766204Y-95673586D01*
X136960464Y-95814724D01*
X137061543Y-95866226D01*
X137174406Y-95923734D01*
X137174408Y-95923734D01*
X137174411Y-95923736D01*
X137402778Y-95997937D01*
X137639941Y-96035500D01*
X137639942Y-96035500D01*
X137880058Y-96035500D01*
X137880059Y-96035500D01*
X138117222Y-95997937D01*
X138345589Y-95923736D01*
X138559536Y-95814724D01*
X138753796Y-95673586D01*
X138923586Y-95503796D01*
X138929680Y-95495408D01*
X138985007Y-95452742D01*
X139054621Y-95446760D01*
X139116417Y-95479363D01*
X139130318Y-95495405D01*
X139136414Y-95503796D01*
X139306204Y-95673586D01*
X139500464Y-95814724D01*
X139601543Y-95866226D01*
X139714406Y-95923734D01*
X139714408Y-95923734D01*
X139714411Y-95923736D01*
X139942778Y-95997937D01*
X140179941Y-96035500D01*
X140179942Y-96035500D01*
X140420058Y-96035500D01*
X140420059Y-96035500D01*
X140657222Y-95997937D01*
X140885589Y-95923736D01*
X141099536Y-95814724D01*
X141293796Y-95673586D01*
X141463586Y-95503796D01*
X141469680Y-95495408D01*
X141525007Y-95452742D01*
X141594621Y-95446760D01*
X141656417Y-95479363D01*
X141670318Y-95495405D01*
X141676414Y-95503796D01*
X141846204Y-95673586D01*
X142040464Y-95814724D01*
X142141543Y-95866226D01*
X142254406Y-95923734D01*
X142254408Y-95923734D01*
X142254411Y-95923736D01*
X142482778Y-95997937D01*
X142719941Y-96035500D01*
X142719942Y-96035500D01*
X142960058Y-96035500D01*
X142960059Y-96035500D01*
X143197222Y-95997937D01*
X143425589Y-95923736D01*
X143639536Y-95814724D01*
X143833796Y-95673586D01*
X144003586Y-95503796D01*
X144009680Y-95495408D01*
X144065007Y-95452742D01*
X144134621Y-95446760D01*
X144196417Y-95479363D01*
X144210318Y-95495405D01*
X144216414Y-95503796D01*
X144386204Y-95673586D01*
X144580464Y-95814724D01*
X144681543Y-95866226D01*
X144794406Y-95923734D01*
X144794408Y-95923734D01*
X144794411Y-95923736D01*
X145022778Y-95997937D01*
X145259941Y-96035500D01*
X145259942Y-96035500D01*
X145500058Y-96035500D01*
X145500059Y-96035500D01*
X145737222Y-95997937D01*
X145965589Y-95923736D01*
X146179536Y-95814724D01*
X146373796Y-95673586D01*
X146543586Y-95503796D01*
X146549680Y-95495408D01*
X146605007Y-95452742D01*
X146674621Y-95446760D01*
X146736417Y-95479363D01*
X146750318Y-95495405D01*
X146756414Y-95503796D01*
X146926204Y-95673586D01*
X147120464Y-95814724D01*
X147221543Y-95866226D01*
X147334406Y-95923734D01*
X147334408Y-95923734D01*
X147334411Y-95923736D01*
X147562778Y-95997937D01*
X147799941Y-96035500D01*
X147799942Y-96035500D01*
X148040058Y-96035500D01*
X148040059Y-96035500D01*
X148277222Y-95997937D01*
X148505589Y-95923736D01*
X148719536Y-95814724D01*
X148913796Y-95673586D01*
X149083586Y-95503796D01*
X149089680Y-95495408D01*
X149145007Y-95452742D01*
X149214621Y-95446760D01*
X149276417Y-95479363D01*
X149290318Y-95495405D01*
X149296414Y-95503796D01*
X149466204Y-95673586D01*
X149660464Y-95814724D01*
X149761543Y-95866226D01*
X149874406Y-95923734D01*
X149874408Y-95923734D01*
X149874411Y-95923736D01*
X150102778Y-95997937D01*
X150339941Y-96035500D01*
X150339942Y-96035500D01*
X150580058Y-96035500D01*
X150580059Y-96035500D01*
X150817222Y-95997937D01*
X151045589Y-95923736D01*
X151259536Y-95814724D01*
X151453796Y-95673586D01*
X151623586Y-95503796D01*
X151629680Y-95495408D01*
X151685007Y-95452742D01*
X151754621Y-95446760D01*
X151816417Y-95479363D01*
X151830318Y-95495405D01*
X151836414Y-95503796D01*
X152006204Y-95673586D01*
X152200464Y-95814724D01*
X152301543Y-95866226D01*
X152414406Y-95923734D01*
X152414408Y-95923734D01*
X152414411Y-95923736D01*
X152642778Y-95997937D01*
X152879941Y-96035500D01*
X152879942Y-96035500D01*
X153120058Y-96035500D01*
X153120059Y-96035500D01*
X153357222Y-95997937D01*
X153513651Y-95947109D01*
X153583490Y-95945115D01*
X153643323Y-95981195D01*
X153674152Y-96043895D01*
X153666188Y-96113310D01*
X153650345Y-96140526D01*
X153583057Y-96228218D01*
X153583052Y-96228226D01*
X153471595Y-96421273D01*
X153471593Y-96421277D01*
X153386293Y-96627209D01*
X153386290Y-96627219D01*
X153328597Y-96842534D01*
X153328594Y-96842547D01*
X153299501Y-97063533D01*
X153299500Y-97063549D01*
X153299500Y-97286450D01*
X153299501Y-97286466D01*
X153328594Y-97507452D01*
X153328595Y-97507457D01*
X153328596Y-97507463D01*
X153328597Y-97507465D01*
X153386290Y-97722780D01*
X153386293Y-97722790D01*
X153471593Y-97928722D01*
X153471595Y-97928726D01*
X153578564Y-98114001D01*
X153595037Y-98181899D01*
X153572185Y-98247926D01*
X153517264Y-98291117D01*
X153471177Y-98300000D01*
X111450675Y-98300000D01*
X111383636Y-98280315D01*
X111337881Y-98227511D01*
X111326675Y-98176005D01*
X111325859Y-78053499D01*
X116499500Y-78053499D01*
X116499500Y-78446500D01*
X116533751Y-78837995D01*
X116533751Y-78837999D01*
X116601991Y-79225005D01*
X116601993Y-79225015D01*
X116703707Y-79604616D01*
X116766740Y-79777798D01*
X116838124Y-79973921D01*
X117004195Y-80330062D01*
X117004207Y-80330086D01*
X117200695Y-80670412D01*
X117200704Y-80670427D01*
X117426115Y-80992347D01*
X117548789Y-81138543D01*
X117678722Y-81293391D01*
X117956609Y-81571278D01*
X118063738Y-81661170D01*
X118257652Y-81823884D01*
X118257658Y-81823888D01*
X118257659Y-81823889D01*
X118579579Y-82049300D01*
X118919920Y-82245796D01*
X118919934Y-82245802D01*
X118919937Y-82245804D01*
X119276078Y-82411875D01*
X119276083Y-82411876D01*
X119276092Y-82411881D01*
X119645384Y-82546293D01*
X120024985Y-82648007D01*
X120412007Y-82716249D01*
X120803502Y-82750499D01*
X120803503Y-82750500D01*
X120803504Y-82750500D01*
X121196497Y-82750500D01*
X121196497Y-82750499D01*
X121587993Y-82716249D01*
X121975015Y-82648007D01*
X122354616Y-82546293D01*
X122723908Y-82411881D01*
X123080080Y-82245796D01*
X123420421Y-82049300D01*
X123742341Y-81823889D01*
X124043391Y-81571278D01*
X124321278Y-81293391D01*
X124573889Y-80992341D01*
X124799300Y-80670421D01*
X124995796Y-80330080D01*
X125161881Y-79973908D01*
X125296293Y-79604616D01*
X125398007Y-79225015D01*
X125466249Y-78837993D01*
X125500500Y-78446496D01*
X125500500Y-78053504D01*
X125466249Y-77662007D01*
X125398007Y-77274985D01*
X125296293Y-76895384D01*
X125161881Y-76526092D01*
X125161876Y-76526083D01*
X125161875Y-76526078D01*
X124995804Y-76169937D01*
X124995792Y-76169913D01*
X124948907Y-76088706D01*
X124799300Y-75829579D01*
X124573889Y-75507659D01*
X124573888Y-75507658D01*
X124573884Y-75507652D01*
X124339833Y-75228722D01*
X124321278Y-75206609D01*
X124043391Y-74928722D01*
X123898883Y-74807465D01*
X123742347Y-74676115D01*
X123435215Y-74461059D01*
X123435213Y-74461057D01*
X123420438Y-74450712D01*
X123420421Y-74450700D01*
X123269471Y-74363549D01*
X125799500Y-74363549D01*
X125799500Y-74586450D01*
X125799501Y-74586466D01*
X125828594Y-74807452D01*
X125828595Y-74807457D01*
X125828596Y-74807463D01*
X125858090Y-74917537D01*
X125886290Y-75022780D01*
X125886293Y-75022790D01*
X125971593Y-75228722D01*
X125971595Y-75228726D01*
X126083052Y-75421774D01*
X126083057Y-75421780D01*
X126083058Y-75421782D01*
X126218751Y-75598622D01*
X126218757Y-75598629D01*
X126376370Y-75756242D01*
X126376377Y-75756248D01*
X126471945Y-75829579D01*
X126553226Y-75891948D01*
X126746274Y-76003405D01*
X126952219Y-76088710D01*
X127167537Y-76146404D01*
X127388543Y-76175500D01*
X127388550Y-76175500D01*
X127611450Y-76175500D01*
X127611457Y-76175500D01*
X127832463Y-76146404D01*
X128047781Y-76088710D01*
X128253726Y-76003405D01*
X128446774Y-75891948D01*
X128623624Y-75756247D01*
X128781247Y-75598624D01*
X128916948Y-75421774D01*
X129028405Y-75228726D01*
X129065757Y-75138549D01*
X146999500Y-75138549D01*
X146999500Y-75361450D01*
X146999501Y-75361466D01*
X147028594Y-75582452D01*
X147028595Y-75582457D01*
X147028596Y-75582463D01*
X147086290Y-75797780D01*
X147086293Y-75797790D01*
X147171462Y-76003405D01*
X147171595Y-76003726D01*
X147283052Y-76196774D01*
X147283057Y-76196780D01*
X147283058Y-76196782D01*
X147418751Y-76373622D01*
X147418757Y-76373629D01*
X147576370Y-76531242D01*
X147576377Y-76531248D01*
X147733254Y-76651624D01*
X147774457Y-76708052D01*
X147778612Y-76777798D01*
X147744400Y-76838718D01*
X147733254Y-76848376D01*
X147576377Y-76968751D01*
X147576370Y-76968757D01*
X147418757Y-77126370D01*
X147418751Y-77126377D01*
X147283058Y-77303217D01*
X147283052Y-77303226D01*
X147171595Y-77496273D01*
X147171593Y-77496277D01*
X147086293Y-77702209D01*
X147086290Y-77702219D01*
X147028597Y-77917534D01*
X147028594Y-77917547D01*
X147001464Y-78123622D01*
X146999501Y-78138540D01*
X146999500Y-78138549D01*
X146999500Y-78361450D01*
X146999501Y-78361466D01*
X147028594Y-78582452D01*
X147028595Y-78582457D01*
X147028596Y-78582463D01*
X147079594Y-78772790D01*
X147086290Y-78797780D01*
X147086293Y-78797790D01*
X147171593Y-79003722D01*
X147171595Y-79003726D01*
X147283052Y-79196774D01*
X147283057Y-79196780D01*
X147283058Y-79196782D01*
X147418751Y-79373622D01*
X147418757Y-79373629D01*
X147576370Y-79531242D01*
X147576377Y-79531248D01*
X147733254Y-79651624D01*
X147774457Y-79708052D01*
X147778612Y-79777798D01*
X147744400Y-79838718D01*
X147733254Y-79848376D01*
X147576377Y-79968751D01*
X147576370Y-79968757D01*
X147418757Y-80126370D01*
X147418751Y-80126377D01*
X147283058Y-80303217D01*
X147283052Y-80303226D01*
X147171595Y-80496273D01*
X147171593Y-80496277D01*
X147086293Y-80702209D01*
X147086290Y-80702219D01*
X147028597Y-80917534D01*
X147028594Y-80917547D01*
X146999501Y-81138533D01*
X146999500Y-81138549D01*
X146999500Y-81361450D01*
X146999501Y-81361466D01*
X147028594Y-81582452D01*
X147028595Y-81582457D01*
X147028596Y-81582463D01*
X147028597Y-81582465D01*
X147086290Y-81797780D01*
X147086293Y-81797790D01*
X147097102Y-81823884D01*
X147171595Y-82003726D01*
X147283052Y-82196774D01*
X147283057Y-82196780D01*
X147283058Y-82196782D01*
X147418751Y-82373622D01*
X147418757Y-82373629D01*
X147576370Y-82531242D01*
X147576376Y-82531247D01*
X147753226Y-82666948D01*
X147946274Y-82778405D01*
X148152219Y-82863710D01*
X148367537Y-82921404D01*
X148588543Y-82950500D01*
X148588550Y-82950500D01*
X148811450Y-82950500D01*
X148811457Y-82950500D01*
X149032463Y-82921404D01*
X149247781Y-82863710D01*
X149453726Y-82778405D01*
X149646774Y-82666948D01*
X149823624Y-82531247D01*
X149981247Y-82373624D01*
X150116948Y-82196774D01*
X150228405Y-82003726D01*
X150313710Y-81797781D01*
X150371404Y-81582463D01*
X150400500Y-81361457D01*
X150400500Y-81138543D01*
X150371404Y-80917537D01*
X150313710Y-80702219D01*
X150300946Y-80671405D01*
X150241714Y-80528405D01*
X150228405Y-80496274D01*
X150116948Y-80303226D01*
X149981247Y-80126376D01*
X149981242Y-80126370D01*
X149823629Y-79968757D01*
X149823622Y-79968751D01*
X149666745Y-79848376D01*
X149625542Y-79791948D01*
X149621387Y-79722202D01*
X149655599Y-79661282D01*
X149666745Y-79651624D01*
X149728007Y-79604616D01*
X149823624Y-79531247D01*
X149981247Y-79373624D01*
X150116948Y-79196774D01*
X150228405Y-79003726D01*
X150313710Y-78797781D01*
X150371404Y-78582463D01*
X150400500Y-78361457D01*
X150400500Y-78138543D01*
X150397209Y-78113549D01*
X161899500Y-78113549D01*
X161899500Y-78336450D01*
X161899501Y-78336466D01*
X161928594Y-78557452D01*
X161928595Y-78557457D01*
X161928596Y-78557463D01*
X161981865Y-78756266D01*
X161986290Y-78772780D01*
X161986293Y-78772790D01*
X162071593Y-78978722D01*
X162071595Y-78978726D01*
X162183052Y-79171774D01*
X162183057Y-79171780D01*
X162183058Y-79171782D01*
X162318751Y-79348622D01*
X162318757Y-79348629D01*
X162476370Y-79506242D01*
X162476376Y-79506247D01*
X162653226Y-79641948D01*
X162846274Y-79753405D01*
X163052219Y-79838710D01*
X163267537Y-79896404D01*
X163488543Y-79925500D01*
X163488550Y-79925500D01*
X163711450Y-79925500D01*
X163711457Y-79925500D01*
X163932463Y-79896404D01*
X164147781Y-79838710D01*
X164353726Y-79753405D01*
X164546774Y-79641948D01*
X164723624Y-79506247D01*
X164881247Y-79348624D01*
X165016948Y-79171774D01*
X165128405Y-78978726D01*
X165213710Y-78772781D01*
X165271404Y-78557463D01*
X165300500Y-78336457D01*
X165300500Y-78113543D01*
X165271404Y-77892537D01*
X165213710Y-77677219D01*
X165128405Y-77471274D01*
X165016948Y-77278226D01*
X164900430Y-77126376D01*
X164881248Y-77101377D01*
X164881242Y-77101370D01*
X164723629Y-76943757D01*
X164723622Y-76943751D01*
X164546782Y-76808058D01*
X164546780Y-76808057D01*
X164546774Y-76808052D01*
X164353726Y-76696595D01*
X164353722Y-76696593D01*
X164147790Y-76611293D01*
X164147783Y-76611291D01*
X164147781Y-76611290D01*
X163932463Y-76553596D01*
X163932457Y-76553595D01*
X163932452Y-76553594D01*
X163711466Y-76524501D01*
X163711463Y-76524500D01*
X163711457Y-76524500D01*
X163488543Y-76524500D01*
X163488537Y-76524500D01*
X163488533Y-76524501D01*
X163267547Y-76553594D01*
X163267540Y-76553595D01*
X163267537Y-76553596D01*
X163121852Y-76592632D01*
X163052219Y-76611290D01*
X163052209Y-76611293D01*
X162846277Y-76696593D01*
X162846273Y-76696595D01*
X162653226Y-76808052D01*
X162653217Y-76808058D01*
X162476377Y-76943751D01*
X162476370Y-76943757D01*
X162318757Y-77101370D01*
X162318751Y-77101377D01*
X162183058Y-77278217D01*
X162183052Y-77278226D01*
X162071595Y-77471273D01*
X162071593Y-77471277D01*
X161986293Y-77677209D01*
X161986290Y-77677219D01*
X161928597Y-77892534D01*
X161928594Y-77892547D01*
X161899501Y-78113533D01*
X161899500Y-78113549D01*
X150397209Y-78113549D01*
X150371404Y-77917537D01*
X150313710Y-77702219D01*
X150297052Y-77662004D01*
X150264352Y-77583058D01*
X150228405Y-77496274D01*
X150116948Y-77303226D01*
X149981247Y-77126376D01*
X149981242Y-77126370D01*
X149823629Y-76968757D01*
X149823622Y-76968751D01*
X149666745Y-76848376D01*
X149625542Y-76791948D01*
X149621387Y-76722202D01*
X149655599Y-76661282D01*
X149666745Y-76651624D01*
X149709366Y-76618919D01*
X149823624Y-76531247D01*
X149981247Y-76373624D01*
X150116948Y-76196774D01*
X150228405Y-76003726D01*
X150313710Y-75797781D01*
X150371404Y-75582463D01*
X150400500Y-75361457D01*
X150400500Y-75138543D01*
X150371404Y-74917537D01*
X150363637Y-74888549D01*
X163899500Y-74888549D01*
X163899500Y-75111450D01*
X163899501Y-75111466D01*
X163928594Y-75332452D01*
X163928595Y-75332457D01*
X163928596Y-75332463D01*
X163986290Y-75547780D01*
X163986293Y-75547790D01*
X164057110Y-75718757D01*
X164071595Y-75753726D01*
X164183052Y-75946774D01*
X164183057Y-75946780D01*
X164183058Y-75946782D01*
X164318751Y-76123622D01*
X164318757Y-76123629D01*
X164476370Y-76281242D01*
X164476376Y-76281247D01*
X164653226Y-76416948D01*
X164846274Y-76528405D01*
X164853138Y-76531248D01*
X165046376Y-76611290D01*
X165052219Y-76613710D01*
X165267537Y-76671404D01*
X165488543Y-76700500D01*
X165488550Y-76700500D01*
X165711450Y-76700500D01*
X165711457Y-76700500D01*
X165932463Y-76671404D01*
X166007816Y-76651213D01*
X166077662Y-76652876D01*
X166135524Y-76692038D01*
X166163029Y-76756266D01*
X166162845Y-76787173D01*
X166149501Y-76888532D01*
X166149500Y-76888549D01*
X166149500Y-77111450D01*
X166149501Y-77111466D01*
X166178594Y-77332452D01*
X166178595Y-77332457D01*
X166178596Y-77332463D01*
X166215790Y-77471273D01*
X166236290Y-77547780D01*
X166236293Y-77547790D01*
X166307110Y-77718757D01*
X166321595Y-77753726D01*
X166433052Y-77946774D01*
X166433057Y-77946780D01*
X166433058Y-77946782D01*
X166568751Y-78123622D01*
X166568757Y-78123629D01*
X166726370Y-78281242D01*
X166726376Y-78281247D01*
X166903226Y-78416948D01*
X167096274Y-78528405D01*
X167302219Y-78613710D01*
X167517537Y-78671404D01*
X167738543Y-78700500D01*
X167738550Y-78700500D01*
X167961450Y-78700500D01*
X167961457Y-78700500D01*
X168182463Y-78671404D01*
X168257816Y-78651213D01*
X168327662Y-78652876D01*
X168385524Y-78692038D01*
X168413029Y-78756266D01*
X168412845Y-78787173D01*
X168399501Y-78888532D01*
X168399500Y-78888549D01*
X168399500Y-79111450D01*
X168399501Y-79111466D01*
X168428594Y-79332452D01*
X168428595Y-79332457D01*
X168428596Y-79332463D01*
X168481860Y-79531247D01*
X168486290Y-79547780D01*
X168486293Y-79547790D01*
X168571462Y-79753405D01*
X168571595Y-79753726D01*
X168683052Y-79946774D01*
X168683057Y-79946780D01*
X168683058Y-79946782D01*
X168818751Y-80123622D01*
X168818757Y-80123629D01*
X168976370Y-80281242D01*
X168976377Y-80281248D01*
X169102294Y-80377867D01*
X169153226Y-80416948D01*
X169346274Y-80528405D01*
X169552219Y-80613710D01*
X169767537Y-80671404D01*
X169988543Y-80700500D01*
X169988550Y-80700500D01*
X170211450Y-80700500D01*
X170211457Y-80700500D01*
X170432463Y-80671404D01*
X170647781Y-80613710D01*
X170853726Y-80528405D01*
X171046774Y-80416948D01*
X171223624Y-80281247D01*
X171381247Y-80123624D01*
X171516948Y-79946774D01*
X171628405Y-79753726D01*
X171713710Y-79547781D01*
X171771404Y-79332463D01*
X171800500Y-79111457D01*
X171800500Y-78888543D01*
X171771404Y-78667537D01*
X171713710Y-78452219D01*
X171711339Y-78446496D01*
X171665757Y-78336450D01*
X171628405Y-78246274D01*
X171517106Y-78053499D01*
X174499500Y-78053499D01*
X174499500Y-78446500D01*
X174533751Y-78837995D01*
X174533751Y-78837999D01*
X174601991Y-79225005D01*
X174601993Y-79225015D01*
X174703707Y-79604616D01*
X174766740Y-79777798D01*
X174838124Y-79973921D01*
X175004195Y-80330062D01*
X175004207Y-80330086D01*
X175200695Y-80670412D01*
X175200704Y-80670427D01*
X175426115Y-80992347D01*
X175548789Y-81138543D01*
X175678722Y-81293391D01*
X175956609Y-81571278D01*
X176063738Y-81661170D01*
X176257652Y-81823884D01*
X176257658Y-81823888D01*
X176257659Y-81823889D01*
X176579579Y-82049300D01*
X176919920Y-82245796D01*
X176919934Y-82245802D01*
X176919937Y-82245804D01*
X177276078Y-82411875D01*
X177276083Y-82411876D01*
X177276092Y-82411881D01*
X177645384Y-82546293D01*
X178024985Y-82648007D01*
X178412007Y-82716249D01*
X178803502Y-82750499D01*
X178803503Y-82750500D01*
X178803504Y-82750500D01*
X179196497Y-82750500D01*
X179196497Y-82750499D01*
X179587993Y-82716249D01*
X179975015Y-82648007D01*
X180354616Y-82546293D01*
X180723908Y-82411881D01*
X181080080Y-82245796D01*
X181420421Y-82049300D01*
X181742341Y-81823889D01*
X182043391Y-81571278D01*
X182321278Y-81293391D01*
X182573889Y-80992341D01*
X182799300Y-80670421D01*
X182995796Y-80330080D01*
X183161881Y-79973908D01*
X183296293Y-79604616D01*
X183398007Y-79225015D01*
X183466249Y-78837993D01*
X183500500Y-78446496D01*
X183500500Y-78053504D01*
X183466249Y-77662007D01*
X183398007Y-77274985D01*
X183296293Y-76895384D01*
X183161881Y-76526092D01*
X183161876Y-76526083D01*
X183161875Y-76526078D01*
X182995804Y-76169937D01*
X182995792Y-76169913D01*
X182948907Y-76088706D01*
X182799300Y-75829579D01*
X182573889Y-75507659D01*
X182573888Y-75507658D01*
X182573884Y-75507652D01*
X182339833Y-75228722D01*
X182321278Y-75206609D01*
X182043391Y-74928722D01*
X181898883Y-74807465D01*
X181742347Y-74676115D01*
X181420427Y-74450704D01*
X181420424Y-74450702D01*
X181420421Y-74450700D01*
X181269461Y-74363543D01*
X181080086Y-74254207D01*
X181080062Y-74254195D01*
X180723921Y-74088124D01*
X180723910Y-74088120D01*
X180723908Y-74088119D01*
X180354616Y-73953707D01*
X180066017Y-73876377D01*
X179975016Y-73851993D01*
X179975005Y-73851991D01*
X179587997Y-73783751D01*
X179196500Y-73749500D01*
X179196496Y-73749500D01*
X178803504Y-73749500D01*
X178803499Y-73749500D01*
X178412004Y-73783751D01*
X178412000Y-73783751D01*
X178024994Y-73851991D01*
X178024983Y-73851993D01*
X177821555Y-73906502D01*
X177645384Y-73953707D01*
X177645381Y-73953708D01*
X177645380Y-73953708D01*
X177276078Y-74088124D01*
X176919937Y-74254195D01*
X176919913Y-74254207D01*
X176579587Y-74450695D01*
X176579572Y-74450704D01*
X176257652Y-74676115D01*
X175956606Y-74928724D01*
X175678724Y-75206606D01*
X175426115Y-75507652D01*
X175200704Y-75829572D01*
X175200695Y-75829587D01*
X175004207Y-76169913D01*
X175004195Y-76169937D01*
X174838124Y-76526078D01*
X174706195Y-76888549D01*
X174703707Y-76895384D01*
X174684048Y-76968753D01*
X174601993Y-77274983D01*
X174601991Y-77274994D01*
X174533751Y-77662000D01*
X174533751Y-77662004D01*
X174499500Y-78053499D01*
X171517106Y-78053499D01*
X171516952Y-78053232D01*
X171516941Y-78053217D01*
X171381248Y-77876377D01*
X171381242Y-77876370D01*
X171223629Y-77718757D01*
X171223622Y-77718751D01*
X171046782Y-77583058D01*
X171046780Y-77583057D01*
X171046774Y-77583052D01*
X170853726Y-77471595D01*
X170853722Y-77471593D01*
X170647790Y-77386293D01*
X170647783Y-77386291D01*
X170647781Y-77386290D01*
X170432463Y-77328596D01*
X170432457Y-77328595D01*
X170432452Y-77328594D01*
X170211466Y-77299501D01*
X170211463Y-77299500D01*
X170211457Y-77299500D01*
X169988543Y-77299500D01*
X169988537Y-77299500D01*
X169988533Y-77299501D01*
X169767547Y-77328594D01*
X169767540Y-77328595D01*
X169767537Y-77328596D01*
X169767530Y-77328598D01*
X169692185Y-77348786D01*
X169622335Y-77347123D01*
X169564473Y-77307960D01*
X169536970Y-77243731D01*
X169537153Y-77212830D01*
X169550500Y-77111457D01*
X169550500Y-76888543D01*
X169521404Y-76667537D01*
X169463710Y-76452219D01*
X169378405Y-76246274D01*
X169266948Y-76053226D01*
X169143195Y-75891947D01*
X169131248Y-75876377D01*
X169131242Y-75876370D01*
X168973629Y-75718757D01*
X168973622Y-75718751D01*
X168796782Y-75583058D01*
X168796780Y-75583057D01*
X168796774Y-75583052D01*
X168603726Y-75471595D01*
X168603722Y-75471593D01*
X168397790Y-75386293D01*
X168397783Y-75386291D01*
X168397781Y-75386290D01*
X168182463Y-75328596D01*
X168182457Y-75328595D01*
X168182452Y-75328594D01*
X167961466Y-75299501D01*
X167961463Y-75299500D01*
X167961457Y-75299500D01*
X167738543Y-75299500D01*
X167738537Y-75299500D01*
X167738533Y-75299501D01*
X167517547Y-75328594D01*
X167517540Y-75328595D01*
X167517537Y-75328596D01*
X167517530Y-75328598D01*
X167442185Y-75348786D01*
X167372335Y-75347123D01*
X167314473Y-75307960D01*
X167286970Y-75243731D01*
X167287153Y-75212830D01*
X167300500Y-75111457D01*
X167300500Y-74888543D01*
X167271404Y-74667537D01*
X167213710Y-74452219D01*
X167213082Y-74450704D01*
X167151995Y-74303226D01*
X167128405Y-74246274D01*
X167016948Y-74053226D01*
X166881247Y-73876376D01*
X166881242Y-73876370D01*
X166723629Y-73718757D01*
X166723622Y-73718751D01*
X166546782Y-73583058D01*
X166546780Y-73583057D01*
X166546774Y-73583052D01*
X166353726Y-73471595D01*
X166353722Y-73471593D01*
X166147790Y-73386293D01*
X166147783Y-73386291D01*
X166147781Y-73386290D01*
X165932463Y-73328596D01*
X165932457Y-73328595D01*
X165932452Y-73328594D01*
X165711466Y-73299501D01*
X165711463Y-73299500D01*
X165711457Y-73299500D01*
X165488543Y-73299500D01*
X165488537Y-73299500D01*
X165488533Y-73299501D01*
X165267547Y-73328594D01*
X165267540Y-73328595D01*
X165267537Y-73328596D01*
X165182517Y-73351377D01*
X165052219Y-73386290D01*
X165052209Y-73386293D01*
X164846277Y-73471593D01*
X164846273Y-73471595D01*
X164653226Y-73583052D01*
X164653217Y-73583058D01*
X164476377Y-73718751D01*
X164476370Y-73718757D01*
X164318757Y-73876370D01*
X164318751Y-73876377D01*
X164183058Y-74053217D01*
X164183052Y-74053226D01*
X164071595Y-74246273D01*
X164071593Y-74246277D01*
X163986293Y-74452209D01*
X163986290Y-74452219D01*
X163928597Y-74667534D01*
X163928594Y-74667547D01*
X163899501Y-74888533D01*
X163899500Y-74888549D01*
X150363637Y-74888549D01*
X150313710Y-74702219D01*
X150299348Y-74667547D01*
X150228406Y-74496277D01*
X150228405Y-74496274D01*
X150116948Y-74303226D01*
X150073247Y-74246273D01*
X149981248Y-74126377D01*
X149981242Y-74126370D01*
X149823629Y-73968757D01*
X149823622Y-73968751D01*
X149646782Y-73833058D01*
X149646780Y-73833057D01*
X149646774Y-73833052D01*
X149453726Y-73721595D01*
X149453722Y-73721593D01*
X149247790Y-73636293D01*
X149247783Y-73636291D01*
X149247781Y-73636290D01*
X149032463Y-73578596D01*
X149032457Y-73578595D01*
X149032452Y-73578594D01*
X148811466Y-73549501D01*
X148811463Y-73549500D01*
X148811457Y-73549500D01*
X148588543Y-73549500D01*
X148588537Y-73549500D01*
X148588533Y-73549501D01*
X148367547Y-73578594D01*
X148367540Y-73578595D01*
X148367537Y-73578596D01*
X148350885Y-73583058D01*
X148152219Y-73636290D01*
X148152209Y-73636293D01*
X147946277Y-73721593D01*
X147946273Y-73721595D01*
X147753226Y-73833052D01*
X147753217Y-73833058D01*
X147576377Y-73968751D01*
X147576370Y-73968757D01*
X147418757Y-74126370D01*
X147418751Y-74126377D01*
X147283058Y-74303217D01*
X147283052Y-74303226D01*
X147171595Y-74496273D01*
X147171593Y-74496277D01*
X147086293Y-74702209D01*
X147086290Y-74702219D01*
X147028597Y-74917534D01*
X147028594Y-74917547D01*
X146999501Y-75138533D01*
X146999500Y-75138549D01*
X129065757Y-75138549D01*
X129113710Y-75022781D01*
X129171404Y-74807463D01*
X129200500Y-74586457D01*
X129200500Y-74363543D01*
X129171404Y-74142537D01*
X129113710Y-73927219D01*
X129028405Y-73721274D01*
X128916948Y-73528226D01*
X128781247Y-73351376D01*
X128781242Y-73351370D01*
X128623629Y-73193757D01*
X128623622Y-73193751D01*
X128446782Y-73058058D01*
X128446780Y-73058057D01*
X128446774Y-73058052D01*
X128446766Y-73058047D01*
X128446761Y-73058044D01*
X128380131Y-73019574D01*
X128379483Y-73018895D01*
X128378573Y-73018660D01*
X128355401Y-72993638D01*
X128331916Y-72969007D01*
X128331738Y-72968085D01*
X128331099Y-72967395D01*
X128325136Y-72933826D01*
X128318694Y-72900399D01*
X128319043Y-72899526D01*
X128318879Y-72898602D01*
X128331987Y-72867193D01*
X128333863Y-72862507D01*
X129474597Y-72862507D01*
X129554604Y-72903272D01*
X129782894Y-72977450D01*
X130019975Y-73015000D01*
X130260025Y-73015000D01*
X130497105Y-72977450D01*
X130725398Y-72903271D01*
X130725402Y-72903270D01*
X130805401Y-72862507D01*
X132014597Y-72862507D01*
X132094604Y-72903272D01*
X132322894Y-72977450D01*
X132559975Y-73015000D01*
X132800025Y-73015000D01*
X133037105Y-72977450D01*
X133265398Y-72903271D01*
X133265402Y-72903270D01*
X133345401Y-72862507D01*
X134554597Y-72862507D01*
X134634604Y-72903272D01*
X134862894Y-72977450D01*
X135099975Y-73015000D01*
X135340025Y-73015000D01*
X135577105Y-72977450D01*
X135805398Y-72903271D01*
X135805402Y-72903270D01*
X135885401Y-72862507D01*
X135220001Y-72197106D01*
X135220000Y-72197106D01*
X134554597Y-72862507D01*
X133345401Y-72862507D01*
X132680001Y-72197106D01*
X132680000Y-72197106D01*
X132014597Y-72862507D01*
X130805401Y-72862507D01*
X130140001Y-72197106D01*
X130140000Y-72197106D01*
X129474597Y-72862507D01*
X128333863Y-72862507D01*
X128344662Y-72835535D01*
X128345548Y-72834702D01*
X128345790Y-72834123D01*
X128348495Y-72831932D01*
X128371686Y-72810142D01*
X128378475Y-72805455D01*
X128399536Y-72794724D01*
X128593796Y-72653586D01*
X128763586Y-72483796D01*
X128904724Y-72289536D01*
X129013736Y-72075589D01*
X129084642Y-71857361D01*
X129114891Y-71808001D01*
X129432893Y-71490000D01*
X129432893Y-71489999D01*
X129360485Y-71417591D01*
X129590000Y-71417591D01*
X129590000Y-71562409D01*
X129627482Y-71702292D01*
X129699890Y-71827708D01*
X129802292Y-71930110D01*
X129927708Y-72002518D01*
X130067591Y-72040000D01*
X130212409Y-72040000D01*
X130352292Y-72002518D01*
X130477708Y-71930110D01*
X130580110Y-71827708D01*
X130652518Y-71702292D01*
X130690000Y-71562409D01*
X130690000Y-71490000D01*
X130847106Y-71490000D01*
X131410000Y-72052893D01*
X131410001Y-72052893D01*
X131972893Y-71490001D01*
X131972893Y-71489999D01*
X131900485Y-71417591D01*
X132130000Y-71417591D01*
X132130000Y-71562409D01*
X132167482Y-71702292D01*
X132239890Y-71827708D01*
X132342292Y-71930110D01*
X132467708Y-72002518D01*
X132607591Y-72040000D01*
X132752409Y-72040000D01*
X132892292Y-72002518D01*
X133017708Y-71930110D01*
X133120110Y-71827708D01*
X133192518Y-71702292D01*
X133230000Y-71562409D01*
X133230000Y-71490000D01*
X133387106Y-71490000D01*
X133950000Y-72052893D01*
X133950001Y-72052893D01*
X134512893Y-71490001D01*
X134512893Y-71489999D01*
X134440485Y-71417591D01*
X134670000Y-71417591D01*
X134670000Y-71562409D01*
X134707482Y-71702292D01*
X134779890Y-71827708D01*
X134882292Y-71930110D01*
X135007708Y-72002518D01*
X135147591Y-72040000D01*
X135292409Y-72040000D01*
X135432292Y-72002518D01*
X135557708Y-71930110D01*
X135660110Y-71827708D01*
X135732518Y-71702292D01*
X135770000Y-71562409D01*
X135770000Y-71489999D01*
X135927106Y-71489999D01*
X135927106Y-71490000D01*
X136245109Y-71808003D01*
X136275358Y-71857364D01*
X136346264Y-72075589D01*
X136455276Y-72289536D01*
X136596414Y-72483796D01*
X136766204Y-72653586D01*
X136960464Y-72794724D01*
X137038925Y-72834702D01*
X137174406Y-72903734D01*
X137174408Y-72903734D01*
X137174411Y-72903736D01*
X137402778Y-72977937D01*
X137639941Y-73015500D01*
X137639942Y-73015500D01*
X137880058Y-73015500D01*
X137880059Y-73015500D01*
X138117222Y-72977937D01*
X138345589Y-72903736D01*
X138559536Y-72794724D01*
X138753796Y-72653586D01*
X138923586Y-72483796D01*
X138929680Y-72475408D01*
X138985007Y-72432742D01*
X139054621Y-72426760D01*
X139116417Y-72459363D01*
X139130318Y-72475405D01*
X139136414Y-72483796D01*
X139306204Y-72653586D01*
X139500464Y-72794724D01*
X139578925Y-72834702D01*
X139714406Y-72903734D01*
X139714408Y-72903734D01*
X139714411Y-72903736D01*
X139942778Y-72977937D01*
X140179941Y-73015500D01*
X140179942Y-73015500D01*
X140420058Y-73015500D01*
X140420059Y-73015500D01*
X140657222Y-72977937D01*
X140885589Y-72903736D01*
X141099536Y-72794724D01*
X141293796Y-72653586D01*
X141463586Y-72483796D01*
X141469680Y-72475408D01*
X141525007Y-72432742D01*
X141594621Y-72426760D01*
X141656417Y-72459363D01*
X141670318Y-72475405D01*
X141676414Y-72483796D01*
X141846204Y-72653586D01*
X142040464Y-72794724D01*
X142118925Y-72834702D01*
X142254406Y-72903734D01*
X142254408Y-72903734D01*
X142254411Y-72903736D01*
X142482778Y-72977937D01*
X142719941Y-73015500D01*
X142719942Y-73015500D01*
X142960058Y-73015500D01*
X142960059Y-73015500D01*
X143197222Y-72977937D01*
X143425589Y-72903736D01*
X143639536Y-72794724D01*
X143833796Y-72653586D01*
X144003586Y-72483796D01*
X144009680Y-72475408D01*
X144065007Y-72432742D01*
X144134621Y-72426760D01*
X144196417Y-72459363D01*
X144210318Y-72475405D01*
X144216414Y-72483796D01*
X144386204Y-72653586D01*
X144580464Y-72794724D01*
X144658925Y-72834702D01*
X144794406Y-72903734D01*
X144794408Y-72903734D01*
X144794411Y-72903736D01*
X145022778Y-72977937D01*
X145259941Y-73015500D01*
X145259942Y-73015500D01*
X145500058Y-73015500D01*
X145500059Y-73015500D01*
X145737222Y-72977937D01*
X145965589Y-72903736D01*
X146179536Y-72794724D01*
X146373796Y-72653586D01*
X146543586Y-72483796D01*
X146549680Y-72475408D01*
X146605007Y-72432742D01*
X146674621Y-72426760D01*
X146736417Y-72459363D01*
X146750318Y-72475405D01*
X146756414Y-72483796D01*
X146926204Y-72653586D01*
X147120464Y-72794724D01*
X147198925Y-72834702D01*
X147334406Y-72903734D01*
X147334408Y-72903734D01*
X147334411Y-72903736D01*
X147562778Y-72977937D01*
X147799941Y-73015500D01*
X147799942Y-73015500D01*
X148040058Y-73015500D01*
X148040059Y-73015500D01*
X148277222Y-72977937D01*
X148505589Y-72903736D01*
X148719536Y-72794724D01*
X148913796Y-72653586D01*
X149083586Y-72483796D01*
X149089680Y-72475408D01*
X149145007Y-72432742D01*
X149214621Y-72426760D01*
X149276417Y-72459363D01*
X149290318Y-72475405D01*
X149296414Y-72483796D01*
X149466204Y-72653586D01*
X149660464Y-72794724D01*
X149738925Y-72834702D01*
X149874406Y-72903734D01*
X149874408Y-72903734D01*
X149874411Y-72903736D01*
X150102778Y-72977937D01*
X150339941Y-73015500D01*
X150339942Y-73015500D01*
X150580058Y-73015500D01*
X150580059Y-73015500D01*
X150817222Y-72977937D01*
X151045589Y-72903736D01*
X151259536Y-72794724D01*
X151453796Y-72653586D01*
X151623586Y-72483796D01*
X151629680Y-72475408D01*
X151685007Y-72432742D01*
X151754621Y-72426760D01*
X151816417Y-72459363D01*
X151830318Y-72475405D01*
X151836414Y-72483796D01*
X152006204Y-72653586D01*
X152200464Y-72794724D01*
X152278925Y-72834702D01*
X152414406Y-72903734D01*
X152414408Y-72903734D01*
X152414411Y-72903736D01*
X152642778Y-72977937D01*
X152879941Y-73015500D01*
X152879942Y-73015500D01*
X153120058Y-73015500D01*
X153120059Y-73015500D01*
X153357222Y-72977937D01*
X153585589Y-72903736D01*
X153799536Y-72794724D01*
X153993796Y-72653586D01*
X154163586Y-72483796D01*
X154169680Y-72475408D01*
X154225007Y-72432742D01*
X154294621Y-72426760D01*
X154356417Y-72459363D01*
X154370318Y-72475405D01*
X154376414Y-72483796D01*
X154546204Y-72653586D01*
X154740464Y-72794724D01*
X154818925Y-72834702D01*
X154954406Y-72903734D01*
X154954408Y-72903734D01*
X154954411Y-72903736D01*
X155182778Y-72977937D01*
X155419941Y-73015500D01*
X155419942Y-73015500D01*
X155660058Y-73015500D01*
X155660059Y-73015500D01*
X155897222Y-72977937D01*
X156125589Y-72903736D01*
X156339536Y-72794724D01*
X156533796Y-72653586D01*
X156703586Y-72483796D01*
X156709680Y-72475408D01*
X156765007Y-72432742D01*
X156834621Y-72426760D01*
X156896417Y-72459363D01*
X156910318Y-72475405D01*
X156916414Y-72483796D01*
X157086204Y-72653586D01*
X157280464Y-72794724D01*
X157358925Y-72834702D01*
X157494406Y-72903734D01*
X157494408Y-72903734D01*
X157494411Y-72903736D01*
X157722778Y-72977937D01*
X157959941Y-73015500D01*
X157959942Y-73015500D01*
X158200058Y-73015500D01*
X158200059Y-73015500D01*
X158437222Y-72977937D01*
X158665589Y-72903736D01*
X158879536Y-72794724D01*
X159073796Y-72653586D01*
X159243586Y-72483796D01*
X159249680Y-72475408D01*
X159305007Y-72432742D01*
X159374621Y-72426760D01*
X159436417Y-72459363D01*
X159450318Y-72475405D01*
X159456414Y-72483796D01*
X159626204Y-72653586D01*
X159820464Y-72794724D01*
X159898925Y-72834702D01*
X160034406Y-72903734D01*
X160034408Y-72903734D01*
X160034411Y-72903736D01*
X160262778Y-72977937D01*
X160499941Y-73015500D01*
X160499942Y-73015500D01*
X160740058Y-73015500D01*
X160740059Y-73015500D01*
X160977222Y-72977937D01*
X161205589Y-72903736D01*
X161419536Y-72794724D01*
X161613796Y-72653586D01*
X161783586Y-72483796D01*
X161789680Y-72475408D01*
X161845007Y-72432742D01*
X161914621Y-72426760D01*
X161976417Y-72459363D01*
X161990318Y-72475405D01*
X161996414Y-72483796D01*
X162166204Y-72653586D01*
X162360464Y-72794724D01*
X162438925Y-72834702D01*
X162574406Y-72903734D01*
X162574408Y-72903734D01*
X162574411Y-72903736D01*
X162802778Y-72977937D01*
X163039941Y-73015500D01*
X163039942Y-73015500D01*
X163280058Y-73015500D01*
X163280059Y-73015500D01*
X163517222Y-72977937D01*
X163745589Y-72903736D01*
X163959536Y-72794724D01*
X164153796Y-72653586D01*
X164323586Y-72483796D01*
X164329680Y-72475408D01*
X164385007Y-72432742D01*
X164454621Y-72426760D01*
X164516417Y-72459363D01*
X164530318Y-72475405D01*
X164536414Y-72483796D01*
X164706204Y-72653586D01*
X164900464Y-72794724D01*
X164978925Y-72834702D01*
X165114406Y-72903734D01*
X165114408Y-72903734D01*
X165114411Y-72903736D01*
X165342778Y-72977937D01*
X165579941Y-73015500D01*
X165579942Y-73015500D01*
X165820058Y-73015500D01*
X165820059Y-73015500D01*
X166057222Y-72977937D01*
X166285589Y-72903736D01*
X166499536Y-72794724D01*
X166693796Y-72653586D01*
X166863586Y-72483796D01*
X166869680Y-72475408D01*
X166925007Y-72432742D01*
X166994621Y-72426760D01*
X167056417Y-72459363D01*
X167070318Y-72475405D01*
X167076414Y-72483796D01*
X167246204Y-72653586D01*
X167440464Y-72794724D01*
X167518925Y-72834702D01*
X167654406Y-72903734D01*
X167654408Y-72903734D01*
X167654411Y-72903736D01*
X167882778Y-72977937D01*
X168119941Y-73015500D01*
X168119942Y-73015500D01*
X168360058Y-73015500D01*
X168360059Y-73015500D01*
X168597222Y-72977937D01*
X168825589Y-72903736D01*
X169039536Y-72794724D01*
X169233796Y-72653586D01*
X169403586Y-72483796D01*
X169409680Y-72475408D01*
X169465007Y-72432742D01*
X169534621Y-72426760D01*
X169596417Y-72459363D01*
X169610318Y-72475405D01*
X169616414Y-72483796D01*
X169786204Y-72653586D01*
X169980464Y-72794724D01*
X170058925Y-72834702D01*
X170194406Y-72903734D01*
X170194408Y-72903734D01*
X170194411Y-72903736D01*
X170422778Y-72977937D01*
X170659941Y-73015500D01*
X170659942Y-73015500D01*
X170900058Y-73015500D01*
X170900059Y-73015500D01*
X171137222Y-72977937D01*
X171365589Y-72903736D01*
X171579536Y-72794724D01*
X171773796Y-72653586D01*
X171943586Y-72483796D01*
X172084724Y-72289536D01*
X172193736Y-72075589D01*
X172267937Y-71847222D01*
X172305500Y-71610059D01*
X172305500Y-71369941D01*
X172267937Y-71132778D01*
X172193736Y-70904411D01*
X172193734Y-70904408D01*
X172193734Y-70904406D01*
X172084723Y-70690463D01*
X171943586Y-70496204D01*
X171773796Y-70326414D01*
X171579536Y-70185276D01*
X171365593Y-70076265D01*
X171137222Y-70002063D01*
X170900059Y-69964500D01*
X170659941Y-69964500D01*
X170541359Y-69983281D01*
X170422777Y-70002063D01*
X170194406Y-70076265D01*
X169980463Y-70185276D01*
X169786201Y-70326416D01*
X169616413Y-70496204D01*
X169610317Y-70504596D01*
X169554986Y-70547261D01*
X169485373Y-70553239D01*
X169423578Y-70520632D01*
X169409683Y-70504596D01*
X169403586Y-70496204D01*
X169233798Y-70326416D01*
X169233796Y-70326414D01*
X169039536Y-70185276D01*
X168825593Y-70076265D01*
X168597222Y-70002063D01*
X168360059Y-69964500D01*
X168119941Y-69964500D01*
X168001359Y-69983281D01*
X167882777Y-70002063D01*
X167654406Y-70076265D01*
X167440463Y-70185276D01*
X167246201Y-70326416D01*
X167076413Y-70496204D01*
X167070317Y-70504596D01*
X167014986Y-70547261D01*
X166945373Y-70553239D01*
X166883578Y-70520632D01*
X166869683Y-70504596D01*
X166863586Y-70496204D01*
X166693798Y-70326416D01*
X166693796Y-70326414D01*
X166499536Y-70185276D01*
X166285593Y-70076265D01*
X166057222Y-70002063D01*
X165820059Y-69964500D01*
X165579941Y-69964500D01*
X165461359Y-69983281D01*
X165342777Y-70002063D01*
X165114406Y-70076265D01*
X164900463Y-70185276D01*
X164706201Y-70326416D01*
X164536413Y-70496204D01*
X164530317Y-70504596D01*
X164474986Y-70547261D01*
X164405373Y-70553239D01*
X164343578Y-70520632D01*
X164329683Y-70504596D01*
X164323586Y-70496204D01*
X164153798Y-70326416D01*
X164153796Y-70326414D01*
X163959536Y-70185276D01*
X163745593Y-70076265D01*
X163517222Y-70002063D01*
X163280059Y-69964500D01*
X163039941Y-69964500D01*
X162921359Y-69983281D01*
X162802777Y-70002063D01*
X162574406Y-70076265D01*
X162360463Y-70185276D01*
X162166201Y-70326416D01*
X161996413Y-70496204D01*
X161990317Y-70504596D01*
X161934986Y-70547261D01*
X161865373Y-70553239D01*
X161803578Y-70520632D01*
X161789683Y-70504596D01*
X161783586Y-70496204D01*
X161613798Y-70326416D01*
X161613796Y-70326414D01*
X161419536Y-70185276D01*
X161205593Y-70076265D01*
X160977222Y-70002063D01*
X160740059Y-69964500D01*
X160499941Y-69964500D01*
X160381359Y-69983281D01*
X160262777Y-70002063D01*
X160034406Y-70076265D01*
X159820463Y-70185276D01*
X159626201Y-70326416D01*
X159456413Y-70496204D01*
X159450317Y-70504596D01*
X159394986Y-70547261D01*
X159325373Y-70553239D01*
X159263578Y-70520632D01*
X159249683Y-70504596D01*
X159243586Y-70496204D01*
X159073798Y-70326416D01*
X159073796Y-70326414D01*
X158879536Y-70185276D01*
X158665593Y-70076265D01*
X158437222Y-70002063D01*
X158200059Y-69964500D01*
X157959941Y-69964500D01*
X157841359Y-69983281D01*
X157722777Y-70002063D01*
X157494406Y-70076265D01*
X157280463Y-70185276D01*
X157086201Y-70326416D01*
X156916413Y-70496204D01*
X156910317Y-70504596D01*
X156854986Y-70547261D01*
X156785373Y-70553239D01*
X156723578Y-70520632D01*
X156709683Y-70504596D01*
X156703586Y-70496204D01*
X156533798Y-70326416D01*
X156533796Y-70326414D01*
X156339536Y-70185276D01*
X156125593Y-70076265D01*
X155897222Y-70002063D01*
X155660059Y-69964500D01*
X155419941Y-69964500D01*
X155301359Y-69983281D01*
X155182777Y-70002063D01*
X154954406Y-70076265D01*
X154740463Y-70185276D01*
X154546201Y-70326416D01*
X154376413Y-70496204D01*
X154370317Y-70504596D01*
X154314986Y-70547261D01*
X154245373Y-70553239D01*
X154183578Y-70520632D01*
X154169683Y-70504596D01*
X154163586Y-70496204D01*
X153993798Y-70326416D01*
X153993796Y-70326414D01*
X153799536Y-70185276D01*
X153585593Y-70076265D01*
X153357222Y-70002063D01*
X153120059Y-69964500D01*
X152879941Y-69964500D01*
X152761359Y-69983281D01*
X152642777Y-70002063D01*
X152414406Y-70076265D01*
X152200463Y-70185276D01*
X152006201Y-70326416D01*
X151836413Y-70496204D01*
X151830317Y-70504596D01*
X151774986Y-70547261D01*
X151705373Y-70553239D01*
X151643578Y-70520632D01*
X151629683Y-70504596D01*
X151623586Y-70496204D01*
X151453798Y-70326416D01*
X151453796Y-70326414D01*
X151259536Y-70185276D01*
X151045593Y-70076265D01*
X150817222Y-70002063D01*
X150580059Y-69964500D01*
X150339941Y-69964500D01*
X150221359Y-69983281D01*
X150102777Y-70002063D01*
X149874406Y-70076265D01*
X149660463Y-70185276D01*
X149466201Y-70326416D01*
X149296413Y-70496204D01*
X149290317Y-70504596D01*
X149234986Y-70547261D01*
X149165373Y-70553239D01*
X149103578Y-70520632D01*
X149089683Y-70504596D01*
X149083586Y-70496204D01*
X148913798Y-70326416D01*
X148913796Y-70326414D01*
X148719536Y-70185276D01*
X148505593Y-70076265D01*
X148277222Y-70002063D01*
X148040059Y-69964500D01*
X147799941Y-69964500D01*
X147681359Y-69983281D01*
X147562777Y-70002063D01*
X147334406Y-70076265D01*
X147120463Y-70185276D01*
X146926201Y-70326416D01*
X146756413Y-70496204D01*
X146750317Y-70504596D01*
X146694986Y-70547261D01*
X146625373Y-70553239D01*
X146563578Y-70520632D01*
X146549683Y-70504596D01*
X146543586Y-70496204D01*
X146373798Y-70326416D01*
X146373796Y-70326414D01*
X146179536Y-70185276D01*
X145965593Y-70076265D01*
X145737222Y-70002063D01*
X145500059Y-69964500D01*
X145259941Y-69964500D01*
X145141359Y-69983281D01*
X145022777Y-70002063D01*
X144794406Y-70076265D01*
X144580463Y-70185276D01*
X144386201Y-70326416D01*
X144216413Y-70496204D01*
X144210317Y-70504596D01*
X144154986Y-70547261D01*
X144085373Y-70553239D01*
X144023578Y-70520632D01*
X144009683Y-70504596D01*
X144003586Y-70496204D01*
X143833798Y-70326416D01*
X143833796Y-70326414D01*
X143639536Y-70185276D01*
X143425593Y-70076265D01*
X143197222Y-70002063D01*
X142960059Y-69964500D01*
X142719941Y-69964500D01*
X142601359Y-69983281D01*
X142482777Y-70002063D01*
X142254406Y-70076265D01*
X142040463Y-70185276D01*
X141846201Y-70326416D01*
X141676413Y-70496204D01*
X141670317Y-70504596D01*
X141614986Y-70547261D01*
X141545373Y-70553239D01*
X141483578Y-70520632D01*
X141469683Y-70504596D01*
X141463586Y-70496204D01*
X141293798Y-70326416D01*
X141293796Y-70326414D01*
X141099536Y-70185276D01*
X140885593Y-70076265D01*
X140657222Y-70002063D01*
X140420059Y-69964500D01*
X140179941Y-69964500D01*
X140061359Y-69983281D01*
X139942777Y-70002063D01*
X139714406Y-70076265D01*
X139500463Y-70185276D01*
X139306201Y-70326416D01*
X139136413Y-70496204D01*
X139130317Y-70504596D01*
X139074986Y-70547261D01*
X139005373Y-70553239D01*
X138943578Y-70520632D01*
X138929683Y-70504596D01*
X138923586Y-70496204D01*
X138753798Y-70326416D01*
X138753796Y-70326414D01*
X138559536Y-70185276D01*
X138345593Y-70076265D01*
X138117222Y-70002063D01*
X137880059Y-69964500D01*
X137639941Y-69964500D01*
X137521359Y-69983281D01*
X137402777Y-70002063D01*
X137174406Y-70076265D01*
X136960463Y-70185276D01*
X136766201Y-70326416D01*
X136596416Y-70496201D01*
X136455276Y-70690463D01*
X136346265Y-70904406D01*
X136275359Y-71122633D01*
X136245109Y-71171995D01*
X135927106Y-71489999D01*
X135770000Y-71489999D01*
X135770000Y-71417591D01*
X135732518Y-71277708D01*
X135660110Y-71152292D01*
X135557708Y-71049890D01*
X135432292Y-70977482D01*
X135292409Y-70940000D01*
X135147591Y-70940000D01*
X135007708Y-70977482D01*
X134882292Y-71049890D01*
X134779890Y-71152292D01*
X134707482Y-71277708D01*
X134670000Y-71417591D01*
X134440485Y-71417591D01*
X133950001Y-70927106D01*
X133950000Y-70927106D01*
X133387106Y-71490000D01*
X133230000Y-71490000D01*
X133230000Y-71417591D01*
X133192518Y-71277708D01*
X133120110Y-71152292D01*
X133017708Y-71049890D01*
X132892292Y-70977482D01*
X132752409Y-70940000D01*
X132607591Y-70940000D01*
X132467708Y-70977482D01*
X132342292Y-71049890D01*
X132239890Y-71152292D01*
X132167482Y-71277708D01*
X132130000Y-71417591D01*
X131900485Y-71417591D01*
X131410001Y-70927106D01*
X131410000Y-70927106D01*
X130847106Y-71490000D01*
X130690000Y-71490000D01*
X130690000Y-71417591D01*
X130652518Y-71277708D01*
X130580110Y-71152292D01*
X130477708Y-71049890D01*
X130352292Y-70977482D01*
X130212409Y-70940000D01*
X130067591Y-70940000D01*
X129927708Y-70977482D01*
X129802292Y-71049890D01*
X129699890Y-71152292D01*
X129627482Y-71277708D01*
X129590000Y-71417591D01*
X129360485Y-71417591D01*
X129114891Y-71171997D01*
X129084641Y-71122634D01*
X129037478Y-70977482D01*
X129013736Y-70904411D01*
X128904724Y-70690464D01*
X128763586Y-70496204D01*
X128593796Y-70326414D01*
X128503504Y-70260813D01*
X128503503Y-70260812D01*
X128399539Y-70185278D01*
X128399538Y-70185277D01*
X128399536Y-70185276D01*
X128332725Y-70151233D01*
X128266501Y-70117490D01*
X129474597Y-70117490D01*
X130140000Y-70782893D01*
X130140001Y-70782893D01*
X130805400Y-70117491D01*
X130805398Y-70117490D01*
X132014597Y-70117490D01*
X132680000Y-70782893D01*
X132680001Y-70782893D01*
X133345400Y-70117491D01*
X133345398Y-70117490D01*
X134554597Y-70117490D01*
X135220000Y-70782893D01*
X135220001Y-70782893D01*
X135885400Y-70117491D01*
X135805401Y-70076728D01*
X135577105Y-70002549D01*
X135340025Y-69965000D01*
X135099975Y-69965000D01*
X134862894Y-70002549D01*
X134634602Y-70076727D01*
X134634595Y-70076730D01*
X134554597Y-70117490D01*
X133345398Y-70117490D01*
X133265401Y-70076728D01*
X133037105Y-70002549D01*
X132800025Y-69965000D01*
X132559975Y-69965000D01*
X132322894Y-70002549D01*
X132094602Y-70076727D01*
X132094595Y-70076730D01*
X132014597Y-70117490D01*
X130805398Y-70117490D01*
X130725401Y-70076728D01*
X130497105Y-70002549D01*
X130260025Y-69965000D01*
X130019975Y-69965000D01*
X129782894Y-70002549D01*
X129554602Y-70076727D01*
X129554595Y-70076730D01*
X129474597Y-70117490D01*
X128266501Y-70117490D01*
X128185593Y-70076265D01*
X127957222Y-70002063D01*
X127720059Y-69964500D01*
X127479941Y-69964500D01*
X127361359Y-69983281D01*
X127242777Y-70002063D01*
X127014406Y-70076265D01*
X126800463Y-70185276D01*
X126606201Y-70326416D01*
X126436416Y-70496201D01*
X126295276Y-70690463D01*
X126186265Y-70904406D01*
X126112063Y-71132777D01*
X126074500Y-71369941D01*
X126074500Y-71610058D01*
X126112063Y-71847222D01*
X126186265Y-72075593D01*
X126248180Y-72197106D01*
X126295276Y-72289536D01*
X126436414Y-72483796D01*
X126606204Y-72653586D01*
X126738468Y-72749681D01*
X126781133Y-72805011D01*
X126787112Y-72874624D01*
X126754506Y-72936419D01*
X126727583Y-72957386D01*
X126553226Y-73058052D01*
X126553217Y-73058058D01*
X126376377Y-73193751D01*
X126376370Y-73193757D01*
X126218757Y-73351370D01*
X126218751Y-73351377D01*
X126083058Y-73528217D01*
X126083052Y-73528226D01*
X125971595Y-73721273D01*
X125971593Y-73721277D01*
X125886293Y-73927209D01*
X125886290Y-73927219D01*
X125828597Y-74142534D01*
X125828594Y-74142547D01*
X125799501Y-74363533D01*
X125799500Y-74363549D01*
X123269471Y-74363549D01*
X123269461Y-74363543D01*
X123080086Y-74254207D01*
X123080062Y-74254195D01*
X122723921Y-74088124D01*
X122723910Y-74088120D01*
X122723908Y-74088119D01*
X122354616Y-73953707D01*
X122066017Y-73876377D01*
X121975016Y-73851993D01*
X121975005Y-73851991D01*
X121587997Y-73783751D01*
X121196500Y-73749500D01*
X121196496Y-73749500D01*
X120803504Y-73749500D01*
X120803499Y-73749500D01*
X120412004Y-73783751D01*
X120412000Y-73783751D01*
X120024994Y-73851991D01*
X120024983Y-73851993D01*
X119821555Y-73906502D01*
X119645384Y-73953707D01*
X119645381Y-73953708D01*
X119645380Y-73953708D01*
X119276078Y-74088124D01*
X118919937Y-74254195D01*
X118919913Y-74254207D01*
X118579587Y-74450695D01*
X118579572Y-74450704D01*
X118257652Y-74676115D01*
X117956606Y-74928724D01*
X117678724Y-75206606D01*
X117426115Y-75507652D01*
X117200704Y-75829572D01*
X117200695Y-75829587D01*
X117004207Y-76169913D01*
X117004195Y-76169937D01*
X116838124Y-76526078D01*
X116706195Y-76888549D01*
X116703707Y-76895384D01*
X116684048Y-76968753D01*
X116601993Y-77274983D01*
X116601991Y-77274994D01*
X116533751Y-77662000D01*
X116533751Y-77662004D01*
X116499500Y-78053499D01*
X111325859Y-78053499D01*
X111325859Y-78050803D01*
X111325507Y-69374376D01*
X111345189Y-69307336D01*
X111397991Y-69261579D01*
X111449426Y-69250371D01*
X130646840Y-69237999D01*
X130661291Y-69237995D01*
X130661303Y-69237990D01*
X130661317Y-69237990D01*
X130675067Y-69232283D01*
X130685059Y-69228141D01*
X130688786Y-69226749D01*
X130689056Y-69226478D01*
X130689058Y-69226478D01*
X130701521Y-69214000D01*
X130701524Y-69213997D01*
X130701529Y-69214002D01*
X130701547Y-69213973D01*
X130708298Y-69207218D01*
X130710070Y-69205529D01*
X130710266Y-69205249D01*
X130710269Y-69205247D01*
X130710269Y-69205244D01*
X130710281Y-69205228D01*
X130710284Y-69205226D01*
X130710285Y-69205222D01*
X130710413Y-69205041D01*
X130711230Y-69202936D01*
X130716282Y-69190717D01*
X130720114Y-69181457D01*
X130721760Y-69177851D01*
X130721757Y-69173185D01*
X130721750Y-69163767D01*
X130721750Y-69163712D01*
X130719309Y-61037037D01*
X130738973Y-60969992D01*
X130791764Y-60924221D01*
X130843309Y-60913000D01*
X169154219Y-60913000D01*
X169221258Y-60932685D01*
G37*
G04 #@! TD.AperFunction*
M02*
