G04 #@! TF.GenerationSoftware,KiCad,Pcbnew,9.0.7*
G04 #@! TF.CreationDate,2026-03-26T19:29:14+01:00*
G04 #@! TF.ProjectId,lofence,6c6f6665-6e63-4652-9e6b-696361645f70,rev?*
G04 #@! TF.SameCoordinates,Original*
G04 #@! TF.FileFunction,Soldermask,Bot*
G04 #@! TF.FilePolarity,Negative*
%FSLAX46Y46*%
G04 Gerber Fmt 4.6, Leading zero omitted, Abs format (unit mm)*
G04 Created by KiCad (PCBNEW 9.0.7) date 2026-03-26 19:29:14*
%MOMM*%
%LPD*%
G01*
G04 APERTURE LIST*
G04 Aperture macros list*
%AMRoundRect*
0 Rectangle with rounded corners*
0 $1 Rounding radius*
0 $2 $3 $4 $5 $6 $7 $8 $9 X,Y pos of 4 corners*
0 Add a 4 corners polygon primitive as box body*
4,1,4,$2,$3,$4,$5,$6,$7,$8,$9,$2,$3,0*
0 Add four circle primitives for the rounded corners*
1,1,$1+$1,$2,$3*
1,1,$1+$1,$4,$5*
1,1,$1+$1,$6,$7*
1,1,$1+$1,$8,$9*
0 Add four rect primitives between the rounded corners*
20,1,$1+$1,$2,$3,$4,$5,0*
20,1,$1+$1,$4,$5,$6,$7,0*
20,1,$1+$1,$6,$7,$8,$9,0*
20,1,$1+$1,$8,$9,$2,$3,0*%
G04 Aperture macros list end*
%ADD10C,2.800000*%
%ADD11C,1.200000*%
%ADD12C,7.400000*%
%ADD13RoundRect,0.102000X0.825000X-0.825000X0.825000X0.825000X-0.825000X0.825000X-0.825000X-0.825000X0*%
%ADD14C,1.854000*%
G04 APERTURE END LIST*
D10*
X142900000Y-133670000D03*
X142900000Y-118430000D03*
X148775000Y-118430000D03*
X148775000Y-133670000D03*
D11*
X118375000Y-121750000D03*
X119143845Y-119893845D03*
X119143845Y-123606155D03*
X121000000Y-119125000D03*
D12*
X121000000Y-121750000D03*
D11*
X121000000Y-124375000D03*
X122856155Y-119893845D03*
X122856155Y-123606155D03*
X123625000Y-121750000D03*
D13*
X127600000Y-94510000D03*
D14*
X130140000Y-94510000D03*
X132680000Y-94510000D03*
X135220000Y-94510000D03*
X137760000Y-94510000D03*
X140300000Y-94510000D03*
X142840000Y-94510000D03*
X145380000Y-94510000D03*
X147920000Y-94510000D03*
X150460000Y-94510000D03*
X153000000Y-94510000D03*
X155540000Y-94510000D03*
X158080000Y-94510000D03*
X160620000Y-94510000D03*
X163160000Y-94510000D03*
X165700000Y-94510000D03*
X168240000Y-94510000D03*
X170780000Y-94510000D03*
X127600000Y-71490000D03*
X130140000Y-71490000D03*
X132680000Y-71490000D03*
X135220000Y-71490000D03*
X137760000Y-71490000D03*
X140300000Y-71490000D03*
X142840000Y-71490000D03*
X145380000Y-71490000D03*
X147920000Y-71490000D03*
X150460000Y-71490000D03*
X153000000Y-71490000D03*
X155540000Y-71490000D03*
X158080000Y-71490000D03*
X160620000Y-71490000D03*
X163160000Y-71490000D03*
X165700000Y-71490000D03*
X168240000Y-71490000D03*
X170780000Y-71490000D03*
D11*
X176375000Y-121750000D03*
X177143845Y-119893845D03*
X177143845Y-123606155D03*
X179000000Y-119125000D03*
D12*
X179000000Y-121750000D03*
D11*
X179000000Y-124375000D03*
X180856155Y-119893845D03*
X180856155Y-123606155D03*
X181625000Y-121750000D03*
X118375000Y-78250000D03*
X119143845Y-76393845D03*
X119143845Y-80106155D03*
X121000000Y-75625000D03*
D12*
X121000000Y-78250000D03*
D11*
X121000000Y-80875000D03*
X122856155Y-76393845D03*
X122856155Y-80106155D03*
X123625000Y-78250000D03*
X176375000Y-78250000D03*
X177143845Y-76393845D03*
X177143845Y-80106155D03*
X179000000Y-75625000D03*
D12*
X179000000Y-78250000D03*
D11*
X179000000Y-80875000D03*
X180856155Y-76393845D03*
X180856155Y-80106155D03*
X181625000Y-78250000D03*
M02*
